<?xml version="1.0" standalone="no"?>
<!DOCTYPE svg PUBLIC "-//W3C//DTD SVG 1.1//EN" "http://www.w3.org/Graphics/SVG/1.1/DTD/svg11.dtd" >
<svg>
<metadata>
Created by FontForge 20120731 at Tue Feb  9 16:50:34 2021
 By ffonts
Typeface (c) (Kong Font). 2020. All Rights Reserved.
</metadata>
<defs>
<font id="RoadSunshine-Italic" horiz-adv-x="200" >
  <font-face 
    font-family="Road Sunshine Italic"
    font-weight="400"
    font-style="italic"
    font-stretch="normal"
    units-per-em="2048"
    panose-1="2 0 6 0 0 0 0 0 0 0"
    ascent="1638"
    descent="-410"
    x-height="606"
    cap-height="1558"
    bbox="-501.846 -481.118 2558.5 2131.91"
    underline-thickness="150"
    underline-position="-142"
    unicode-range="U+001D-E089"
  />
<missing-glyph horiz-adv-x="1024" 
d="M100 0v1434h824v-1434h-824zM150 50h724v1334h-724v-1334zM325 1148q31 28 58 43q53 30 112 30q92 0 148 -47.5t56 -127.5q0 -49 -23 -98.5t-87 -129.5q-63 -80 -99 -132t-36 -99q0 -38 24 -133h-32q-35 97 -35 148q0 76 81.5 218t81.5 217q0 57 -33 90t-91 33
q-38 0 -69 -17q-26 -15 -56 -40v45zM389 334l57 58q11 10 20 10q10 0 22 -11l56 -60q9 -11 9 -20q0 -11 -10 -22l-56 -62q-14 -14 -21 -14q-11 0 -20 10l-61 71q-7 9 -7 18q0 10 11 22z" />
    <glyph glyph-name="ab" unicode="ab" horiz-adv-x="637" 
d="M323 444q21 14 41 30q69 59 130 126q7 8 15 15q92 96 182 194l5 6l5 10q44 68 95 134q50 67 112 127q6 5 11 5q1 0 3 -1t3 -4q1 -2 0 -4q-1 -1 -2 -3q-23 -30 -48 -59q-32 -38 -62 -78q-27 -35 -51 -71q-2 -4 -6 -8q-2 -3 -4 -7q-6 -8 -13 -17v-1l-23 -36
q-43 -68 -79 -138q-36 -69 -64 -139l-15 -41l9 14q31 45 73 84q9 9 20 16t22 10q4 1 8 1q8 0 14 -4q7 -5 10 -14q5 -19 -1 -42q-4 -18 -10 -36l24 10q63 22 123 54q2 1 3 1q2 0 3 -1.5t0.5 -5t-4.5 -5.5l-22 -12q-50 -24 -102 -42q-15 -6 -31 -12q-21 -49 -61 -91
q-17 -19 -41 -36q-18 -12 -34 -12q-6 0 -11 2q-17 10 -9 32l1 4q7 19 21 35q36 36 82 56q12 5 23 10q5 10 9 21q7 20 10 39q1 9 2 17q0 3 -1 5.5t-2 4.5q-3 4 -9 4h-3q-10 -2 -19 -9q-20 -16 -37 -35q-52 -59 -82 -126l-11 -36q-1 -3 -4 -5v-1q-1 -3 -5 -4q-1 -1 -2 -1t-3 1
t-1 4v1q-1 1 -1 3q8 39 21 78l1 3q8 26 18 52l9 26q45 116 111 230l-7 -7l-6 -8q-74 -79 -149 -157l-11 -11q-61 -67 -130 -126q-37 -33 -79 -56q-19 -9 -37 -9h-6q-16 4 -23 17q-10 30 3 67l2 3q4 11 9 22l-5 -5q-19 -22 -42 -43q-12 -12 -30.5 -25.5t-35.5 -18.5
q-4 -1 -7 -1q-12 0 -20 10q-6 11 -2 25l4 12q3 9 8 17q13 25 34 46q43 48 100 65q10 3 19 3q17 0 28 -11l4 -4q2 0 3 -2t0 -4q3 -10 -1 -22l-2 -6q-1 -3 -4 -3h-2q-1 0 -2.5 0.5t-0.5 3.5q2 6 1 11q-1 -4 -4 -9q-4 -7 -6 -14q-7 -14 -13 -29q-4 -10 -6 -20q-3 -7 -4 -11
t-1 -9q-3 -9 -2 -18l-1 -3h1l-1 -2q1 -1 0 -2l2 -6q1 -2 1 -3t0.5 -1t-0.5 -1q3 -2 3 -3q7 -5 17 -5q6 0 13 2q22 9 42 23zM267 562l2 8q-1 1 -4 1q-3 1 -6 1q-8 0 -19.5 -4.5t-23.5 -11.5q-40 -23 -69 -60l-1 -1h-1q0 -1 -2 -3l-2 -4q-4 -5 -7 -10q-6 -9 -12 -19l-2 -5
l-2.5 -7.5t-1 -9.5t6.5 -6q5 1 11 3.5t10 5.5h1q10 6 20 13q20 16 37 34l49 52q3 6 8 13q2 3 4 5q2 3 4 5zM659 481q1 2 3 5l-1 -1q-9 -3 -17 -7q-41 -17 -73 -50q-14 -14 -19 -29l-2 -6q-3 -10 3 -16q4 -2 9 -2q4 0 8 1q10 4 18 11t16 16q16 18 29 37q14 20 26 41z" />
    <glyph glyph-name="ad" unicode="ad" horiz-adv-x="585" 
d="M293 585q0 -1 -1 -1l-8 -20q-2 -5 -3 -8.5t-2 -8.5q-3 -16 -1.5 -30t13.5 -22q13 -5 28 -5q18 0 40 8q38 14 76 36q19 10 38 22q8 5 15 10q11 8 20 14q8 9 16 17q18 18 40 26q4 1 8 1q6 0 10 -2q9 -3 8 -14v-1q45 66 87 132q71 110 137 221q9 15 18 31q10 18 22 36l5 10
l6 8q3 5 7 10l1 2q0 1 1 2q1 2 3 3v1q3 4 8 5h3q2 0 4 -1t0 -6q-3 -5 -4 -10q-3 -6 -5 -11q-3 -4 -4 -8l-7 -14q-11 -21 -22 -41l-44 -82q-80 -146 -143 -293q-15 -37 -29 -74q-40 -110 -60 -219v-2q-1 -3 -4 -5q-3 -1 -5 -1h-3t-2 4q12 82 36 165q16 52 35 103
q35 98 83 195q15 32 32 64q-45 -74 -93 -147q-27 -43 -56 -86q0 -1 -2 -3q-23 -36 -51 -70q-14 -18 -31 -33q0 -1 -1 -1q-8 -8 -17 -14.5t-17 -8.5h-4q-7 0 -10 6t-1 15q2 12 6 24q3 7 6 13q6 15 15 29q-12 -8 -23 -15q-22 -14 -46 -26q-40 -22 -81 -34q-17 -5 -33 -5
q-22 0 -40 11q-24 23 -17 63l1 3q-16 -18 -32 -35q-2 -2 -5 -4q-29 -34 -65 -59q-6 -4 -12 -5q-4 -1 -8 -1h-3q-6 4 -7 12q0 8 3 17q1 2 3.5 8t8.5 16q25 41 66 69q19 13 37 13h3q12 -3 15 -14l2 2l9 20q6 10 13 19q4 5 9 11q5 5 13 9q3 2 5 2q3 0 6.5 -3t1.5 -9
q-4 -8 -9 -16q-2 -2 -4 -5q-2 -4 -5 -9q-2 -3 -3 -5v-1zM215 528q16 15 29 30q-1 1 0 3q-1 7 -7 7q-1 0 -6.5 -0.5t-12.5 -5.5q-19 -13 -35 -32q-16 -18 -27 -38q-7 -10 -9 -18l-3 -6q9 3 18 9.5t17 13.5q18 17 36 36v1zM517 566q-22 -26 -33 -55q-3 -8 -5 -17l-1 -1
q-1 -3 -1 -6.5t2 -4.5q2 0 6 2.5t7 4.5l1 1q17 13 31 28q27 30 48 63q5 6 8 11t6 9q-2 -2 -5 -2h-5q-2 2 -5.5 2.5t-5.5 0.5q-4 0 -8.5 -2.5t-6.5 -4.5q-18 -13 -33 -29z" />
    <glyph glyph-name="ah" unicode="ah" horiz-adv-x="478" 
d="M73 419q-8 0 -9.5 6t0.5 15l5 14q11 24 30 45q33 40 79 66q13 7 30 12q11 4 21 4q5 0 10 -1l2 1l1.5 -0.5t1.5 -2.5q8 -4 10 -13l-1 -2q0 -1 -1.5 -3t-2.5 -3h-5q-4 1 -8 1q-2 -3 -4 -7q-2 -3 -4 -7q-3 -5 -5 -10q-2 -6 -4 -11q-4 -11 -6 -22q-1 -8 0 -15t6 -12
q5 -4 12 -4q8 0 16 3q36 15 65 41q33 26 60 56q60 64 112 131q39 48 75 96q26 47 56 93q20 32 42 64q1 0 2 1q10 15 23 29q3 3 5 6q5 4 10 9q1 2 5 4q0 1 1 1l7 6q1 0 1 1q3 2 6 2q2 0 3 -2q2 -2 1 -5q-1 -1 -2 -3q-4 -5 -7 -10q-2 -4 -5 -7q-3 -5 -7 -10q-2 -4 -6 -8
q-11 -16 -22 -33q-23 -35 -46 -71q-77 -128 -134 -259q-21 -47 -38 -95q-11 -31 -21 -63l1 4q3 4 4 7q23 48 60 91q0 1 1 1q7 9 18 18t21 10q6 0 9.5 -3.5t5.5 -8.5l3 -8q1 -5 3 -10q7 -16 23 -23q12 -5 27 -5h8q46 12 70 54q2 3 4 3h2q2 0 3 -1.5t0 -4.5q-27 -46 -77 -63
q-17 -5 -30 -5q-27 0 -43 19q-8 13 -11 28q-1 5 -3 9l1 1q-1 1 -1.5 2t-1.5 1q-3 0 -5.5 -1.5t-5.5 -3.5q-10 -9 -19 -19q-36 -45 -58 -94q-17 -33 -29 -66q-5 -20 -10 -39q-2 -4 -5 -6q-3 -1 -5 -1t-3.5 0.5t-1.5 4.5q15 75 39 152q11 35 24 70q35 95 83 190
q-33 -43 -67 -85q0 -1 -2 -2q-54 -69 -117 -133q-31 -31 -67 -56q-18 -12 -36 -19q-14 -5 -25 -5q-6 0 -12 1q-17 5 -20.5 21.5t0.5 35.5l2 5q-17 -18 -35 -35q-19 -19 -39 -36q-10 -8 -21 -15q-5 -3 -10.5 -5.5t-11.5 -2.5zM85 447l-2 -5l-1 -4l-2 -3l10 4l7 4q18 12 33 27
q1 0 1 1q20 17 37 34t34 35v2l2 2q3 6 9 11h-2q-1 0 -2 -1q-18 -5 -37 -17q-34 -24 -63 -56q-15 -16 -24 -34z" />
    <glyph glyph-name="ak" unicode="ak" horiz-adv-x="578" 
d="M280 579q4 -3 2 -8l-1 -2q-12 -21 -19 -42l-3 -6q-5 -16 -6 -29q1 -15 9 -25q8 -8 22 -8q20 4 39 15q76 49 140 116q1 2 4 4l2 6q6 13 10 25q39 92 87 183q43 87 108 166q14 18 33 35.5t40 23.5q8 2 15 2q11 0 20 -6q9 -12 6 -31q-3 -15 -8 -31q-11 -28 -29 -55
q-26 -42 -57 -82q-59 -78 -130 -151l-58 -60q-12 -27 -22 -54q-12 -29 -22 -58l2 4l4 6q32 52 75 99q11 11 21 20l2 1q10 10 23 17q7 3 13 3q7 0 10 -5q4 -9 0 -19l-1 -3q-13 -25 -33 -48l-1 -1q-18 -23 -40 -44q-32 -33 -70 -57q19 -2 40 -2h14q67 6 137 34q67 25 132 64
q2 1 3 1t2 -1.5t0.5 -4.5t-4.5 -5q-37 -22 -76 -40q-67 -31 -135 -49q-37 -10 -74 -15q-14 -2 -27 -2q-16 0 -30 3q-2 -2 -3 -4q-1 -4 -4 -9q-10 -29 -18 -57q-26 -87 -40 -172q-1 -4 -3.5 -7t-7.5 -4h-2q-2 0 -4 1t-1 5q1 6 2 11q2 17 5 33q17 90 44 182q19 65 42 130
q-18 -18 -37 -35q-35 -33 -73 -60q-21 -15 -42 -27q-21 -11 -41 -11q-20 1 -29.5 14.5t-8.5 31.5q0 15 6 30q3 10 9 20l-2 -1q0 -1 -1 -1l-21 -20l-15 -14l-12 -10q-12 -10 -22 -20q-8 -7 -15.5 -12.5t-16.5 -8.5q-3 -1 -6 -1q-6 0 -9.5 4t-2.5 13q1 5 3 10q5 13 13 25
q20 34 40 52q37 34 60 34h4q21 -1 13 -26q7 8 15 16q2 3 6 4l3 1zM221 531q9 8 17 17l-1 2q1 1 0 1l-1 1h-1v1h-2v1h-7q-2 0 -4 -1h-1q-1 0 -1.5 -0.5t-1.5 -1t-2 -0.5q-5 -2 -8 -5q-1 0 -1.5 -0.5t-1 -0.5t-1.5 -1l-3 -3l-8 -6q-4 -3 -6 -5l-5 -5q-1 0 -1 -1q-2 -1 -2 -2
q-6 -5 -11 -11q-11 -12 -20 -26q-6 -8 -10 -16l-2 -6h1q2 0 3.5 1t3.5 2q6 3 12 8q33 27 65 57zM531 588q-29 -34 -53 -71q1 0 2 1l1 1q21 18 42 38q19 19 36 40q4 5 7 9t7 9l4 6q6 6 11 13l1 4q-11 -5 -20 -13q-21 -16 -38 -37zM557 737q-22 -47 -41 -95q112 110 200 234
q27 40 47 81q3 6 5 12q6 14 7 28q1 8 -1 15t-9 9q-4 1 -8 1q-14 0 -30 -14t-29 -29q-30 -36 -53 -75q-24 -41 -45 -83q-22 -41 -43 -84z" />
    <glyph glyph-name="al" unicode="al" horiz-adv-x="457" 
d="M761 1018q4 4 8 4q1 0 3 -1t1 -6l-2 -7q0 -1 -1 -1q0 -2 -1 -4t-2 -3l-1 -2l-16 -28l-2 -4q-8 -13 -16 -27q-6 -10 -13 -21q-27 -46 -53 -94q-85 -157 -144 -318l-7 -21q-32 -86 -54 -172q-21 -85 -36 -169v-2q-1 -4 -4 -6q-4 -2 -7 -2q-1 0 -3.5 0.5t-2.5 5.5
q10 95 34 193q24 100 60 199q27 73 60 146q19 42 40 84q-51 -70 -106 -138l-70 -86q-32 -40 -67 -77t-77 -64q-23 -16 -44 -16h-5q-20 6 -25 26q-4 19 -1 41q3 18 10 36l3 9q4 9 8 17q-19 -18 -39 -35q-24 -19 -48 -37q-11 -9 -24 -15q-7 -3 -13 -3q-5 0 -10 2q-11 5 -8 18
l3 8q3 8 7 16q12 22 29 43q34 43 83 69q25 14 51 18q4 1 8 1q8 0 14 -3q7 -3 10 -9q1 -3 0.5 -5.5t-0.5 -4.5q-1 -2 -3 -4q-5 -10 -9 -19q-7 -12 -12 -22q-8 -17 -15 -34l-8 -25v-1.5v-1.5l-2 -5q-2 -11 -2 -22v-6q1 0 0.5 -0.5t-0.5 -1.5l1 -1q-1 -4 1 -7q0 -3 1 -5v-1v-1
q1 -2 2 -3v-1q1 0 1 -1h2q-1 -1 -0.5 -1t1.5 -1q2 0 2 -1h1l1 -1h6q9 1 18 5q20 11 38 26q37 30 68 66q69 79 133 161q62 79 119 159q1 3 3 6l12 22q25 43 51 85q14 21 27 41q15 22 33 40zM259 559q3 4 7 8h-4q-6 0 -10 -0.5t-10 -2.5l-4.5 -1.5l-4.5 -1.5l-12 -6
q-5 -2 -10 -5q-4 -2 -6 -4q-1 0 -2 -1h-1q-38 -24 -67 -57q-15 -17 -25 -35l-2 -2q-2 -3 -3 -7q-2 -4 -1 -7q2 -1 4 -1h5t6 2q9 5 19 12l24 18q21 16 41 33q22 19 42 38q7 11 14 20z" />
    <glyph glyph-name="an" unicode="an" horiz-adv-x="521" 
d="M736 568q-22 -19 -48 -35q-23 -15 -49 -25q-21 -7 -41 -7q-10 0 -18 3q0 1 -1 1q-5 1 -8 4l-6 6q-9 15 -6 35q1 11 4 23q0 7 1 15l1 3v6l1 2q-1 1 -1.5 1t0.5 1q-1 0 -2 -0.5t-2 -0.5q-1 -1 -2 -1q-5 -2 -10 -6q-22 -15 -40 -34q-20 -21 -38 -42l-18 -22q-1 -2 -2 -3
q-3 -4 -7 -9q-2 -5 -7 -9q-6 -4 -11 -4q-1 0 -4.5 0.5t-3.5 7.5q-1 7 1 16l1 2q1 9 3 18l3 10q6 15 14 30q-13 -10 -25 -20q-40 -31 -84 -57q-22 -13 -45 -21q-17 -7 -34 -7q-5 0 -10 1q-10 1 -17 5q-9 4 -12 11q-10 18 -1 42l5 15q-18 -17 -36 -32q-17 -14 -35 -25
q-9 -5 -19 -8q-6 -2 -10 -2t-7 2q-7 4 -6 13q1 6 3 12l3 6q9 20 26 37q31 32 71 50q9 4 19 6q4 1 7 1q6 0 10 -2q6 -1 9 -6q10 11 23 16q1 1 2 1t3 -1t1 -4q-5 -14 -15 -29l-9 -14q-1 -3 -2.5 -5t-2.5 -5v-2q-1 -1 -2 -3l-2 -5q-4 -11 -7 -22q-1 -3 -1.5 -8t-0.5 -8
q1 -1 0.5 -2.5t0.5 -3.5h1q-1 -1 0 -1q0 -1 0.5 -1t1.5 -1q8 -9 23 -9q21 1 42 11t39 21q55 33 104 75l1 3q2 3 5 7q10 18 25 33v1l10 10t12 9q5 3 8 3q2 0 4 -1q4 -2 3 -8q-1 -3 -3 -6l-2 -2q-2 -5 -6 -10q-5 -9 -11 -17q-13 -19 -23 -38l-3 -7.5t-4 -6.5q-4 -9 -7 -17
l-5 -15q5 6 10 13q20 24 44 47q18 18 40 33l2 2q10 7 20 11h5q10 0 14 -7q7 -16 2 -37v-1q-1 -3 -1 -5q-3 -16 -2 -30l-1 -2h1q0 -1 1 -1q-1 -2 0 -3l1 -1v-2q1 -2 3 -3q4 -6 11 -8q6 -1 13 -1q11 0 25 4q48 16 87 53q3 2 5 2h2q2 0 2 -3v-2q-1 -2 -3 -4zM236 556l1 2h-7
l-1 -1h-3q-1 0 -3 -1q-2 0 -4 -0.5t-3 -1.5q-4 -1 -8 -3l-8 -4q-12 -7 -25 -18q-13 -10 -25 -22q-13 -12 -21 -26q-2 -2 -3 -5v-4h2q2 0 5 1q16 6 31.5 17t29.5 23q18 15 34 32q5 6 8 11z" />
    <glyph glyph-name="and" unicode="and" horiz-adv-x="847" 
d="M314 451q21 7 41 18q41 23 78 53q18 15 37 31l15 12l11 10l2 4l4 6q15 27 38 48q4 3 9 3q4 0 6.5 -3t0.5 -8q0 -2 -2 -4q-4 -11 -11 -22q-2 -4 -5 -9l-9 -14q-14 -24 -25 -47q-10 -19 -19 -40v1q20 24 43 47q4 3 6 6q8 8 16.5 16t18.5 11q5 2 9 2q2 0 6 -1.5t7 -6.5
q3 -9 1 -19v-3q-1 -5 0 -10q0 -3 -1 -5h1l-1 -2q1 0 1 -1q0 -4 1 -9l1 -1q0 -1 0.5 -1t0 0t-0.5 1q1 -1 1 -3q1 0 1 -1l2 -4h1v-1h1l-1 -1q3 -3 8 -5q5 -4 14 -5q23 0 46.5 9t46.5 22q22 12 45 26q13 17 29 31q18 18 42 28q12 5 23 5t20 -5q8 -4 9 -13q0 -1 1 -2
q36 43 72 87q28 36 56 73q33 65 70 128q24 40 50 80l4 8q23 37 50 71q2 3 5 3t5 -1.5t1 -5.5q-16 -33 -37 -67q-6 -12 -13 -24q-12 -20 -23 -41q-15 -24 -28 -48q-91 -159 -160 -321q-20 -47 -37 -94q-42 -114 -64 -228v-2q-1 -3 -4 -5q-3 -1 -5 -1h-3t-1 4q13 90 39 183
q16 52 35 105q38 104 90 208q-45 -60 -96 -118q1 -1 0 -4l-1 -2q-38 -45 -84 -85l-5 -4q-17 -16 -34 -28q-11 -7 -22 -9h-4q-7 0 -12 5q-4 7 -2 16q2 11 5 21q5 15 15 30l-36 -20q-46 -26 -94 -34q-8 -2 -15 -2q-15 0 -26 7q-18 13 -17 37q1 10 4 21q1 6 3 12l1 1
q-3 -1 -4 -1.5t-2 -0.5q-5 -3 -9 -6q-12 -9 -21 -19q-21 -20 -38 -43l-17 -24l-5 -8q-2 -3 -3 -6l-2 -5q-2 -3 -4.5 -5t-5.5 -4q-2 -1 -4 -1h-3.5t-4.5 1q-4 4 -3.5 11t2.5 14l2 4q3 12 8 25q9 26 23 53q3 5 6 11q0 1 2 3q-3 -2 -6 -5q-4 -3 -7 -6q-23 -20 -46 -38
q-41 -32 -86 -56q-24 -13 -48 -21q-13 -5 -24 -5q-13 0 -24 7q-13 13 -11 35q1 17 7 33l5 11q2 6 5 12q-20 -20 -41 -39q-23 -20 -48 -38q-11 -8 -23 -12q-6 -2 -11 -2q-6 0 -11 3q-7 7 -4 19l8 23q12 25 29 47q18 24 43 44q23 20 49 31q14 6 28 7h4q12 0 22 -5q2 -3 4 -7
l4 3q7 5 14 7q2 1 3 1q2 0 4.5 -2t1.5 -5l-2 -7q-3 -10 -11 -20q-9 -12 -17 -23q-14 -24 -23 -48l-4 -11v-2v-1q-1 -5 -2 -9v-4v-1v-2v-1q1 0 0 -1l1 -4h1l-1 -2h1q0 -1 1 -1l-1 -1l3 -3l1 -1h-1q2 0 2 -1q2 -1 3 -2q1 0 1 -1l2 -1h14q12 2 23 6zM269 555q2 4 6 9h-2l-2 2
v-1h1q-1 0 -1.5 0.5t-1.5 0.5q-2 0 -3 1q-2 1 -5 1h-6q-2 0 -5 -1q-2 0 -4 -1h-1l-1 -1q-1 0 -4 -1q-2 -1 -5 -3q-3 -1 -6 -3q-1 0 -1 -1h-1q-1 -1 -2 -1l-20 -14q-4 -4 -10 -8q-1 -2 -3 -3l-1 -1q0 -1 -1 -1q-19 -17 -34 -35t-25 -37q-2 -4 -3 -7q-2 -4 -1 -7q2 -1 4 -1
h3.5t6.5 2q9 4 18 11q1 1 2 1q11 8 21 16q21 16 39 34q23 21 44 43l2 2q0 2 2 4zM747 488l-2 -4q-1 -2 -2 -5.5t0 -6.5q0 -1 2 -1t6 1q8 4 16 10q9 7 17 13q18 14 35 30q27 24 51 51q-1 0 -2 1h-1l-1 1h-1q0 1 -1.5 1.5t-2.5 1.5h-1l1 1h-1h1h-1q-1 0 -1 1h-2q1 1 0 1t-1 1
h-1l-1 1h-2q-1 0 -1 1h-11q-1 -1 -2 -1q-2 0 -3 -1q-1 0 -2 -1h-1q-3 -1 -4 -2l-3 -2v1l-1 -1q-2 -1 -4 -3q-32 -23 -54 -55q-12 -17 -19 -34z" />
    <glyph glyph-name="ant" unicode="ant" horiz-adv-x="779" 
d="M161 539q16 16 35 29.5t39 16.5q6 1 11 1q13 0 22 -7q7 -6 7 -16l-1 -3l-1 -3l-1 -2q-1 -4 -5 -7q-1 -1 -3 -2q0 -6 -2 -11l-2 -16q-1 -5 -1 -10v-6v-2v-1q1 -8 3 -16h1v-2t0.5 -1.5t1.5 -0.5q-1 -1 0 -2l3 -5q3 -5 8 -8q9 -7 21 -7q4 0 8 1q40 8 78 34q58 36 104 87
q6 11 12 20q6 8 12 14q4 3 7 5.5t7 3.5h2q5 0 6 -4t-1 -10q-3 -6 -5 -11l-1 -2q-3 -6 -6 -11l-8 -16q-4 -9 -7 -18q-4 -9 -6 -18v1q1 0 2 1q15 14 33 25q10 6 20 6h3q7 0 13 -4q1 -1 2 -3l1 -1h1q0 -1 1 -1l1 -2l5 -4l9 -15q3 -4 6 -7v-1q1 0 1 -1q1 0 1 -1q3 -2 5 -3l1 -1
h1l3 -2l6 -2q3 0 5 -1h6q31 2 62 24q32 22 60 50q30 29 57 59q59 66 114 133h-14l-118 -2h-25q-9 -1 -18 -1q-27 0 -54 -1h-6q-16 -1 -31 -3h-5l-12 -2q-4 -1 -6 -1q-9 0 -13 8q-3 3 -1 7q1 4 6 7l1 1q6 5 13 7h4q3 0 5 -1q2 0 4 -1h7l10 -2q19 -2 40 -2q39 -1 79 -1
q71 -1 144 -1l59 74l1 2l1 1l24 38q2 1 2 3q7 9 12 17q8 9 14 19q4 5 8 5h2q3 0 5 -2q2 -1 1 -5l-1 -3l-8 -14l-2 -8q-6 -9 -10 -17q-2 -3 -3 -6q-2 -3 -4 -7l-19 -36q-6 -11 -12 -21l-23 -40h18q39 1 77 1q143 2 288 6q4 0 4 -3l-1 -3q0 -1 -1.5 -3.5t-5.5 -2.5l-162 -2
l-223 -4q-2 -3 -3 -6l-5 -10q-84 -156 -151 -316q-38 -88 -70 -177q-26 -71 -49 -142q-1 -4 -5 -6h-2q-2 0 -4 1t-2 5q23 90 52 181q11 33 23 67q47 126 107 252q37 76 78 151h-8l-6 -8l-11 -14q-55 -66 -112 -130q-53 -61 -119 -109q-31 -24 -66 -33q-7 -2 -14 -2
q-10 0 -18 4q-14 7 -22 19q-4 5 -7 11q0 2 -1 3q-3 5 -4 11q-1 3 -1.5 5t-2.5 5q-1 4 -3 4h-1q-2 0 -5 -1q-8 -3 -16.5 -9.5t-15.5 -12.5l-12 -12l-2 -7l-2 -6q-3 -4 -7.5 -6.5t-8.5 -2.5q-9 0 -9 8.5t1 16.5v1q3 17 10 35q-13 -14 -28 -27q-36 -31 -76 -55q-43 -28 -87 -32
q-43 0 -55 35q-6 19 -2 40q1 5 3 11q-4 -3 -7 -7l-12 -12q-18 -17 -37 -32q-10 -7 -20 -13l-1 -1q-7 -5 -16 -7l-4 -1q-6 0 -10 4.5t-3 12.5t4 16q4 10 13.5 24.5t23.5 28.5zM956 815l-10 -12l-6 -8h5zM196 540q-14 -9 -26 -20q-13 -12 -23 -25q-3 -6 -7 -13l-1 -4
q-2 -4 -2 -8q0 -2 1 -2h1q1 0 4 1q7 3 13 7q16 10 29 22q28 24 53 49l6 8h-1l-5 2h-7l-2 -1q-3 -1 -7 -2h-1l-2 -1q-1 0 -1 -1h-2q-4 -2 -9 -5q-2 -1 -4.5 -2.5t-6.5 -4.5z" />
    <glyph glyph-name="ar" unicode="ar" horiz-adv-x="546" 
d="M297 435q47 22 87 59q62 58 107 126q2 6 5 12q7 15 17 28q3 3 7 3.5t6.5 -1t1.5 -4.5q-1 -24 -10 -49l-3 -6q-7 -23 -15 -47q21 34 50 64t66 43q19 5 37 5q19 0 36 -6q9 -1 17 -3h3q1 0 2 -1h5q3 0 6 -1h19q19 1 38 11q3 1 5 1q1 0 2.5 -1t1.5 -4l-1 -2q-1 -2 -4 -4
q-42 -28 -83 -28h-8q-20 2 -38 10h-2l-5 2q-12 6 -28 6h-4q-18 -2 -34 -13.5t-29 -25.5q-30 -34 -50 -73q-10 -18 -19 -37v-1l-3 -9q-4 -17 -10 -34l-5 -12q-1 -4 -5 -7.5t-8 -5.5h-3q-5 0 -7.5 2t-1.5 7q1 27 10 56l1 1q6 27 15 54q5 17 12 34l1 3q-15 -20 -31 -39
q-34 -43 -77 -79q-22 -18 -46 -34q-25 -18 -52 -26q-14 -4 -27 -4q-12 1 -21 7h-1l1 -1q0 1 -1 1t-2 1t-2 1q-2 1 -3 3q-4 3 -8 7q-4 9 -7 19q-3 21 4 44q-20 -22 -41 -43q-22 -20 -44 -39q-1 -1 -1 -2q-5 -4 -10 -7.5t-11 -5.5q-4 -1 -7 -1q-6 0 -10 4q-5 7 -5 16q0 8 3 15
l2 5q10 24 25 48q16 25 35 47q20 22 44 40q25 18 52 20q13 0 21 -6q5 -3 7 -9q0 -5 -1 -10q0 -2 -2 -4.5t-5 -4.5v-4l-1 -1q-4 -14 -9 -28l-10 -28q-1 -2 0 -4l-1 -1q-1 -3 -1 -7q0 -5 -1 -11h1l-1 -1q0 -1 1 -1v-5q1 -3 1 -5q1 -1 1 -2h1l-1 -1l1 -2v-1h1l1 -2q0 -1 1 -2
l5 -8h1l3 -3h2l-1 -1q2 -1 4 -1q6 -3 12 -3q4 0 7 1q11 2 22 6zM241 551l1 2h-1q-1 1 -3 1h-1q-2 1 -3 1h-10l-1 -1h-1q-3 0 -4.5 -0.5t-4.5 -2.5q-2 -1 -5 -2l-3 -2h-1l-22 -16q-36 -32 -63 -72q-13 -18 -20 -38q-3 -6 -2 -12q0 -2 1 -3t3 -1q4 2 8 4.5t8 6.5l3 2l19 16
q20 17 38 36q18 18 34 38l4 4q0 1 1 2q3 6 6 11q8 14 19 26v0z" />
    <glyph glyph-name="at2" unicode="at" horiz-adv-x="423" 
d="M118 462q-8 3 -7 12q0 5 2 11q1 2 4 7.5t9 12.5q11 17 26 32q31 29 69 45q20 9 39 10q12 0 19 -7q3 -5 1 -13l-2 -4q-2 -1 -2.5 -2t-3.5 -2q0 -3 -1 -6q-2 -2 -3 -5l-1 -4q-2 -4 -4 -7q-3 -5 -5 -11l-3 -8l1 -1l-1 -3l1 -1l-1 -1q1 -1 0 -2q1 -1 1 -2v-1v-1q2 -1 2 -3
l1 -1q1 0 0 -1q1 -1 2 -1q0 -1 1 -1l1 -1q0 1 -1 1l1 -1h6q13 2 26 9l5 2q28 14 54 35t50 43q53 48 100 99q29 32 56 64l-128 -4h-8q-28 -1 -57 -3q-13 -1 -28 -3q-19 -2 -38 -3q-8 0 -9 6q0 3 1 6q1 4 5 8.5t12 4.5q18 0 36 -1q17 -1 36 -1h71l117 2q13 15 24 30l11 14
q2 2 3 4l26 48q2 3 5 7q7 14 16 28q3 3 5 7q9 14 22 26q4 4 9 4t5 -6q-1 -7 -3 -13l-3 -7q-3 -4 -4 -8l-6 -14q-11 -20 -21 -39l-43 -78v-2l96 2l259 7q4 0 4 -3l-1 -3q0 -1 -2 -3.5t-6 -2.5l-145 -4h-8q-102 -2 -204 -5q-67 -131 -123 -266q-29 -71 -57 -141
q-26 -71 -50 -142q-1 -4 -5 -7t-8 -3t-6 3t-1 7q22 80 50 161l12 33q45 125 104 249q25 53 52 105h-4q-87 -105 -191 -198q-27 -24 -55 -44q-15 -11 -31 -20t-32 -14q-7 -2 -14 -2q-10 0 -18 5q-9 10 -9 25q0 10 3 19l2 5q-8 -6 -15 -12l-2 -2q-17 -15 -36 -29
q-17 -13 -36 -21l-11 -4q-4 -1 -7 -1h-3zM129 479v-2h2q2 0 4.5 1t6.5 2l1 1q8 3 15 8q15 9 29 20q16 13 31 25l1 1q4 4 8 7l15 12v1l4 4q1 2 3 3q1 0 1 1h-1q-2 0 -3 -1q-4 0 -8 -1l-5 -2h-1q-8 -3 -16 -7l-15 -8v-1h-1l-4 -2l-19 -14q-4 -3 -7 -6h-1l-2 -2v-1h-1l-1 -1
q-4 -3 -6 -5l-5 -5q-7 -6 -12 -12t-9 -11v-1z" />
    <glyph glyph-name="att" unicode="att" horiz-adv-x="613" 
d="M462 843q9 0 19 1h18q29 0 58 2q10 0 21 1q11 0 24 1q8 0 16 1q9 16 17 33q18 33 38 65l1 4q8 14 17 28q2 3 4 5q4 7 9 13q4 5 8 11l3 4q6 7 13 7h2q3 0 5 -3t0 -7l-1 -3q-7 -15 -15 -31q-10 -19 -21 -39l-14 -24q-3 -5 -6 -11q-13 -25 -28 -51q50 3 100 5l47 2l6 10
q6 12 11 24q12 27 24 55l12 24q4 7 7 13q9 20 18 39q3 6 9 8q3 1 5 1t5 -1.5t1 -7.5q-6 -13 -10 -26q-11 -29 -24 -59q-8 -18 -15 -35q-9 -22 -17 -43h12q9 1 17 1q139 6 279 10q4 0 4 -3q0 -1 -1 -3q0 -1 -2 -4t-6 -3q-77 -1 -156 -3q-76 -2 -152 -6q-65 -149 -124 -299
q-25 -65 -49 -130q-31 -87 -61 -174q-1 -4 -6 -6q-2 -1 -4 -1q-1 0 -3.5 1.5t-1.5 5.5q28 83 57 165l2 5q21 61 44 122q33 91 68 182q12 33 25 66q-17 -30 -34 -59q-37 -65 -79 -129q-37 -59 -81 -116q-21 -28 -47 -54q-11 -12 -24.5 -23.5t-29.5 -16.5q-6 -1 -10 -1
q-11 0 -15.5 10.5t-3.5 24.5q2 30 13 61q10 30 21 60q36 97 81 194q-30 -43 -62 -86q-50 -67 -109 -126q-31 -29 -66 -52q-18 -12 -37 -17h-7q-17 0 -22 15q-4 15 -1 33q4 20 12 40q3 6 5 11q-23 -21 -48 -42q-19 -18 -41 -33q-20 -16 -43 -26q-7 -3 -13 -3q-5 0 -11.5 2.5
t-5.5 14.5q1 5 3 10q2 6 5 11v1q5 10 12 20q30 43 76 68q22 12 43 12h3q9 -1 15.5 -5t8.5 -12q6 5 11 11q6 8 13 16q1 2 2 3q0 1 2 3t4 5q4 4 10 7l1 1q4 3 8 3q1 0 4 -1.5t1 -8.5v-2q-2 -4 -5 -9q0 -2 -2 -3q-2 -3 -4 -7q-5 -9 -9 -17l-1 -2q-5 -8 -9 -18l-8 -20
q-3 -10 -5 -19q-1 -3 -2 -8t-1 -10q-1 -4 -1 -7v-2v-1v-2q1 -1 0 -2l2 -3h1q2 -1 3 -2h2q6 0 13 3.5t14 7.5q16 10 31 22q30 24 58 52q56 61 104 127q39 53 74 106l21 40l-56 -4q-35 -3 -69 -8q-6 0 -12 -1q-12 -1 -24 -4q-20 -4 -39 -5h-2q-5 0 -7.5 4.5t-0.5 10.5
q3 7 9 11t12 4q13 1 25 1q7 -1 15 -1zM239 537q10 8 19 16l5 5h-3q-3 2 -8 3h-6v1h-5q-1 -1 -2 -1h-2q-8 -1 -17 -5q-5 -3 -9 -5t-9 -6q-33 -22 -56 -53q-6 -9 -11 -18l-2 -2q0 -1 -0.5 -3t2.5 -2h3q2 0 5.5 1t8.5 4q8 4 17 10q37 24 70 55zM532 595q-26 -63 -50 -127l-2 -5
q-9 -25 -9 -50q1 -4 3 -6q2 -1 4 -1h3q6 2 12.5 7t11.5 10q50 47 89 103q42 58 78 118q40 61 76 124q22 39 43 78q-47 -2 -95 -5q-24 -1 -50 -3h-2q-29 -57 -55 -114q-31 -65 -57 -129z" />
    <glyph glyph-name="bb" unicode="bb" horiz-adv-x="648" 
d="M358 829q-39 -60 -70 -121q-39 -73 -66 -148q-10 -28 -19 -56q20 29 42 55q28 31 61 56q17 13 34 13q16 -1 24 -13q5 -8 7 -18q51 50 104 99q54 49 107 100q106 105 197 220l30 44q25 35 54 69q14 16 30 30q9 8 18 15l3 2q4 3 8 5t9 3h2q2 1 3 1q4 0 5 -3q2 -3 1 -6
q-1 -1 -2 -3l-1 -2q-3 -6 -9 -11l-2 -2l-5 -4q-3 -4 -8 -8l-8 -8q-17 -17 -31 -34q-4 -4 -7 -9l-2 -2l-1 -2q-1 0 -1 -1l-2 -2q-8 -10 -14 -19l-28 -40q-104 -149 -180 -306q-38 -79 -68 -158q-13 -31 -24 -61l-10 -30q16 24 37 45q19 21 40 37q22 16 46 18h3q10 0 17 -7.5
t10 -17.5q4 -22 0 -46q35 15 69 27l6 2q47 13 90 43q3 2 6 2l2 -1q2 -1 2 -4v-1q-1 -3 -4 -5q-9 -6 -19 -12q-41 -22 -85 -35q-34 -11 -69 -27q-4 -22 -12 -45q-9 -25 -24 -50q-13 -24 -33 -45q-19 -22 -44 -36q-11 -6 -23 -8q-5 -1 -9 -1q-6 0 -12 2q-7 3 -11 11
q-2 10 1 22l2 3q17 47 60 86q33 30 71 53q3 12 3 24l1 20q1 1 0 1v2v1v1q-1 1 -1 3v2q0 3 -1 6t-2.5 5.5t-5.5 4.5q-2 1 -6 0.5t-8 -1.5q-22 -8 -39 -26q-20 -18 -36 -38t-29 -42q-5 -7 -8 -14l-1 -3q-6 -12 -10 -24q-2 -5 -7 -7h-3q-2 0 -4 1t-1 6q10 34 22 68l19 52
q11 30 23 60q62 161 150 320q12 22 24 43q-75 -88 -158 -170l-90 -84q-59 -54 -116 -110q0 -15 -1 -30q-5 -36 -18 -72t-34 -72q-21 -35 -52 -67q-13 -15 -30 -27t-35 -14h-2q-16 0 -19.5 13t1.5 29l3 11q12 32 34 64q48 71 110 134l8 8q3 3 4 5q1 5 1 10v3t-1 1l1 1
q0 3 -1 6q0 3 -2 6q1 2 0 3h-1l1 1l-1 1q-1 0 -2 1l1 1l-2 2t-1 2h-1q0 1 -1 1q-2 1 -3.5 1.5t-4.5 0.5q-6 -1 -12 -3q-15 -9 -27 -21q-2 -2 -4 -3q-55 -51 -88 -113l-1 -4v-3q-1 -3 -4.5 -5.5t-7.5 -2.5q-3 0 -4 2.5t-1 5.5q16 62 39 123l6 18q47 127 120 250q37 61 82 120
q22 31 47 61q11 14 23 28q2 1 3 3q11 14 25 25q4 3 9 3.5t8 -1.5q5 -4 2 -11l-1 -4q-8 -14 -20 -27l-7 -7q-13 -16 -27 -33q-22 -29 -46 -61q-43 -59 -80 -119zM651 465l3 8q-33 -20 -62 -47q-19 -17 -36 -38q-11 -15 -17 -31q-2 -6 -3 -12q-1 -4 -1.5 -9t2.5 -8q3 -1 7 -1
q3 0 6 1q2 1 3.5 1.5t3.5 1.5q3 1 4.5 2t2.5 2q5 3 9 6q2 2 5 4l1 1v1q9 8 17 17q5 5 9 10l2 2l3 4l14 20q3 6 6 11q1 3 2 5l2 4q7 14 12 27q3 9 5 18zM340 553v-1h-1q-58 -60 -105 -126q-23 -33 -36 -68l-2 -6q-1 -6 -2.5 -13t1.5 -12q2 -5 7 -5t10 3q15 8 26 20
q10 13 20 25q0 1 2 3q23 31 41 63q2 4 5 9l2 5l1 1v-1q3 9 7 17l6 16l6 16q8 27 12 54z" />
    <glyph glyph-name="bl" unicode="bl" horiz-adv-x="452" 
d="M279 672q-29 -60 -53 -120q-9 -20 -16 -40l-12 -34q21 31 46 58q12 14 28 24q7 3 13 3q8 0 13 -4q11 -8 12 -22q3 -7 4 -15l27 26q26 23 51 47q123 120 219 255l17 24q0 1 1 1q28 57 58 114q24 46 51 92q14 23 29 45q8 12 16 23l4 4q2 4 5 7q4 5 8 9q2 1 2 2q6 5 13 5h2
q3 -1 4 -4t0 -7l-1 -3q-2 -5 -5 -10q-2 -3 -3 -6q-2 -3 -4 -5q-10 -17 -20 -33l-35 -58q-26 -46 -50 -92t-46 -92q-23 -47 -44 -95q-44 -95 -82 -191q-22 -55 -42 -110q-15 -41 -29 -82q-25 -81 -48 -162q-4 -14 -8 -29q-1 -3 -5 -5h-3h-3t-2 4q1 2 0 3q3 10 5 20
q23 96 52 193q29 96 64 192q36 96 80 192q4 9 8 17q1 4 4 8q-90 -120 -199 -228l-54 -52q-18 -16 -35 -32q2 -32 -8 -66q-2 -9 -5 -17q-10 -26 -26 -51q-20 -34 -51 -61q-6 -6 -15.5 -12t-18.5 -7q-3 -1 -7 -1q-13 0 -18 10q-4 11 -1 25l2 7q4 12 10 22q44 80 117 146v2
q0 3 1 5q0 14 -2 28q-1 6 -5 10q-2 4 -7 4q-2 0 -4 -1q-8 -2 -14 -7.5t-11 -11.5q0 -1 -2 -2q-13 -15 -26 -31q-26 -32 -42 -67q-2 -4 -6 -6q-2 -1 -5 -1q-1 0 -3 0.5t-1 4.5q2 13 6 27l2 7q5 18 10 35q10 34 22 69l3 9q43 117 112 234q33 59 73 118q21 29 43 57
q20 27 48 45q5 3 9 3q1 0 3.5 -1t2.5 -6v-3q-2 -4 -6 -8q-26 -22 -43 -50q-9 -13 -19 -27l-24 -36q-76 -115 -131 -232zM293 487q0 -1 -1 -1v-1q-56 -52 -94 -114q-8 -15 -14 -30l-2 -5q-1 -2 -2 -6.5t1 -8.5q2 -5 7 -5q3 0 7 2q3 1 6.5 3.5t6.5 4.5q6 6 11 12q7 7 12 15
q2 2 4 3v1q2 4 5 7q11 14 19 29q5 8 9 16q0 1 1 2t2 3q1 4 4 8l6 15l5 16q5 17 7 34z" />
    <glyph glyph-name="ca" unicode="ca" horiz-adv-x="541" 
d="M499 589h3q31 0 32 -28l2 2l7 14q6 11 15.5 23.5t21.5 18.5q3 1 5 1t4 -1t2 -5t-1 -8l-2 -5q-2 -6 -6 -12q-3 -7 -7 -13l-6 -10q-12 -21 -20 -44q-4 -10 -6 -20l-1 -3q-1 -1 0 -3q-2 -4 -2 -7q0 -5 -1 -10h1q0 -1 1 -2q-1 -1 0 -2q0 -4 1.5 -6t3.5 -5q8 -7 20 -7h6
q20 3 41 14q79 37 137 104q2 2 3 2h2.5t1.5 -2q1 -1 0 -3l-1 -2q-35 -40 -78 -71q-40 -29 -82 -47q-22 -9 -43 -11h-7q-17 0 -29 8q-14 13 -10 36q3 18 9 35l3 8q-18 -19 -38 -38q-22 -24 -48 -44q-12 -10 -26 -18.5t-28 -9.5q-7 0 -11 4q-4 3 -6 9q-3 12 2 26q7 19 18 37
q-36 -27 -75 -49q-30 -17 -62 -29q-31 -13 -61 -13h-4q-9 1 -17 5q1 1 0 1l-4 2t-3 3q-10 9 -13 23q-3 23 6 48q3 9 8 17q14 34 41 64q13 14 29 23t32 9q14 0 17 -11t-2 -24q-13 -30 -42 -50q-2 -1 -4 -1q-1 0 -2 0.5t-1 3.5v1q1 2 3 4q11 9 22 22q8 10 11 20l2 6
q1 5 -0.5 9t-7.5 4q-6 -1 -11.5 -5t-10.5 -8q-11 -11 -18 -22q-8 -12 -16 -25q-5 -7 -8 -14q-2 -5 -5 -11l-8 -22q0 -1 -0.5 -1.5t-0.5 -1.5v-2q-1 -7 -2 -13q1 0 1 -1t-0.5 -1.5t0.5 -0.5l1 -4q0 -4 1 -6.5t1 -5.5l4 -5q0 -1 0.5 -1.5t1.5 -0.5v-1q2 -1 3 -3q5 -2 10 -3
t10 -1q7 0 16 2q55 14 108 47q35 22 68 46q18 23 41 42q28 24 58 29zM517 566q-5 5 -12 5h-2q-7 -1 -13 -4t-11 -7q-11 -8 -21 -17l-1 -1q-1 0 -1 -1q-1 0 -1 -1q-4 -3 -5 -5q-5 -4 -10 -9q-9 -10 -16 -19t-14 -21q-4 -6 -8 -13l-2 -4l-2 -5q0 -1 -2 -2q-1 -4 -3 -8t-4 -9
l-1 -3q-1 -2 0 -3l-1 -2h1v-2h3q3 0 7.5 2t9.5 5q1 1 2 1q46 30 83 71l3 3q14 14 28 29q0 13 -7 20z" />
    <glyph glyph-name="cc" unicode="cc" horiz-adv-x="387" 
d="M295 580l1 -1q0 1 -1 3q-1 1 -1 3q-1 0 -1 1h-1l-2 4v1h-2v1q-1 0 -2 1q0 1 -1 1h-2l1 1h-2q-2 0 -4 1h-9q-6 -1 -12 -3q-12 -6 -23 -16q-21 -19 -35 -42q-10 -13 -15 -26q-4 -10 -4 -21q0 -19 18 -23h4q21 0 43 10q47 18 91 48q22 14 43 31q5 4 11 9q13 34 48 53
q14 6 25 6t20 -6q7 -7 9 -17q0 -5 -1 -10q-3 -6 -8 -12q-3 -3 -6 -3t-5 3q0 2 -1 3q-1 6 -4 10q-3 6 -10 8h-5q-4 -1 -5 -1.5l-3 -1.5q-9 -4 -15 -10q-15 -15 -21 -32q-4 -12 -4 -25q2 -32 34 -36h6q37 0 76 23q42 24 74 59q3 3 6 3q2 0 3 -3v-2l-2 -3q-43 -46 -97 -73
q-35 -18 -64 -18q-15 0 -29 5q-32 17 -27 58v7q-4 -4 -9 -8q-27 -22 -56 -39q-26 -16 -53 -29t-54 -20q-8 -2 -15 -2q-19 0 -30 12q-11 18 -2 43l1 3q12 29 35 57q18 27 47 45q22 13 41 13q8 0 15 -2q12 -6 17 -17q3 -8 0 -17q-2 -5 -6 -10q-4 -6 -11 -7h-1q-5 0 -6 5
q-1 2 -1 4z" />
    <glyph glyph-name="cd" unicode="cd" horiz-adv-x="473" 
d="M778 888q-100 -143 -180 -292q-49 -90 -82 -181q-21 -59 -36 -118q-1 -4 -5 -5q-2 -1 -4 -1q-1 0 -3 0.5t-2 3.5q14 64 38 130q7 20 15 40q63 152 156 300q7 9 12 19q2 2 4 5q-12 -16 -22 -32q-30 -40 -59 -81l-12 -16q-50 -75 -112 -141q-18 -18 -37 -33
q-20 -16 -41 -16q-20 5 -16 27q2 12 6 22q4 11 9 20q5 10 12 20q-51 -42 -106 -75q-31 -18 -65 -31q-28 -13 -53 -13q-6 0 -12 1q-32 10 -26 44q2 13 6 25q7 20 22 39q23 32 56 54q17 11 36 17q8 3 15 3q10 0 17 -5q8 -7 8 -20q-1 -10 -5 -21l-2 -5q-8 -15 -22.5 -28
t-30.5 -24q-2 -1 -3 -1h-1q-2 1 -1 3l1 4l6 4q13 10 26 23q11 11 16 23l1 3q2 13 -3 20q-4 4 -10 4q-5 0 -11 -2q-28 -13 -49 -37q-6 -6 -10.5 -11t-8.5 -12q-4 -6 -8 -13t-6 -11q-3 -7 -6 -13q0 -3 -1 -6l-2 -6q-1 -6 -1 -12q-1 -1 0 -2v-1v-2q1 -1 1 -3t1 -4.5t4 -4.5
t6 -3q6 -2 14 -2q5 0 11 1q60 13 116 52q57 39 110 82q3 2 5 2q9 8 20 15q12 7 24 12q10 4 20 4h4q5 -1 11 -3t8 -7q0 -1 0.5 -1t-0.5 -1l1 1h-1h1q-1 -1 0 -2l1 -1v-4q1 -4 0 -8v-2q21 28 41 56l57 80q6 9 12 17q52 72 103 143q29 40 60 80q13 18 26 35q16 22 34 45
q3 4 7 5h2q3 0 5 -2q1 -1 0 -5l-1 -2l-68 -100zM529 581q4 3 6 7l2 2q-3 -2 -7 -2q-3 0 -6 3l-1 1q-1 0 -1 1q-4 0 -6 2h-8q-2 0 -4 -1q-2 0 -4 -1t-3 -1q-2 -1 -5 -3q-2 0 -3 -1h1q-1 0 -1 -1l-4 -2q-5 -3 -10 -7q-4 -3 -8 -7q-2 -1 -2 -2q-1 0 -1 -1q-3 -2 -5 -4
q-7 -7 -13 -15l-1.5 -1.5t-0.5 -1.5l-1 -1q-2 -3 -3 -5q-2 -2 -3 -4l-3 -4q-10 -13 -14 -26l-3 -9q-1 -4 -0.5 -6t3.5 -3q2 -1 4 -1q4 0 9 2q17 8 31 23q2 1 3 3q35 31 62 66z" />
    <glyph glyph-name="ce" unicode="ce" horiz-adv-x="473" 
d="M663 545q-28 -26 -60 -46t-65 -28q-15 -4 -28 -4q-17 0 -32 6q-21 10 -27 33l-15 -8q-66 -34 -133 -45q-18 -3 -35 -3q-14 0 -27 2q-29 5 -44 25q-13 21 -8 49q2 11 7 23q5 15 15 31q17 28 43 50q16 13 32 19q9 3 17 3q7 0 14 -3q13 -5 13 -21l-3 -8q-4 -12 -13 -23
q-21 -30 -52 -48h-2q-1 0 -2.5 0.5t-1.5 3.5v1q1 2 3 4q12 9 23 20q11 10 20 23q3 5 5.5 11.5t1.5 11.5q-2 3 -5 4t-7 1l-1 -1h-3l-1 -1h-1q-1 0 -3 -1q-3 -2 -5.5 -3.5t-5.5 -3.5q-3 -3 -5 -4.5t-5 -4.5l-10 -10l-3 -4v-1l-2 -1l-1 -2h-1v-2h-1l-1 -1q0 -1 -1 -2
q-2 -3 -3 -5q-4 -5 -7 -11q-2 -3 -3 -6l-2 -1l-10 -27q0 -1 1 -2l-1 -2q-1 -6 -1 -11q-1 -3 -1 -5q0 -1 1 -1l-1 -2l1 -4q1 -2 1 -5q1 -5 3 -9l-1 -1q1 0 1 -1l2 -4q6 -9 14 -14q19 -10 43 -10q2 0 17 0.5t43 7.5q53 13 106 43q-1 22 7 43q10 27 33 53q13 14 30 22q7 3 16 4
h4q5 0 9 -2q13 -6 9 -21q-1 -5 -3 -9q-3 -10 -9 -19q-23 -36 -63 -62h1q0 -3 1 -7q0 -2 1 -4q0 -1 0.5 -1t0.5 -1q-1 -1 0 -1v-1h1v-1l5 -9h1l1 -1q5 -4 10 -6q0 -1 3 -2t5 -2q6 -2 11 -2h7q23 0 47 11q28 13 54.5 33.5t51.5 43.5q2 2 5 2t4 -3v-1q0 -2 -3 -4q-3 -4 -7 -7z
M485 546q-1 -4 -1 -7v-1q15 11 28 23q22 20 31 44l1 3q1 4 0 8.5t-5 4.5q-2 0 -4 -1t-3 -3h-1q-2 -2 -4 -3l-2 -2q-1 0 -2 -1q-1 0 -1 -1q0 1 0.5 1t1.5 1v1q0 -1 -1.5 -2t-3.5 -3q1 1 2 1l-2 -1v-1l-2 -2q-1 0 -1 -1v1q0 -1 -2 -2v-1l-2 -2q0 -1 -1 -2q-2 -1 -2 -2
q-2 -2 -3 -4q-7 -10 -13 -20l-8 -23q1 0 0 -1v-2z" />
    <glyph glyph-name="ch" unicode="ch" horiz-adv-x="608" 
d="M554 469q-18 -24 -34 -48q-9 -14 -17 -27q-1 -3 -3 -6l-4 -11q-2 -6 -7 -8q-2 -1 -4 -1q-3 0 -5.5 1.5t-1.5 7.5q20 72 47 144l7 21q58 150 141 296l1 2q0 1 1 2q-2 -3 -4 -5l-6 -8q-101 -121 -217 -231q-56 -54 -116.5 -105t-127.5 -92q-31 -20 -62 -23
q-18 0 -26.5 10.5t-6.5 27.5q3 16 9 32t14 31q17 31 40 60q25 29 53 51q14 12 30 22q8 5 16.5 8.5t16.5 3.5q18 0 18 -17q-1 -4 -3 -8q-3 -11 -11 -21q-4 -6 -7 -11q-7 -11 -14 -21q-13 -16 -28 -31q-2 -3 -5 -3t-3 3v2q1 2 2 3q12 14 23 29t20 30q0 1 2 3q3 5 5 11t0 9
q-1 2 -4.5 1.5t-7 -2.5t-6.5 -4q-14 -9 -27 -21q-24 -20 -45 -45q-3 -4 -5 -6.5t-4 -5.5l-8 -12q-11 -14 -18 -28l-5 -8l-1 -4q-4 -7 -6 -14l-9 -25q-1 -4 -1 -7v-3l-1 -2l1 -1q0 -3 2 -6v-1q1 0 1 -1q1 0 2 -1q1 0 0 -1h2q3 -1 5 -2h4q26 3 54 19q31 17 61 39q59 43 114 94
q56 50 108 103q106 105 197 218q10 13 20 25q23 40 49 80q24 35 48 69q13 19 28 37q3 5 8 10q2 3 6 7l8 10q4 3 6 6q4 4 7 4q4 0 6 -3q1 -2 0 -6l-1 -2l-5 -8q-3 -6 -8 -13l-4 -8q-4 -6 -7 -11l-18 -28l-8 -12q-25 -39 -51 -79q-44 -71 -84 -143l-38 -72q-17 -33 -34 -69
q-56 -119 -102 -239q18 27 37 52q19 23 40 46q10 11 19 21l2 2q7 9 17 17q9 7 19 7h4q5 -2 6.5 -7t1.5 -11q-2 -10 -2 -20v-11l-1 -1l1 -1l1 -4q0 -3 1 -5l-1 -1q1 0 2 -1q0 -2 2 -3v-2h1v-1q2 -1 4 -3q1 -1 2 -1q5 -2 10 -3h4q19 0 40 10q25 10 46 26t39 34l3 3q3 3 6 2.5
t3 -2.5q1 -1 0 -3l-1 -2q-21 -24 -47 -43q-23 -19 -51 -33q-25 -13 -51 -16h-5q-22 0 -33 17q-8 18 -3 41q1 9 4 18l2 6h-1q-1 -1 -2 -1.5l-3 -1.5q-5 -3 -8 -7q-2 -1 -2 -2q-6 -5 -11 -10l-20 -22q-20 -22 -37 -46z" />
    <glyph glyph-name="ck" unicode="ck" horiz-adv-x="509" 
d="M251 521q1 2 2 5q7 10 12 20l4 8q2 7 2.5 14.5t-7.5 12.5q-3 3 -8 3q-2 0 -5 -1q-5 -2 -8 -4.5t-7 -6.5q-8 -9 -16 -19q-7 -8 -14 -18l-14 -20l-6 -12q-1 -2 -3 -5l-1 -3q-4 -10 -9 -22q-2 -5 -3 -11l-2 -5q1 -1 1 -2q-1 -5 -2 -11v-5l-1 -3q1 -2 1 -5h1v-1l1 -3
q1 -1 2 -1q1 -1 3 -2.5t3 -1.5q0 -1 2 -1.5t4 -1.5h14q20 5 38 19q20 16 37 33q21 20 39 40q39 41 74 83q71 86 135 175q23 32 46 65q14 27 30 54q25 41 54 79q17 21 34 40l7 7l1 1l5 5l4 4q10 9 21 15l3 1q2 0 4 -1.5t1 -5.5l-2 -2l-4 -10l-10 -12t-9 -13q-4 -3 -6 -6
l-30 -42q-31 -44 -56 -89q-48 -82 -84 -164q-25 -57 -45 -113q-11 -29 -20 -57t-17 -56q1 1 3 2q11 20 22 39q18 31 37 60q20 28 41 55q20 24 48 40q10 5 17 5q9 0 14 -7q7 -10 1 -25q-5 -13 -12 -27q-1 -1 -2 -3q-7 -14 -16 -27q-19 -29 -45 -55q-21 -22 -45 -40
q49 11 98 29q29 11 58 26q13 7 27 16q5 4 12 8q7 6 15 11q1 1 3 1q1 0 3 -0.5t2 -2.5v-2l-2 -3q-12 -11 -26 -19q0 -1 -2 -2q-14 -9 -29 -18q-53 -29 -107 -46q-28 -9 -56 -16q-14 -3 -27 -6h-5l-9 -2q-2 -1 -3 -2h-1l-2 -1h-1l1 -1v-2q-1 -2 -3 -3.5t-5 -1.5
q-13 -28 -24 -57q-5 -17 -8 -35q-17 -84 -22 -165q0 -2 -1 -3q-1 -3 -4 -5t-6 -2h-4.5t-2.5 5q3 92 19 187q15 86 42 172q7 23 16 47q23 62 51 125l27 56q-17 -23 -33 -47q-70 -96 -149 -187q-39 -46 -80 -88q-39 -42 -88 -54q-6 -1 -12 -1q-5 0 -10 1q-6 0 -11 3q1 0 1 -1
v1h-2q-1 1 -3 1l-3 3q-15 16 -9 42q3 16 9 31q12 35 37 68q18 24 42 42q11 9 24 13q6 3 12 3t11 -3q16 -9 13 -31q-1 -7 -4 -14q-7 -19 -21 -37q-2 -3 -4 -3t-3 1t0 4zM458 456h1q-1 0 -1 1v-1zM468 483l-2 -5l-2 -4q22 8 41 26q25 23 45 50q18 24 33 49q3 7 6.5 13.5
t6.5 11.5l1 2l4 10l2 6v1v2h-4q-12 -5 -22 -14q-22 -18 -39 -41q-40 -52 -70 -107z" />
    <glyph glyph-name="co" unicode="co" horiz-adv-x="439" 
d="M173 415q-19 29 -8 71q3 11 7 21q11 31 30 59q27 40 64 72q18 15 38 24q9 4 17 4q9 0 17 -6q9 -11 7 -29q-3 -15 -8 -28l-2 -7q-16 -40 -52 -70h-3q-2 0 -2 2l1 3q2 2 3 4q14 16 24 32q11 16 17 33l2 5q6 17 4 32q-1 7 -6 10q-2 1 -4 1q-4 0 -9 -2q-8 -3 -14.5 -9
t-13.5 -13q-14 -15 -27 -30q-5 -7 -11 -15t-11 -16q-11 -17 -20 -34l-2 -3q0 -2 -2 -4l-12 -32v-1.5v-1v-1.5l-1 -3q-1 -2 -1 -4q-1 -9 -1 -18q-1 -1 0 -3l-1 -1l1 -1q0 -3 1 -6q0 -7 3 -13l1 -1l-1 -1h1q1 -1 1 -3q3 -2 3 -5q3 -2 4.5 -4t4.5 -3q14 -9 32 -9q14 0 41.5 10
t59.5 30q54 31 100 75q4 8 9 15q14 23 36 42q3 3 7 5v4q1 2 2.5 4.5t5.5 2.5q23 -2 33 -19t7 -40q-3 -12 -7 -24q-4 -11 -11 -23q-9 -21 -27 -40q-18 -17 -40 -22q-3 -1 -7 -1q-7 0 -13 3q-10 5 -13 15q-4 22 5 47l4 11q-54 -48 -117 -83q-41 -24 -83 -31q-6 -1 -11 -1
q-34 0 -52 24zM470 512l-6 -18q-1 -2 -1 -4l-1 -4q-1 -3 -2 -7q-2 -8 -2 -17v-2v-1l1 -1l-1 -1l1 -1v-1q2 -2 4 -2.5t5 -0.5q7 0 13 3q15 9 24 24q13 19 20 37q6 17 7 34q0 21 -16 31v-1q-4 -5 -9 -6l-2 -2l-4 -6l-12 -18q-6 -10 -10 -18.5t-9 -17.5z" />
    <glyph glyph-name="db" unicode="db" horiz-adv-x="539" 
d="M366 660q-32 -65 -59 -131l-7 -15q-8 -24 -12 -47q-1 -9 0 -18q2 -7 10 -7h4q13 4 26 14l1 1q14 10 27 21q26 23 49 49q49 56 95 114q48 59 93 119q5 7 10 15q4 5 7 9l1 2l2 2q33 58 72 115q19 29 42 58l20 26q3 3 6 7q3 3 5 7l10 10l3 3q5 4 9 4t5 -3q2 -2 1 -6l-1 -2
q-1 -2 -3 -4q-3 -6 -7 -12q-6 -9 -11 -17q-7 -11 -14 -21q-3 -5 -7 -10l-18 -28q-13 -18 -24 -36q-37 -57 -70 -114l-31 -58q-7 -15 -14 -29q-4 -8 -7.5 -14t-6.5 -13q-29 -59 -54 -118l-16 -38q9 14 20 28q13 19 32 34q8 7 19 12q8 4 16 4h3q17 -4 21 -21t2 -35
q65 42 134 60h2q3 0 4 -2t0 -4q0 -1 -1 -3t-6 -4q-70 -17 -135 -61q-3 -19 -10 -39q-6 -17 -15 -34q-11 -20 -26 -38q-14 -18 -31 -35q-9 -8 -19 -14.5t-20 -8.5q-10 0 -14.5 6t-2.5 15q2 10 6 19q10 29 37 61t65 59q2 11 3 23q1 16 0 30q-1 6 -6 8h-3q-4 0 -9 -2
q-8 -4 -15.5 -11.5t-12.5 -14.5l-1 -1q-14 -18 -27 -36q-22 -36 -39 -72q-2 -3 -3 -5q-2 -4 -5 -5q-2 -1 -4 -1h-2q-7 1 -4 8q2 8 4 15q2 10 4 19q6 17 11 33q11 34 23 67q32 86 78 171v-1q-1 0 -2 -1q-47 -61 -96 -122l-11 -14q-41 -51 -87 -98q-25 -25 -55 -46
q-15 -11 -31 -14h-2q-12 0 -18 8q-6 10 -5.5 23t3.5 25q7 28 17 56l5 14q27 67 59 134q2 5 4 9l2 6l-37 -54q-19 -26 -38 -51q4 -4 4 -10q0 -2 -1 -3q-1 -2 -3.5 -4t-6.5 -3h-2q-3 0 -3 2q-4 -4 -6 -8l-16 -20q-31 -43 -70 -83q-19 -19 -40 -36q-6 -5 -12 -9t-13 -5h-2
q-12 0 -15 12q-1 8 3 17q0 2 3 9t9 18l1 1q12 22 28 42q33 41 77 69q7 5 14 8q3 2 5.5 3t3.5 2h2q2 1 4.5 2t4.5 1q6 2 11 2h4q4 0 7 -1q3 4 5 7l2 2q33 45 66 91q25 36 49 72q13 24 26 47q37 67 79 132q21 33 43 65q22 33 46 64q4 4 8 4t5 -3q2 -2 1 -5l-1 -2
q-7 -12 -15 -25l-4 -6q-81 -126 -151 -255q-34 -64 -67 -128zM217 525l41 54h-1q-2 -1 -2.5 -1t-1.5 -0.5t-2 -0.5l-5 -2v-1h-1l-3 -2h-1l-3 -2v0l-1 -1h-1q-20 -13 -39 -29l-1.5 -1.5l-1.5 -1.5l-4 -4l-8 -8q-8 -8 -16 -17q-1 -2 -3 -4l-1 -1l-1 -1l-1 -1q-3 -5 -6 -9
q-7 -10 -13 -19q-3 -5 -5.5 -10l-4.5 -9q-1 -1 -2 -3.5t-2 -4.5l-3 -8l1 1q1 1 2 1q8 4 15 10q2 2 5 3q19 15 36 34q18 18 34 38zM578 477q-28 -22 -51 -49q-23 -26 -33 -54q-3 -9 -5 -17v-5q1 -3 3 -3h1q3 0 7 2.5t6 5.5q15 13 25 29q12 16 22 33q5 9 8.5 16l8.5 17
q4 13 8 25z" />
    <glyph glyph-name="dd" unicode="dd" horiz-adv-x="559" 
d="M440 647q-24 -44 -45 -88q-2 -3 -3 -6q-21 -42 -39 -86q-8 -22 -12 -44l-1 -2q-2 -8 -2.5 -17.5t4.5 -15.5q3 -5 10 -5q1 0 6 0.5t13 5.5q20 12 35 29l2 1q47 47 89 96q6 16 18 31q28 38 71 58q8 4 18 6q6 1 10 1t9 -1q1 0 3 -1q39 41 74 84l3 3q1 2 2 3l36 54
q47 71 96 140q49 72 111 136q3 3 6 3q4 0 5 -2q1 -1 0 -4l-1 -2q-8 -11 -14 -22q-4 -6 -7 -11q-11 -16 -22 -33q-22 -32 -45 -65q-26 -37 -54 -73q-78 -116 -148 -233q-43 -70 -77 -142q-17 -35 -30 -71l-1 -4q-12 -31 -7 -57v-4q-1 -1 -3 -3.5t-6 -2.5q-3 0 -5 3
q-8 32 5 71q6 21 14 41q7 20 16 40q39 91 93 180q-15 -18 -32 -36q3 -5 2 -13v-2q-2 -4 -8 -7h-2h-4t-2 3q0 2 -1 3l-4 -4q-5 -6 -10 -11q-46 -46 -100 -77q-3 -1 -6 -1h-3t-2 3l-4 -4q-10 -12 -22 -24l-38 -40l-5 -5q-16 -17 -34 -32t-39 -21h-6q-16 0 -22 14q-5 17 0 38
q3 23 12 47q17 45 38 90l2 5q23 49 48 97q19 38 40 75q-54 -72 -113 -142q2 -23 -3 -48l-1 -2q0 -1 -2 -2t-3 -1h-1q-2 0 -2 3l2 24q-1 7 -1 13q-3 -4 -7 -9l-12 -14q-40 -48 -87 -90q-24 -22 -49 -40l-7 -5l-6 -4l-3 -2q-5 -4 -10 -7q-8 -4 -16 -4q-5 0 -9 1q-9 4 -11.5 14
t0.5 21l-1 1l2 6q1 3 1 5l6 12q6 14 14 29q32 55 83 100q12 11 24 20q13 9 27 15q16 7 29 7q11 0 21 -5q15 -9 19 -24q2 1 2 2l1 1q80 95 152 193q13 22 27 44q29 47 59 92l32 46q9 11 17 22q9 11 17 23q4 5 9 5h3q3 0 4 -2q2 -2 1 -6l-2 -2q-4 -8 -10 -16q-1 -2 -2 -3
q-3 -5 -6 -9l-14 -22l-20 -30q-6 -10 -13 -19q-33 -50 -63 -100q-54 -89 -103 -180zM187 446q44 31 81 69.5t70 78.5q-2 9 -7 15q-9 10 -23 10q-6 0 -13 -2q-11 -4 -21 -12q-9 -7 -20 -16q-21 -20 -39 -43q-5 -6 -9 -11t-9 -11q-8 -11 -16 -24q-15 -23 -27 -46l-3 -9v-2
l-2 -5l1 -4v-1v-1v-1q1 0 1 -1h1l-1 -1h1v-1h3q4 0 8 2q10 5 20 13q2 2 4 3zM567 570q-27 -20 -44 -48q45 27 82 67q-1 -1 -3 -1q-2 -1 -5 -1v0v-1h-2l-9 -4q-10 -5 -19 -12z" />
    <glyph glyph-name="de" unicode="de" horiz-adv-x="352" 
d="M524 867q-97 -148 -174 -300q-36 -74 -63 -148q-29 -78 -46 -155q-1 -3 -3 -5.5t-5 -3.5q-3 0 -5 1t-1 4q16 85 46 172q57 155 146 308q11 18 22 37q-39 -53 -80 -104q-33 -42 -68 -83l-2 -1q-31 -39 -66 -75q-16 -18 -36 -34q-3 -3 -6 -5q-8 -7 -16 -13.5t-17 -9.5
q-5 -1 -9 -1q-9 0 -12 8q-1 8 2 16l1 3q8 19 21 39q27 38 66 67q19 16 41 24q8 3 14 3q4 0 8 -1q5 -2 8 -6q50 58 97 118q59 75 114 152l4 6q3 5 7 11l50 74q27 37 55 73q3 5 7.5 5.5t6.5 -1.5t0 -6l-1 -2l-52 -84q-13 -19 -25 -37q-15 -23 -29 -46zM260 570q5 5 10 11
q4 3 6 6l-1 1h-3q0 -1 -1 -1h-2h-1q-3 -1 -4 -2v1l-1 -1q-1 -1 -2 -1q-3 -1 -4 -2t-2 -1t-1 -0.5t-1 -0.5l-4 -3q-9 -6 -19 -14q-9 -7 -16 -13l-16 -16q-4 -5 -8 -9q-2 -2 -4 -5v-1l-1 -1q-14 -18 -25 -37q-2 -2 -2 -4l-1 -2q4 2 6 4q19 11 36 26q33 31 61 65zM415 484
q-22 8 -25 32q-1 20 6 39q10 27 35 53q10 10 24 19q11 7 21 7h5q10 -4 8 -14q-1 -4 -2 -7q-3 -7 -8 -14q-21 -34 -55 -59q-1 -1 0 -2q-1 -4 -1 -9q-1 -1 0 -2l-1 -2l1 -1l-1 -1l1 -8q2 -7 8.5 -10t14.5 -3q19 1 39 13q42 24 76 60q4 3 7 2.5t3 -2.5q1 -2 0 -4l-1 -2
q-23 -25 -49 -45q-27 -21 -56 -34q-18 -8 -34 -8q-8 0 -16 2zM429 559q26 21 39 46l3 8h-1l-1 -1v0q-3 -2 -6 -5q-8 -8 -15 -17l-4 -4l-5 -8v-1q-3 -4 -6 -9v-1z" />
    <glyph glyph-name="dl" unicode="dl" horiz-adv-x="537" 
d="M681 488q-43 -48 -90 -92q-22 -21 -47 -35q-24 -13 -49 -13q-25 3 -34.5 22.5t-10.5 42.5q-1 49 15 102q17 57 37 114q22 60 47 120q-1 -1 -2 -3l-1 -2q-78 -122 -166 -240q-8 -12 -26.5 -32.5t-36.5 -31.5q-8 -5 -14 -5q-9 0 -13 9q-9 23 -2 51q7 29 17 59l1 3
q10 34 23 67q18 51 40 102q-27 -40 -58 -79q-24 -32 -49 -63h1l-1 -1q6 -3 6 -11l-2 -7q-1 -3 -4 -5t-5 -2h-2l-1 1h-3q-2 0 -2 1h-3q-1 0 -1 1h-2q-14 -16 -26 -31q-45 -52 -105 -86q-3 -1 -5 -1t-3 1q-9 7 -5 21l2 5q4 10 10 19q30 48 82 79q23 15 49 19l5 1l6 -1
q72 88 135 180q10 22 22 45q31 64 67 127q33 64 81 123q4 5 8.5 4.5t5.5 -4.5q2 -2 0 -7q-39 -75 -83 -149l-4 -6q-2 -3 -3 -5q-30 -54 -56 -108q-57 -123 -102 -247l-4 -9q-8 -23 -13 -46q-3 -12 -2 -24v-1q0 -3 1 -5.5t2 -3.5h2q1 0 3 0.5t4 2.5q26 18 46 43q18 23 35 46
q2 4 4 7q84 116 159 235q3 6 7 13q3 5 6 9q11 25 23 51q27 58 59 116q2 3 2 5q14 26 31 51q6 8 13 14q4 3 9 3q3 0 6 -1q4 -3 4 -8q0 -2 -1 -3q-1 -3 -4 -6q-1 -1 -2 -1l-4 -10l-2 -3q-15 -32 -32 -64q-12 -22 -23 -44q-12 -24 -24 -50q-13 -27 -25 -54q-37 -85 -68 -170
l-15 -42q-17 -51 -32 -102q-6 -22 -9 -44q-3 -23 -1 -44q0 -10 3 -19q2 -8 8 -14q9 -6 20 -6q9 0 20 4q22 9 41.5 25.5t37.5 34.5l7 7q64 64 120 132q9 12 14 12h1q3 -1 1 -4q-1 -3 -6 -9q-32 -39 -65 -76zM223 552q2 2 2 4q2 1 3 3l-1 -1h-2l-1 -1h-1.5t-1.5 -1h-1
q-4 -2 -9 -5q-5 -2 -9 -4.5t-8 -5.5q-18 -12 -34 -25q-18 -15 -31 -32q0 -1 -1 -1q-4 -4 -8 -10q-2 -3 -3 -6t-1 -6q32 16 58 40.5t49 50.5z" />
    <glyph glyph-name="dt" unicode="dt" horiz-adv-x="465" 
d="M286 832q42 3 85 5l60 4q6 0 12 1q3 3 4 7q2 4 5 9q34 68 72 136q19 33 39 66q8 13 16 25q2 4 5 9q11 17 24 33q4 5 8 5h2q2 0 3.5 -2t-0.5 -5q-6 -16 -16 -33q-6 -11 -11 -21q-4 -8 -9 -15q-41 -80 -85 -160l-27 -52q86 5 171 9q3 5 6 11q5 6 8 12q29 59 63 117q3 4 7 6
t8 2q2 1 3 1t3 -1t2 -4q1 -4 -1 -8l-1 -3q-34 -65 -65 -131l146 6l75 2h19q28 1 56 1q3 -1 3 -3q1 -1 1 -2q-1 -1 -2.5 -3t-5.5 -3q-28 -1 -56 -1q-14 0 -28 -1q-43 -1 -84 -2q-65 -2 -129 -5l-18 -40q-59 -132 -108 -266l-22 -62q-44 -127 -82 -253l-23 -76q-2 -4 -6 -6h-4
q-1 0 -3.5 1t-0.5 5q24 93 51 185q38 137 88 273q10 29 21 58q26 69 58 138q-34 -54 -69 -107q-44 -65 -89 -130q-39 -59 -89 -112l-2 -2q-11 -12 -25.5 -24t-29.5 -12q-15 1 -17.5 14t-2.5 26v3q3 54 23 109l6 17q16 44 35 87q-1 -1 -2 -3t-3 -4q-29 -46 -62 -90l-1 -1
q1 -1 0 -2l1 -1q-1 -2 0 -4l-1 -3q-2 -4 -5.5 -7t-8.5 -3q-32 -45 -70 -87q-19 -21 -43 -38q-10 -7 -22 -12q-7 -3 -14 -3q-3 0 -7 1q-12 3 -13 14t3 23q2 8 5 17q6 16 16 33q31 52 86 84q21 11 40 11q6 0 11 -1q6 -1 11 -4l3 -2l1 -1q0 -1 1 -1h-1h1q0 -1 0.5 -1t1.5 -1
q49 68 92 137q3 4 5 7l4 6q22 48 46 97q-45 -3 -91 -7l-76 -8l-38 -6q-7 -2 -13 -3q-14 -3 -29 -5h-2q-5 0 -7 4.5t-1 10.5q3 7 9 11t12 4l15 1l14 -1q6 -1 13 -1q20 0 42 1zM251 530q7 9 14 19l6 8q-1 0 -2 1q-1 0 -1 1h-1q0 1 -1 1t-2 1h-2q1 1 0 1h-1q-2 1 -4 1h-12
q-2 -1 -5 -1l-1 -1h-2l-12 -6q0 -1 -1 -1q-4 -2 -7 -4q-4 -4 -10 -8q-1 0 -1 -1l-1 -1l-1 -1h-1v-1l-3 -2q-10 -9 -19 -19l-8 -10q-3 -3 -6 -8q-16 -21 -27 -42l-1 -3q-2 -4 -4 -10q-3 -6 -2 -10t5 -5q10 0 20 6t18 13q43 37 75 82zM349 568q-5 -11 -9 -21q-18 -51 -20 -100
l-1 -2q1 -4 1.5 -9t5.5 -6q5 0 12 4.5t11 8.5q2 1 2 2q27 22 49 49q41 50 76 102l9 14l86 128q34 52 67 105q-70 -4 -138 -8q-10 -1 -19 -1q-7 -1 -13 -1l-1 -2q-1 0 -1 -1q-32 -66 -62 -133q-30 -65 -55 -129z" />
    <glyph glyph-name="ea" unicode="ea" horiz-adv-x="566" 
d="M278 661q18 15 39 24q13 5 25 7q4 1 7 1q8 0 15 -4q12 -10 11 -28q-2 -5 -3 -10q-6 -17 -20 -32q-27 -35 -65 -60q-26 -19 -56 -30q-1 -1 0 -1q1 -4 2 -7l1 -2v-1h1q0 -3 2 -6h1l1 -1h1q0 -2 2 -3q2 -2 6 -3q5 -3 11 -5q12 -3 25 -3h7q36 2 73 15q47 18 90 44
q23 28 52 49q24 18 49 18h7q9 -2 13 -10q4 -7 0 -16l-1 -3q4 5 7 9q4 5 9 10q2 3 5 6l1 2q10 21 27 40q4 5 11 6h2q5 0 8 -3t0 -10q-4 -8 -9 -16q-1 -3 -3 -7q-3 -5 -5 -9t-5 -9q-5 -10 -8 -21q-4 -10 -7 -20q-4 -17 -7 -33l-1 -2q-2 -15 -1 -28q3 -13 13 -19q9 -4 20 -4
q4 0 8 1q38 9 71 35q35 24 66 54q2 2 4 1.5t4 -1.5l-1 -1q0 -2 -2 -3q-36 -37 -79 -67q-37 -27 -76 -33h-7q-34 0 -45 29q-9 35 4 76l4 11q-18 -21 -37 -43q-20 -22 -42 -42q-20 -20 -45 -37q-13 -9 -26 -10q-14 0 -17 12q-2 10 3 23l2 8q3 8 7 15q5 11 12 21
q-10 -6 -22 -12q-41 -21 -84 -34q-39 -13 -79 -13q-3 0 -25.5 0.5t-31.5 37.5q-2 24 7 49q5 14 13 27q23 40 61 71zM447 495q-2 -4 -4 -9l-2 -4q1 0 1 -1l-1 -4q1 0 0 -1q1 -1 2 -1h2q10 3 19 10q1 0 1 1q10 7 19 15q40 34 73 73q4 5 9 10q2 3 3 5h-1q-1 0 -2 1q-4 4 -8 5
q-2 0 -4 1h-10q-2 0 -5 -1l-1 -1q-2 0 -3 -1q-4 -1 -6 -3l-2 -1q-1 0 -2 -1l-5 -4q-6 -4 -12 -9q-1 -1 -2.5 -2t-2.5 -2l-3 -3q-10 -9 -17 -18q-5 -5 -7.5 -8t-5.5 -9q-7 -9 -13 -19q-6 -11 -10 -19zM329 667q-9 -5 -17 -11l-8 -6q-2 -1 -4 -3h-1q0 -1 -0.5 -1t-0.5 -1v1
q0 -1 -1 -1.5t-2 -1.5l-2 -2h-1h1l-2 -2q-5 -4 -8 -8q-7 -6 -12 -13q-3 -2 -5 -5v-1q-1 -1 -1.5 -1t-0.5 -1q-2 -3 -5 -7q-5 -7 -10 -15l-5 -8l-1 -3q-1 0 -1 -1l-1 -2q-4 -7 -6 -14q-2 -5 -3 -10l-1 -3v-6q30 12 59 32q37 26 62 64l4 8q1 4 2.5 10.5t-2.5 12.5q-3 4 -10 4
q-1 0 -5.5 -1t-11.5 -4z" />
    <glyph glyph-name="eb" unicode="eb" horiz-adv-x="430" 
d="M676 957q14 11 30 16h2q2 0 3 -1.5t0 -3.5q-1 -3 -2 -5l-9 -8q-2 -2 -5 -4l-12 -14q-5 -5 -8 -9q2 -1 3 -3l-1 -2l-1 -2l-19 -24q-13 -18 -27 -35q-7 -8 -13 -16l-2 -2v-1q-86 -125 -151 -254q-33 -64 -60 -129l-8 -20l-1 -3q20 36 45 69q13 16 28 32l7 7t8 7q7 8 16 14
q7 3 12 3q4 0 9.5 -2t8.5 -10q4 -13 -1 -30q-1 -5 -3 -10q57 33 116 60l3 1q1 0 2 -1.5t0 -4.5v-1q0 -1 -3 -3q-62 -27 -121 -63q-10 -26 -27 -50q-14 -17 -29 -32q-8 -8 -17 -14q-1 -1 -2 -1q-6 -6 -14 -10q-6 -2 -10 -2q-3 0 -8 1.5t-5 10.5q1 6 4 13q3 9 10 18
q23 31 59 52q1 1 3 2l3 2q5 9 8 18q4 11 6 22q0 4 0.5 6t-0.5 5q0 1 -1 1h1h-1v1h-1l-1 -1q-6 -1 -13 -6.5t-13 -10.5v-1q-27 -26 -46 -56q-21 -33 -39 -67l-19 -36l-14 -40q-1 -3 -4.5 -5.5t-6.5 -2.5t-4 2.5t-1 5.5q14 55 34 109q7 21 16 41q40 106 99 210
q-63 -77 -138 -145q-20 -18 -41 -34q-21 -17 -45 -31q-23 -13 -47 -16h-3q-22 0 -31 17q-8 19 -2 42l4 11q6 18 18 35q15 21 36 38q10 9 22 16t23 7q9 -1 11.5 -8t-0.5 -16l-2 -3q-5 -16 -18 -30q-29 -32 -65 -56v-8v-1v-2l1 -4q0 -1 1 -3q1 0 0 -1l1 -1q1 -3 2.5 -5t5.5 -3
q4 -2 8 -2t8 1q19 3 39 15t40 27q39 30 73 65q67 69 126 143q1 1 1 2l2 2l2 4q39 64 85 127q21 31 46 60q11 13 24 24zM219 543l-5 -12q18 13 33 28q17 15 29 33q4 5 5 9l1 4v4.5t-1 2.5v1l-1 -1h-3q-2 -1 -3.5 -2t-3.5 -3q-1 0 -1 -1q-9 -6 -17 -14q-14 -15 -24 -32
q-4 -5 -6 -8.5t-3 -8.5zM464 451q10 14 18 29q-28 -18 -47 -43q-4 -5 -7 -12l-2 -4q-2 -5 -1 -9q0 -2 1 -2t2.5 0.5t4.5 3.5l6 6l5 5q2 3 4 5q4 4 6 8q4 4 6 8q2 3 4 5z" />
    <glyph glyph-name="ed" unicode="ed" horiz-adv-x="406" 
d="M633 809q-81 -143 -148 -288q-34 -72 -63 -145q-19 -49 -37 -99l-18 -49q-1 -3 -4 -5h-2q-2 0 -3.5 1t-1.5 4q18 62 41 125l15 41q56 148 129 294q2 5 5 10q2 3 3 6l-63 -96q-4 -7 -8 -13q-7 -10 -13 -19q0 -3 -2 -6q-1 -4 -3 -8q-1 -2 -3.5 -2.5t-3.5 -0.5
q-34 -52 -80 -97q-8 -8 -18 -14q-6 -4 -11 -4q-4 0 -8 2q-6 4 -6 12t2 16q5 16 13 31l-3 -2q-3 -3 -7 -6q-37 -30 -77 -56q-37 -25 -76 -37q-11 -2 -21 -2q-21 0 -36 12q-19 24 -5 60l1 3q11 32 36 60q27 28 60 44h1q9 4 18 6q3 1 6 1q5 0 8 -2q6 -4 6 -11q0 -4 -2 -8
q-1 -4 -4 -8q-9 -16 -25 -30q-14 -13 -29 -23q-22 -16 -46 -25q-5 -13 -6 -26q-5 -26 19 -33q6 -1 13 -1q21 0 45 12q32 17 63 39q30 21 59 45q7 5 13 10l4 4q8 13 16 24q12 17 30 30q8 5 17 8.5t17 3.5q12 -1 20 -9l1 2q26 37 51 74q50 76 98 152q2 4 5 7l5 10q21 35 43 71
q15 25 33 50l4 6q3 4 5 7t4 4q1 0 2 1q0 1 2 3q3 3 6 3q4 0 6 -2t0 -5q-16 -35 -38 -70q-3 -6 -6 -11q-25 -40 -48 -81zM161 503l-5 -8q20 9 39 22q14 11 28 24q0 1 2 3q6 5 12 13q3 4 4 7q1 4 1 7q-1 2 -3 2h-3q-3 -1 -7 -3.5t-7 -4.5l-1 -1q-13 -8 -23 -17
q-12 -10 -21 -22l-3 -2v-2l-2 -1q-1 -2 -4 -5q-4 -6 -7 -12zM413 524q20 25 39 52q-3 4 -7 6q-2 1 -5 1t-8.5 -2t-11.5 -7q-14 -11 -25 -26q-13 -20 -22 -40q-9 -17 -15 -34l-2 -5q-1 -1 0 -1v-1q16 11 29 26q15 15 28 31z" />
    <glyph glyph-name="el" unicode="el" horiz-adv-x="362" 
d="M257 553q-32 -37 -76 -60l-3 -9q-2 -8 -3.5 -16t0.5 -15q0 -3 1.5 -4.5t4.5 -2.5q5 0 10.5 2.5t10.5 5.5q22 13 42 30q20 16 39 34q37 36 70 75q74 86 144 174q38 48 75 97q6 10 11 19q23 39 55 72q4 4 7 4t4 -2.5t0 -6.5q-14 -27 -30 -53q-8 -15 -17 -31
q-23 -42 -45 -85q-80 -154 -143 -309q-19 -47 -36 -94q-12 -31 -22 -63q-28 -78 -51 -156q-2 -4 -4 -6h-3q-2 0 -4 1t-1 5q23 88 52 176q15 46 32 93q41 111 90 222q35 80 75 159q1 2 3 4v1q-35 -46 -72 -91q-74 -94 -156 -184q-38 -42 -82 -78q-2 -1 -3 -1q-20 -19 -45 -30
q-8 -2 -14 -2q-17 0 -23 15q-5 18 1 41q2 7 4 13q6 16 16 32q13 22 31 41q19 20 43 34q10 5 20 5h5q10 -3 8 -16q-1 -4 -3 -9q-1 -5 -5.5 -13.5t-12.5 -17.5zM195 511q18 12 35.5 27.5t28.5 34.5q1 4 3 9t1 8q-1 1 -2 1h-2q-2 0 -4 -1.5t-4 -2.5q-18 -14 -33 -31
q-20 -24 -32 -51q2 1 5 3z" />
    <glyph glyph-name="em" unicode="em" horiz-adv-x="816" 
d="M320 505q58 36 110 80t100 92q15 20 34 37q3 2 5 2h2q3 0 4.5 -2t0.5 -6q-10 -22 -26 -45q-3 -6 -7 -12q-3 -5 -7 -10q-14 -23 -27 -46l-2 -3q-13 -23 -26 -47q-3 -6 -6 -13l-5 -6q-1 -3 -2 -5q-1 -3 -3 -5q-3 -4 -5 -8l-1 -5v-2.5v-2.5q1 -1 2 -1t3 1q10 4 18 11l3 2
q20 15 40 31q22 19 43 39l32 28q19 17 38 32l20 14q7 4 13 9l8 6q4 2 7 2q4 0 4 -4q2 -8 -1 -18l-2 -4q-1 -4 -4 -8l-2 -6q-7 -15 -17 -29q-1 -3 -2 -5q-9 -16 -19 -32q13 10 24 19q35 27 70 50l21 14q6 4 11 7q15 11 31 16q3 1 6 1q5 0 10.5 -3t7.5 -10q1 -13 -4 -28
q1 -1 0 -3q-2 -8 -5 -16l-3 -14l-2 -6h1q-1 0 -1 1l-1 -8q-1 -6 -1 -13l-2 -14q1 -2 1 -3v-2q1 0 0 -1l1 -4q1 -6 3 -11q1 0 0.5 -0.5t0.5 -1.5l3 -5q12 -16 35 -20q9 -2 19 -2q15 0 31 4q65 19 125 62q3 2 6 2l1 -1q2 -1 3 -3l-1 -1q-1 -3 -4 -5q-33 -23 -68 -42.5
t-71 -28.5q-19 -4 -36 -4q-9 0 -17 1q-25 3 -44 16q1 1 0 1q-5 4 -8 8q0 1 -1 1q0 1 -1 1l-4 6q-6 12 -6 28q-1 29 10 60q3 7 5 15l6 17q-1 0 -1 1l1 1v2v2h-1q-1 1 -4 1q-7 -1 -14 -6h-1q-7 -4 -15 -9q-16 -10 -32 -21q-32 -21 -62 -45q-13 -10 -26 -21q-9 -7 -16 -13
q-2 -2 -2 -3q-2 -2 -4 -5q-7 -9 -16 -9h-1q-4 1 -6 4.5t-1 8.5q17 34 38 67q4 5 6 10q7 12 16 24q4 4 6 9l2 2q-2 -1 -5 -3q-12 -8 -24 -17q-23 -19 -45 -39l-22 -20q-28 -27 -58 -51q-11 -9 -22 -17q-3 -1 -4 -3q-10 -7 -19 -11q-5 -2 -9 -2h-5.5t-6.5 4q-4 7 -3 17
q1 6 3 12l4 10q1 2 1 4l4 12l6 12q13 29 29 57q8 13 17 26q-39 -37 -79 -71q-69 -58 -146 -99q-37 -20 -71 -20h-6q-20 2 -29 16t-6 33q2 11 6 22q10 29 34 55q15 17 34 31q9 6 20 10q5 1 9 1q6 0 10 -2q9 -5 6 -16q0 -3 -2 -7q-2 -7 -9 -16.5t-14 -17.5q-25 -29 -59 -45
l-1 -4q-1 -4 -2 -7v-8l-1 -2q1 0 1 -0.5v-1.5q1 0 0 -1q0 -3 1 -6q1 0 1 -1l2 -3q5 -9 19 -11h7q11 0 23 4q36 13 69 35zM206 525q28 17 49 42q7 8 12 16q1 3 2.5 6.5t1.5 5.5q-2 2 -3 2q-2 0 -5 -1.5t-7 -5t-7 -6.5l-1 -1q-7 -7 -14 -15q-3 -3 -5 -6l-2 -2q-1 -1 -2 -3
q-6 -8 -11 -16q-3 -4 -4 -8q-1 0 -1 -1z" />
    <glyph glyph-name="en" unicode="en" horiz-adv-x="456" 
d="M369 553q-26 -24 -55 -43q-32 -22 -66 -33q-12 -3 -22 -3q-21 0 -34 15q-15 21 -4 51l3 7q17 36 51 64q15 13 34 20q8 4 15 4q9 0 16 -6q7 -8 3 -19q-1 -5 -7.5 -15t-19.5 -23q-25 -27 -57 -44q-2 -1 -3 -1q-2 0 -3 1t0 4t3 5q32 18 56 46q4 6 9 13q0 1 1 1q2 3 4 7l1 3
q1 2 0 4q0 1 -3 1l-2 1l-1 -1h-2q-1 0 -2 -1h-1q-1 0 -2 -1t-3 -2q-5 -4 -9.5 -7.5t-8.5 -7.5q-2 -2 -5 -4q-6 -6 -11 -13l-5 -5q-1 -1 -1.5 -1t-0.5 -1l-1 -1l-1 -1q-5 -7 -8 -13q-2 -2 -3 -4l-6 -18v-10v-3v-1q1 0 0 -1l1 -4q0 -2 1 -4v-1q1 0 1 -1q1 0 0 -1q4 -8 13 -11
q4 -1 7 -1q10 0 22.5 4.5t26.5 11.5q54 29 97 73q26 25 49 52l12 20l1 2q5 7 11.5 15.5t13.5 12.5q4 3 8 3q3 0 6 -2q2 -3 0 -6q-1 -3 -4 -5l-2 -4q-2 -5 -5 -11l-2 -7l-8 -16q-2 -6 -5 -11q-8 -18 -15 -35q-9 -24 -16 -47q-2 -9 -6 -18q27 29 56 56q4 3 7 6q5 5 11 10
q8 8 15 13q4 1 8 1q2 0 5 -0.5t5 -4.5q3 -8 2 -17q-2 -9 -1 -17l-1 -1v-6q-1 -2 0 -4l-1 -1q1 0 1 -1q0 -15 6 -25q7 -12 23 -14h4q15 0 31 6q38 17 69 48q3 2 5 2h1q2 0 3 -2v-2l-1 -2q-34 -37 -77 -57q-23 -9 -42 -9q-16 0 -30 6q-27 17 -23 53q2 10 4 19q1 1 1.5 3.5
t0.5 5.5q-4 -3 -8 -7l-16 -14l-1 -1q-28 -27 -54 -56q-4 -4 -8 -9q-2 -5 -8 -10q-5 -3 -10 -3q-2 0 -5 1q-4 3 -3.5 10t1.5 14q0 2 1 4q2 14 5 27l10 32q4 11 9 21l2 5q-26 -28 -53 -53z" />
    <glyph glyph-name="end" unicode="end" horiz-adv-x="997" 
d="M139 401q-11 17 -8 41q2 18 9 36q10 29 32 57q34 47 85 74q12 6 24 10q13 6 25 6h3q11 -2 13 -10t-1 -19q-7 -20 -25 -38q-19 -21 -41 -38q-21 -18 -46 -31q-11 -6 -24 -11q-7 -4 -15 -6l-4 -10h1l-1 -4q-2 -9 -2 -19q1 0 0.5 -0.5t-0.5 -1.5l1 -4q1 -5 1 -9h1q0 -1 1 -2
q1 -2 1 -4q3 -3 5 -6q2 -2 5.5 -4.5t6.5 -3.5q12 -4 26 -4q7 0 14 1q48 10 95 38t91 63q82 65 155 140q0 1 1 2l1 1q0 2 2 3q3 7 9 13t12 8q3 1 4 1q4 0 5 -3.5t-1 -8.5l-4 -13q-2 -5 -5 -11q-3 -8 -7 -17q-2 -5 -5 -11q-12 -27 -22 -54q-9 -26 -16 -52q9 14 19 28
q26 36 58 69q14 14 28 27q8 8 18 11q3 1 6 1q5 0 8 -3q6 -3 8.5 -9.5t2.5 -13.5q1 -1 1 -3q0 -6 1 -12q0 -9 1 -17q3 -16 6 -30q4 -10 12 -19q13 -18 39 -23q14 -3 29 -3q27 0 63.5 12.5t80.5 38.5q8 13 19 25q19 24 45 42q18 12 33 12q8 0 15 -3q9 -4 11 -14q44 72 85 144
q6 12 13 24q57 102 113 204l4 8q5 12 11 23q26 55 54 109q13 27 28 54q7 13 15 26l6 10l10 16q3 5 6 5h2q2 0 4 -2t0 -6l-9 -18l-4 -13l-15 -30q-15 -30 -29 -60q-30 -60 -59 -121q-102 -215 -186 -431q-20 -52 -39 -104q-60 -166 -108 -331q-2 -4 -5 -5q-2 -1 -3 -1
q-2 0 -4 1t-1 5q1 6 3 12q2 8 5 16q31 108 67 217q27 81 57 163l20 54q41 109 87 218l27 62q-42 -76 -85 -152q-63 -113 -146 -218q-19 -25 -42 -46q-10 -9 -23 -16q-11 -6 -19 -6q-3 0 -6 1q-9 5 -8 17t6 24l2 8q9 24 23 48q3 5 5 9l1 1q-23 -14 -48 -24q-53 -23 -101 -23
q-11 0 -21 1q-28 4 -47 18q-23 15 -29 45q-3 15 -4 31q1 7 1 13q-1 1 0 3q-1 1 0 2q-1 2 0 5v1q-1 1 0 2v1l-1 1q1 1 0 2v1q-1 0 0 1v1q-5 -2 -7.5 -4t-5.5 -5q-15 -14 -29 -28q-28 -30 -51 -62q-10 -15 -20 -32q-5 -6 -9 -13l-6 -10q-1 -3 -1 -5l-1 -3q-2 -7 -8 -13
q-5 -5 -9 -5h-2q-4 0 -6 3q-5 5 -4 14q1 7 2 15q3 15 8 31q7 29 18 58q11 28 24 55q-35 -34 -72 -67q-47 -42 -99 -80q-48 -37 -102 -62q-47 -22 -90 -22h-10q-25 3 -39 20zM899 469l-4 -9q-2 -6 -3 -13q-1 -5 1 -5q3 0 8 2q23 13 41 34q42 47 76 97q7 9 12 19q-1 0 0 1
q-2 0 -4 1q-3 3 -9 3q-3 0 -7 -1q-6 -1 -11 -4q-1 0 -2 -1q-3 -1 -4 -3q-14 -9 -28 -19l-1 -1q-3 -3 -6 -7q-18 -23 -32 -46q-16 -24 -27 -48zM174 484h1q3 2 6 3q46 21 84 56q19 17 33 36q4 7 8 16q1 3 1 6q-1 1 -1 2t-1 2t-4 1q-1 0 -4 -0.5t-8 -2.5q-10 -5 -20 -11
q-9 -6 -18 -13q-6 -4 -10 -8l-3 -2l-2 -2t-1 -2q-10 -8 -19 -17q-3 -5 -8 -9q-2 -2 -2 -4q-2 -1 -2 -2l-1 -1l-1 -2h-1l-1 -2l-1 -1q-1 -2 -3 -4l-6 -10q-4 -5 -7 -10q-1 -3 -3 -5l-2 -5q-1 -2 -2 -3z" />
    <glyph glyph-name="ent" unicode="ent" horiz-adv-x="660" 
d="M870 855q4 6 7 13q1 4 3 7l-14 -20q-4 -5 -7 -9h8zM242 551q14 7 26 16q14 9 25 21q8 7 10 14q1 3 0 6l1 1q-1 0 -1 1h-4l-1 -1h-1q-1 0 -2 -1l-8 -4l-3 -2q-1 0 -1 -0.5t-1 -0.5l-8 -6q-6 -3 -11 -7l-2 -2q-1 0 -1 -1l-2 -2l-3 -3q-4 -4 -8 -9q-1 0 -2 -1v-1l-1 -1
q-2 -3 -3 -6q-2 -2 -3 -4l-2 -2l-3 -9l1 1q4 1 8 3zM413 552q6 8 12 17l11.5 11.5t12.5 8.5q3 1 6 1t6 -3q1 -2 0 -5t-4 -5q-1 -1 -2.5 -3.5t-3.5 -5.5l-1 -3q-5 -7 -8 -14l-2 -3l-3.5 -7t-4.5 -7q-3 -9 -7 -17l-10 -29q1 1 1 2l2 2q16 22 35 43q9 10 19 19q8 10 19 17
q8 5 14 5q4 0 8 -3q3 -3 4 -8.5t0 -11.5q-1 -20 -4 -40v-3q-1 -4 -1 -7l-1 -3h1v-1v-3l1 -3h1v-1h1q1 0 3 -1q2 0 5.5 0.5t7.5 1.5q10 4 19 10q19 14 37 29q37 33 68 70q33 37 64 76q60 74 116 151h-5q-4 -1 -8 -1q-68 -5 -138 -12q-5 -1 -10 -1q-29 -3 -60 -7h-5l-29 -4
l-12 -2l-26 -4q-5 0 -7 4.5t0 9.5q1 5 6.5 8.5t10.5 4.5q14 1 27 1h13q13 0 25 1q6 1 12 1q37 2 74 5q3 1 5 1q68 5 139 11q32 44 61 88l2 4l2 4q12 22 22 43q11 22 26 43q5 5 10 7h3q3 0 6.5 -2t1.5 -8q-8 -22 -20 -44q-2 -3 -4 -7q-6 -12 -12 -23l-12 -24q-20 -39 -39 -78
q9 1 19 2q35 3 70 5l138 10l32 2q53 4 107 6q4 0 5 -3v-3q-1 -2 -3.5 -4.5t-6.5 -3.5l-93 -6l-63 -4q-107 -7 -213 -16q-85 -170 -148 -341q-61 -171 -108 -342q-1 -3 -4 -4q-2 -1 -4 -1h-3t-1 4q22 96 53 192q26 81 55 162q33 91 71 182q30 73 62 146h-5q-3 -1 -6 -1l-3 -4
q-1 -2 -3 -4q-61 -84 -127 -165q-59 -77 -132 -144q-18 -16 -38 -30q-9 -6 -20 -11.5t-21 -5.5q-22 1 -25 22q-2 16 3 35q1 2 1 5q3 14 7 27l1 4q-1 -1 -1 -2q-8 -5 -14 -12l-4 -4l-17 -18q-17 -19 -32 -39q-9 -11 -16 -23q-4 -11 -14 -18q-4 -4 -8 -4h-4t-7 4q-2 4 -1.5 10
t2.5 12l1 3q4 10 6 19q8 20 17 40v1q-34 -25 -74 -41q-33 -13 -65 -15h-21q-6 0 -12 1q-13 2 -24 9q-19 17 -13 48q1 9 4 18q9 23 27 44q25 28 58 41q10 4 18 4h7.5t11.5 -7q4 -4 3.5 -11t-3.5 -14q-7 -14 -20 -26.5t-26 -21.5q-19 -13 -40 -21q0 -4 -1 -9v-2v-6l1 -1
q-1 -1 0 -2q0 -2 1 -5q0 -1 1 -1q-1 -1 0 -1v-1l1 -2v-2l4 -6q3 -3 7 -5h1q4 -3 9 -4q7 -1 14 -1q13 1 27 4q28 6 56 19q33 17 62 41z" />
    <glyph glyph-name="er" unicode="er" horiz-adv-x="457" 
d="M270 573q-21 -25 -49 -38l-2 -4v-3q-1 -4 -1 -7l-1 -6v-1q1 -1 1 -3t1 -5l1 -1q-1 -1 0 -1l1 -3l2 -2q0 -1 0.5 -1.5l1 -1t1.5 -0.5l1 -2q1 -1 2.5 -2t2.5 -1q8 -5 18 -7q5 -1 11 -1q19 0 39 9q60 28 113 73q19 15 37 32q15 23 31 44q9 10 18 19q1 0 2 1q4 4 9.5 8.5
t10.5 5.5l2 1q1 0 2 -1l2 -2q0 -4 -2 -9l-2 -5l-1 -2l-1 -4q-2 -1 -2 -2l-2 -2h-1q-8 -13 -15 -25q-14 -20 -27 -41q-6 -11 -13 -23q-3 -5 -5 -11q-2 -2 -3 -5q0 -1 -2 -2l-2 -6q24 37 50 72q4 4 8 9q9 12 19 24q13 16 31 22q8 3 15 3q3 0 9 -1.5t14 -4.5q5 -3 9 -5
q9 -5 17 -8q8 -1 15 -1q24 0 52 15q1 1 3 1q1 0 3 -0.5t2 -2.5v-1q-1 -2 -4 -4q-37 -25 -76 -28h-6q-14 0 -27 4l-10 4q-8 4 -18 6q-3 1 -6 1q-2 0 -7 -3q-6 -4 -13 -11q-15 -16 -27 -33q-27 -35 -49 -72q-12 -18 -22 -37q-4 -7 -8 -15l-6 -16q-2 -6 -7.5 -10t-10.5 -5h-3
q-5 0 -8 2.5t-2 8.5q4 22 12 43l4 10q13 34 33 68q-23 -19 -47 -37q-29 -23 -62 -42.5t-66 -24.5q-8 -1 -16 -1q-21 0 -37 8q-24 15 -21 47q1 11 5 21q8 23 27 45q11 14 28 26q14 10 27 10q3 0 6 -1q8 -2 10 -8t-1 -14q-7 -14 -18 -27zM227 551q20 13 36 33q0 1 1 1
q2 2 3.5 5t2.5 6v2v2q0 -1 -1 -1t-2 -1q-3 -1 -4 -2h-1v-1q-4 -2 -7 -4l-1 -1l1 1v-1q-1 0 -2 -1q0 -1 -1 -1q-5 -6 -9 -11h-1v-1q-1 -1 -2 -3q-3 -3 -3 -5q-5 -7 -8 -13q0 -1 -1 -1z" />
    <glyph glyph-name="es" unicode="es" horiz-adv-x="480" 
d="M523 479q35 27 72 48q24 14 48 26q2 1 3 1q22 13 46 23l3 1q1 0 2.5 -1.5t0.5 -4.5v-1q-1 -2 -5 -4l-22 -12q-76 -34 -145 -86q6 -29 5 -61q0 -26 -10 -55l-5 -11q-7 -19 -22 -37t-36 -27q-8 -2 -15 -2q-10 0 -19 7.5t-10 23.5q-1 23 8 46q6 17 17 34q26 42 66 77
q-2 7 -4 13l-6 20l-6 20l1 1q-7 18 -11 38q-4 33 9 69l2 4l-32 -26q-34 -28 -70 -52q-33 -22 -67 -41q-34 -21 -69 -34q-18 -6 -35 -6h-3q-15 0 -25 9q-20 21 -7 57q18 37 52 64q15 12 33 18q6 2 11 2q10 0 16 -7q6 -9 2 -20q-1 -3 -6.5 -12.5t-18.5 -21.5q-26 -27 -60 -46
q0 -2 1 -4t1 -3q1 -3 2 -5h1q0 -1 1 -1v-1q7 -7 20 -7q28 2 58 18q59 29 116 69q28 20 55 42q18 15 35 31l3 2q11 16 26 30l14 10h1q1 1 1.5 1t0.5 1q1 0 3 1q10 6 21 8h2q5 0 6 -5q0 -2 -1 -4q-1 -4 -4 -7q-3 -1 -4 -3q-2 -2 -5 -4q-1 -1 -2 -1l-3 -2l-2 -2q-9 -8 -15 -16
l-1 -1h-1v-1q-1 -1 -2 -3h-1l-1 -2l-6 -8l-6 -10v-1h-1l-10 -28q1 -1 0 -3q-1 -3 -1 -6q-1 -5 -2 -11q0 -11 -1 -23q0 -22 5 -42l6 -28q1 -7 2 -15zM210 523v-1q1 1 2 1q29 21 54 46q6 6 10 12q5 5 7 11l1 3q0 6 -5 7h-3q-3 0 -7 -1q-7 -3 -13 -8t-11 -11q-11 -11 -20 -24
q-5 -7 -7.5 -12.5t-5.5 -12.5q-1 -2 0 -3v-1q-2 -3 -2 -6zM514 395q1 31 -7 59q-1 -2 -3 -3q-3 -4 -8 -8q-37 -35 -58 -78q-4 -7 -6 -14q-4 -11 -6.5 -26t5.5 -28q5 -8 16 -8q4 0 10 1q17 7 29 23q13 19 20 38q8 22 8 44z" />
    <glyph glyph-name="est" unicode="est" horiz-adv-x="617" 
d="M598 814v0q27 0 53 1q8 1 15 1l68 2q7 1 15 1q3 3 6 7q7 7 14 15q59 65 111 133q1 1 2 3q10 19 21 37q4 6 9 11.5t12 7.5q2 3 5 3t5 -2v0h1q5 -2 3 -6.5t-7 -7.5v-1v0q-1 -1 -1 -2q-1 0 -1 -1v-1l-1 -1q0 -1 -1 -2v-1q-1 -1 -1 -2v0q-3 -8 -7 -15q-2 -4 -3 -7l-22 -46
q-23 -47 -45 -93q-4 -8 -7 -15q-3 -6 -5 -11q7 0 15 1q31 1 63 2q124 3 247 5q4 0 4 -3t-2.5 -6t-6.5 -4q-69 0 -138 -1q-93 -2 -187 -5q-31 -64 -58 -129q-36 -83 -67 -166q-61 -165 -89 -328q-1 -5 -5.5 -7.5t-8 -2t-3.5 5.5q11 94 36 189q45 170 118 341q21 48 44 96
q-5 0 -10 -1h-18q-4 -1 -8 -1h-8q-34 -37 -68 -75q-42 -45 -83 -90q-37 -41 -72 -84q3 -9 4 -20q0 -42 -35 -83q-8 -10 -20 -19t-23 -9q-12 2 -12 12.5t5 21.5q24 48 61 93q-3 5 -7 9q-4 5 -9 10q-9 8 -16 18q-8 14 -6 32l-16 -14q-30 -26 -62 -49q-29 -21 -60 -38
q-32 -19 -66 -31q-32 -11 -58 -2q-13 6 -18 19q-5 14 0 32q8 30 32 56q10 12 24 20.5t28 9.5q8 0 13.5 -3.5t3.5 -11.5q-3 -14 -15 -27q-11 -12 -25.5 -22.5t-29.5 -14.5v-1v0q0 -1 -1 -2v-1v-1v0v0q-1 -3 -1 -5q-1 -4 -0.5 -6t0.5 -4v-1q1 -1 1 -2v-1q1 -2 2 -3q1 -2 1 -3
h1v0v-1h1v-1v0q1 0 2 -1q2 -2 4 -3h1v-1h1v0q9 -4 20 -4q28 2 57 17q54 27 104 64q24 19 47 40q6 5 12 11q6 19 20 38q8 11 19 20q7 5 14 8v0v0v0h1v1q0 -1 -1 -1v0v0v0v0q1 1 2 1q2 1 3 1q2 1 5 1q7 2 9 -3.5t-3 -11.5h-1l-2 -4h-1v-1l-4 -4v0q0 -1 -1 -2t-3 -2v-1v0l-2 -2
l-1 -1l-2 -2l-3 -3v0q-1 -1 -1 -2l-1 -1v0v0l-1 -1q-2 -3 -5 -7q-1 -3 -3 -5v-1l-1 -1v-1l-1 -1v0v-1q-2 -4 -3 -7l-2 -6v-1v-1v0q-1 -4 -1 -9h-1v-9v-1v0v-1v0v0h1v-1q0 -2 1 -4q4 -15 13 -29q2 -2 3 -5q1 -1 1 -2q1 -1 1 -2q37 44 75 86t77 83l60 66q-46 -2 -92 -5
q-31 -2 -62 -5q-14 -1 -28 -3l-36 -4q-5 0 -7.5 3.5t-0.5 8.5t6.5 8.5t9.5 3.5h39h31zM231 561v0q-1 0 -1 -1v-1q24 15 43 37v1q2 2 3.5 4.5t2.5 4.5q0 3 -1.5 3t-3.5 -1h-1q-2 -1 -4.5 -2t-4.5 -2q-2 -2 -4.5 -3.5t-3.5 -3.5l-1 -1l-8 -8q-1 -1 -1 -2h-1v-1q-2 -2 -4 -5
q-3 -5 -6 -11q-2 -2 -3 -5v0v0v0v0l-1 -1v-2zM510 494v0q10 20 9 39l-2 8q-14 -19 -27 -38q-17 -24 -26 -49q-1 -2 -2 -4.5t0 -4.5t3 -1q5 1 10.5 5t8.5 8h1q16 17 25 37zM766 820v0v0v-1q10 1 20 1q9 0 18 1q15 32 31 64q8 17 16 33q-41 -50 -85 -98zM506 615v0v1v-1v0z
" />
    <glyph glyph-name="et" unicode="et" horiz-adv-x="507" 
d="M310 595q-34 -41 -81 -48l-1 -3q-1 -5 -1 -11q1 0 1 -1l-1 -1q1 -1 1 -2q-1 -3 1 -5l-1 -1q1 0 1 -1q1 0 1 -1q1 0 0.5 -0.5t0.5 -0.5v-1h1q1 -2 3 -3h1q0 -1 1 -1q3 -1 5 -1q1 0 1 -0.5t1 -0.5h6q8 0 16 2q27 7 51 23q55 36 103 82q48 45 91 94q90 102 167 210l50 72
q-65 -6 -130 -14q-39 -5 -80 -12q-11 -1 -23 -4q-9 -1 -17 -3q-10 -2 -21 -3q-10 -2 -20 -2q-6 1 -7 5q-1 3 0 6q1 2 3 5t9 6q22 5 44 5h3q21 0 42 2q37 3 73 6l16 2q57 5 114 11l4 6q2 3 5 7l25 52l22 44q10 20 24 40q4 5 9 6h2q3 0 5 -1.5t1 -6.5l-1 -3q1 -2 0 -4
q-2 -2 -2 -4q-1 -1 -2 -3q-14 -37 -32 -75q-1 -2 -3 -5q-7 -17 -15 -34q-4 -8 -7 -16q85 9 168 17l145 12q85 6 170 14q4 0 5 -2l-1 -3q0 -2 -2 -4.5t-6 -2.5q-87 -5 -176 -12q-153 -12 -307 -28q-3 -6 -6 -13q-5 -11 -9 -21q-77 -167 -140 -335q-60 -167 -107 -334
q-1 -4 -4 -5h-3q-1 0 -3 0.5t-1 4.5q22 94 52 189q26 83 55 167l3 9q18 53 37 105l19 53q30 75 63 149q-34 -48 -69 -96q-44 -58 -91 -115q-45 -54 -95 -106q-49 -53 -104 -98q-26 -22 -55 -39.5t-60 -24.5q-8 -2 -15 -2q-20 0 -32 15q-11 23 0 52l1 3q11 29 33 55
q23 27 54 39q8 3 15 3q5 0 12.5 -2.5t8.5 -14.5q1 -11 -3 -23q-4 -10 -11 -20zM240 559q23 7 44 24q18 14 24 32q2 3 2 7q2 9 -4 13q-2 2 -5 2q-4 0 -10 -3q-11 -7 -20 -16l-10 -10t-7 -9q-8 -12 -15 -23l-7 -18q4 0 8 1z" />
    <glyph glyph-name="eth2" unicode="eth" horiz-adv-x="824" 
d="M1352 891q5 0 5 -4v-3q-1 -2 -3 -5t-7 -3q-110 -3 -221 -7q-150 -5 -300 -11q-39 -82 -71 -165q-12 -32 -24 -65q-28 -75 -50 -151q21 30 46 56q8 8 16.5 15t17.5 11q15 6 27 6q7 0 14 -2q12 -3 23 -8q6 -2 12 -5q20 -6 41 -10q17 -3 35 -3q20 0 51.5 6t72.5 33q1 1 3 1
q1 0 2.5 -0.5t1.5 -3.5l-1 -1q0 -2 -2 -4q-42 -31 -88 -44q-33 -9 -64 -9q-10 0 -20 1q-41 5 -73 24q-2 0 -4 1q-6 4 -14 7q-3 1 -7 1t-9 -1q-10 -3 -18 -10.5t-16 -15.5q0 -1 -1 -1q-34 -37 -56 -78h-1q-1 -4 -6 -5h-2q-2 0 -4 1t-1 5q19 71 42 141q18 57 39 114
q25 68 53 136q4 11 9 22l-29 -2q-19 0 -38 -1q-2 0 -5 -1h-3q-78 -152 -141 -305l-42 -112l-20 -57q-3 -8 -5 -15q-7 -24 -16 -47q-20 -55 -45 -110q-2 -4 -6 -6h-3q-2 0 -3.5 1t-0.5 5q23 50 41 100q10 28 19 57q6 18 13 36q11 34 24 69q18 51 39 102q31 84 68 169
q25 56 52 112h-11q-2 -3 -3 -5q-5 -5 -8 -10q-84 -101 -186 -188q-50 -43 -105 -81q-55 -39 -115 -58q-19 -6 -36 -6q-8 0 -15 1q-28 7 -24 38q1 7 4 14q8 23 27 45q23 26 53 43q15 10 30 10q13 -2 15 -13q1 -6 -2 -14q-1 -3 -4 -9.5t-12 -15.5q-32 -38 -78 -56v-4q1 0 0 -1
q1 -1 1 -2q-1 -1 0 -1v-1q1 0 0 -1h1q1 -2 2 -3v-1h2q0 -1 1 -1q0 -1 1 -1l1 -1h2q1 -1 2 -1q1 -1 4 -1q2 -1 4 -1t4 -1h9q13 2 26 6q27 8 53 22q53 30 101 69q48 37 92 78q77 71 142 150q-72 -4 -142 -7q-50 -3 -99 -6l-49 -4q-10 0 -21 -1q-16 -2 -30 -3q-5 0 -7 3t0 8
q2 4 6 7t9 3q16 1 33 1q11 0 22 1q27 0 54 2q33 1 65 3q24 1 46 2q49 2 96 4q15 1 29 1l2 4q4 5 9 10q21 28 41 57q16 30 32 59q11 21 23 41q13 21 27 42q4 4 8 5h2q2 0 4 -1.5t1 -5.5l-10 -24q-6 -12 -11 -23q-2 -1 -2 -2q-12 -24 -25 -48q-24 -46 -48 -93l-1 -1
q-2 -5 -5 -11q-2 -3 -3 -7q24 1 47 2q13 1 26 1q18 45 39 89q15 32 31 64q1 3 4 7q12 28 33 54q3 4 7 4l4 1q2 0 4.5 -1.5t1.5 -5.5q-3 -9 -6 -19q-7 -18 -18 -37q-3 -7 -7 -15q-16 -34 -33 -69q-18 -35 -34 -70q13 0 27 1q49 2 100 4q197 8 393 14zM232 559l2 1h1
q25 11 45 29q10 8 18 17q6 8 9 16l1 3q2 4 0 8q0 2 -1 2h-2q-4 0 -9 -3t-9 -6q-10 -8 -20 -19q-3 -2 -5 -5q-1 0 -1 -1l-2 -2v-1h-1q-1 -2 -2 -3l-4 -4q0 -1 -2 -2v-1l-1 -1l-1 -2l-3 -3q-2 -3 -3 -6q-4 -5 -7 -10zM706 866l3 7l7 14q-8 -11 -16 -21h6z" />
    <glyph glyph-name="ett" unicode="ett" horiz-adv-x="570" 
d="M782 822q-68 -151 -125 -302q-25 -65 -48 -130q-32 -86 -61 -173q-1 -4 -5 -5q-2 -1 -3 -1q-2 0 -3.5 1t-0.5 5q28 85 57 170l21 58q42 116 87 232q-29 -54 -67 -107q-19 -29 -42 -56.5t-52 -49.5q-26 -21 -52 -21h-5q-23 5 -30 27q-8 23 -5 50q2 31 10 64q11 47 29 96
q6 18 14 36q25 65 53 130h-9q-1 -2 -3 -5q-6 -12 -14 -24q-57 -105 -128 -206q-18 -27 -41 -53q-20 -25 -43 -48q-22 -21 -50 -34q-14 -7 -26 -7q-11 0 -21 6q-17 13 -19 37q-2 26 6 54l3 10q19 50 62 93q10 10 23 17q10 6 20 6h5q13 -3 10 -15l-2 -10q-3 -7 -7 -14
q-27 -52 -81 -83q-2 -1 -4 -1h-1q-7 -24 -7 -48q0 -8 3 -16.5t9 -13.5q7 -4 14 -4q11 0 24 8q25 13 44 34q22 22 41 46q40 48 73 100q32 51 63 104q19 33 38 67q-12 -1 -25 -1q-27 -1 -52 -1q-39 -1 -80 -3q-19 -1 -39 -3l-14 -2q-13 -2 -27 -2q-6 0 -9 4t0 10q2 6 7 9.5
t12 4.5q15 0 29 -2l13 -2l44 -2h88q27 1 54 1h6q1 3 3 6l17 30q28 49 55 98l1 3q16 34 33 69l2 7q15 33 35 64q4 5 8 6h3q2 0 5 -1.5t2 -7.5l-7 -17l-7 -16q-20 -45 -41 -90l-67 -150q95 2 190 6q11 26 22 53q0 1 1 2q7 18 16 36l2 6q7 17 17 34q3 5 8 7q4 2 7 2h2q5 0 7 -4
t0 -9l-4 -11q-4 -11 -9 -22l-4 -9l-14 -32q-3 -5 -5 -10l-19 -42q156 5 312 15q3 0 3 -3v-2q0 -1 -1.5 -3t-4.5 -2q-90 -5 -180 -9q-67 -4 -134 -7q-3 -5 -5 -10zM252 611q-8 -14 -14 -30q11 7 21 15q22 17 37 39q8 11 14 22v2q3 4 5 10t-1 8h-4q-4 -2 -9 -5q-10 -7 -18 -17
q-18 -21 -31 -44zM559 858q11 25 22 51l-6 -10q-12 -21 -23 -41h7zM766 841l3 7q2 3 2 5q-78 -3 -155 -5q-11 -1 -21 -1h-15l-4 -8q-2 -6 -5 -11q-29 -66 -55 -132q-8 -19 -15 -39q-16 -43 -25 -86q-7 -32 -8 -62q-2 -23 7 -41q7 -12 21 -12q8 0 17 4q30 15 54 40
q48 53 85 112q39 61 71 124q3 7 7 15l2 4z" />
    <glyph glyph-name="ex" unicode="ex" horiz-adv-x="549" 
d="M761 576q1 1 3 1q1 0 2.5 -0.5t2.5 -2.5v-1q-1 -2 -3 -4q-44 -41 -96 -71q-46 -27 -93 -39q-25 -7 -48 -7q-21 0 -40 6q-13 6 -22 16l-3 -2l-4 -4q-27 -28 -52 -57q-26 -31 -50 -63q-4 -4 -8 -5h-2q-3 0 -4 2q-2 2 -1 5l1 2q25 39 60 73q26 29 55 56q-10 15 -16 33t-6 39
q1 3 1 5l1 2q-60 -57 -130 -99q-35 -22 -72 -36q-36 -15 -69 -15h-4q-36 6 -38 41q1 16 7 32q7 21 24 42q25 33 60 57q17 13 35 20q4 1 6 1q5 0 8.5 -3t2.5 -11l-1 -5q-2 -5 -6.5 -11t-10.5 -13q-13 -15 -27 -27q-30 -24 -63 -41l-1 -4q-3 -5 -5 -10q-8 -23 1 -41
q8 -9 21 -10h8q11 0 21 2q66 16 127 59q60 39 109 89l2 7q3 7 7 14q2 5 7 6q2 1 4 1t4.5 -1.5t3.5 -5.5q0 -3 -1 -7q0 -7 -1 -15q-1 -11 -2 -21q0 -20 3 -38q3 -11 8 -20q21 19 43 36q61 48 129 76h2q1 0 2 -1t0.5 -3.5t-3.5 -3.5q-37 -14 -72 -36q-52 -32 -96 -76
q10 -14 29 -20q14 -3 29 -3q25 0 54 9q45 14 87 41t80 60zM198 544q-15 -17 -28 -37q27 16 52 36q14 13 25 27l1 1q6 6 9 14q2 5 -2 5q-1 0 -4 -1q-6 -3 -12 -8l-2 -2q-7 -5 -14 -11q-13 -11 -25 -24z" />
    <glyph glyph-name="ey" unicode="ey" horiz-adv-x="666" 
d="M878 566q-19 -8 -37 -16q-100 -47 -191 -114q-15 -77 -40 -154q-8 -25 -17 -49q-20 -55 -54 -122.5t-104 -132.5q-18 -16 -36.5 -27.5t-38.5 -11.5q-35 1 -48 27q-13 30 -1 70q4 12 8 25q10 28 26 56q45 83 111 156q58 65 125 121q17 15 35 29q7 35 13 72q6 41 9 81
q1 6 1 12l2 28q1 4 1 7v3q-23 -36 -51 -70q-17 -22 -35 -42q-17 -20 -38 -38q-18 -17 -40 -21h-4q-22 0 -23 22q0 10 3 21q3 12 6 25q9 24 21 48q5 9 10 17q-54 -51 -112 -96q-40 -31 -83 -56q-45 -29 -92 -39q-6 -1 -13 -1q-13 0 -28 4.5t-22 20.5q-7 18 -2 41q2 10 6 20
q5 13 12 26q21 42 59 75q10 8 20 15q1 0 1 1h1q4 4 10 7q4 2 9 3l1 1q8 2 14 2h8.5t7.5 -9q3 -6 0 -14q-1 -2 -5 -8.5t-11 -15.5q-14 -18 -32 -34q-29 -27 -63 -46q-3 -8 -5 -16l-1 -3q-1 -2 -1 -4q-2 -5 -1 -9q-1 -5 -1 -8v-7h1v-1q1 0 1 -0.5t-1 -1.5h1q1 -2 1 -3
q3 -2 3 -5q2 -1 5.5 -3t5.5 -4q11 -4 23 -4q21 0 47 12q39 18 78 44q38 24 73 53q70 57 130 124q3 3 5 3q3 2 7 4q2 1 4 1t4 -1.5t0 -6.5l-1 -4q-1 -4 -4 -8q-2 -3 -3 -6l-5 -6q-7 -11 -13 -21q-15 -23 -25 -44t-17 -41q-3 -11 -7 -21l-1 -4q-3 -7 -2 -13q1 -4 5 -6
q2 -1 4 -1q4 0 8 2q10 4 17 10.5t15 14.5q2 1 3 3q68 69 115 148q0 2 1 5l1 2q1 4 4.5 6.5t7.5 2.5t6 -4l-1 -1q3 -9 3 -19l1 -1q0 -8 1 -17q1 -41 -4 -84q-3 -43 -11 -86l-1 -3q-1 -2 0 -3q106 77 223 126q2 1 3 1q2 0 3 -1.5t0.5 -4.5t-4.5 -5zM184 504l-1 -3q10 6 19 13
q19 13 36 30q17 16 30 35q1 2 4 5l1 3q1 2 1.5 4t-0.5 4l-3 1l-10 -3q-13 -8 -23 -19q-3 -2 -5 -4l-15 -16q-5 -6 -8 -11q-2 -2 -4 -5q-12 -16 -22 -34zM537 170q14 34 26 67q18 47 30 94q12 39 19 77l-50 -42q-64 -58 -119 -123q-63 -74 -101 -155q-6 -13 -11 -26
q-8 -23 -13.5 -54t20.5 -49q10 -6 21 -6q18 0 38 15q17 13 31 29q15 16 28 33q52 68 81 140z" />
    <glyph glyph-name="ez" unicode="e&#x7a;" horiz-adv-x="617" 
d="M276 581q-21 -21 -48 -33v-1q-1 -6 -1 -12q-1 -1 0 -1l-1 -3h1v1q-1 -1 0 -1v-6v-1h1l-1 -1q1 -1 1 -3v-3h1q1 -2 2 -3.5t4 -2.5q5 -2 11 -2q5 0 11 1q28 8 54 22t50 32q25 18 47 38t42 43q18 24 33 48q3 4 5.5 5t6.5 1l14 -2h8q10 -2 20 -2q40 0 81 12q29 8 57 24
q1 1 2 1q2 2 5 3q4 3 9 6t9 6q3 2 5 2h3q2 -1 2 -4q1 -1 0 -3q0 -1 -2 -3q-6 -5 -10 -10l-9 -9l-18 -16q-9 -10 -20 -19l-16 -14q-101 -93 -191 -195h1q2 2 4 3q32 16 61 16q6 0 12 -1q35 -5 64 -19h1q24 -11 53 -16q6 -1 11 -1q26 0 52 15q3 1 5 1q1 0 2 -0.5t2 -2.5v-3
q-1 -1 -1.5 -3t-4.5 -4q-32 -18 -64 -18h-7q-30 3 -56 13q-4 1 -8 3q-26 11 -56 14h-7q-29 0 -58 -15q-33 -18 -59 -44q-5 -4 -10 -4h-4q-2 2 -3 5v5l2 2q30 41 62 80q56 68 122 130q33 32 69 62q1 0 1 1l3 2q-33 -14 -65 -19q-18 -3 -36 -3h-8q-11 1 -21 3q-6 1 -12 3
q-20 -27 -43 -52q-26 -29 -57 -54q-26 -23 -56 -41q-29 -19 -60 -34q-18 -8 -35 -12q-6 -1 -11 -1q-12 0 -21 5q-12 9 -14 24t3 32l4 10q10 27 33 51q11 13 30 25q10 6 19 6q6 0 12 -3q11 -9 5 -25q-8 -17 -24 -31zM232 559q22 13 40 33q6 6 10 13q2 2 2 4q2 4 0 8
q-1 3 -3 3q-1 0 -4 -2t-6 -5l-3 -3v-1l-2 -1q-1 -2 -3 -3q-3 -2 -5 -5q-2 -2 -4 -5l-2 -2l-1 -1q-8 -12 -14 -24q-1 -1 -2 -1z" />
    <glyph glyph-name="ff" unicode="ff" horiz-adv-x="473" 
d="M628 504q-93 -83 -203 -122l-1 -2q-1 -1 -2 -3q-25 -52 -50 -105q6 -90 -17 -188q-8 -34 -19 -68q-4 -13 -9 -27q-7 -20 -17 -40q-5 -13 -16 -25t-26 -13q-16 0 -19.5 13.5t0.5 27.5q8 73 32 147l13 38q21 56 46 112q9 20 17 39q-4 40 -13 77v3q1 2 2.5 4t4.5 3
q26 4 52 12q2 4 3 7t4 6q36 78 73 156l76 156q1 3 4 7q0 2 3 5q-4 -3 -6 -6q-6 -9 -12 -17q-106 -134 -236 -248q-49 -43 -102.5 -81.5t-110.5 -63.5l5 -5q19 -19 19 -50q1 -34 -5 -69q-6 -39 -16 -78q-10 -38 -24 -76t-37 -75q-5 -8 -11.5 -15.5t-14.5 -12.5q-10 -7 -19 -7
q-5 0 -9 2q-11 6 -14 19t-1 27q17 133 67 271l3 8q8 23 18 46q-16 -5 -32 -8h-2q-5 0 -6 4v4q2 3 5 6q13 10 29 14q8 2 15 2q45 107 108 211q42 69 91 135q47 67 107 129q4 4 11 6h3q4 0 6 -1q4 -4 3 -9l-1 -3q-1 -4 -4 -7l-5 -6q-9 -12 -19 -24q-26 -29 -50 -60
q-3 -3 -6.5 -7.5t-6.5 -7.5q0 -1 -2 -2v-1l-2 -2v-1l-1 -1l-5 -6l-24 -32q-45 -61 -85 -126q-54 -87 -94 -176q49 23 94 54q139 95 256 217q83 89 152 187l1 4q1 2 3 4q9 20 19 39q2 4 3 7l7 14q5 6 9 13q2 2 4 5q4 6 9 7q3 1 5 1t4.5 -2.5t1.5 -8.5l-7 -19l-6 -12l-2 -5
q-41 -81 -81 -161l-69 -140q-32 -66 -64 -131q147 55 251 178q4 4 7 3.5t5 -2.5q0 -1 -1 -3q0 -2 -2 -4q-29 -35 -64 -65zM106 260q-3 26 -25 37q-13 -30 -23 -59l-4 -9q-46 -128 -64 -254q-2 -13 0 -25q1 -5 3 -9t8 -5q5 0 10 4.5t9 9.5q13 16 21 33q16 30 27 61l4 10
q12 37 20 73q9 37 12 72q5 32 2 61zM369 313l28 60q-19 -5 -38 -9v-1l5 -20zM349 120q12 64 11 125q-1 -3 -3 -6l-3 -7q-25 -55 -45 -111q-6 -16 -21 -60t-22 -113q-1 -5 -0.5 -11t3.5 -9q1 -1 3 -1t5 1t7 5q9 10 14 23l14 32l3 10q23 61 34 122z" />
    <glyph glyph-name="fi" unicode="fi" horiz-adv-x="346" 
d="M555 575q2 3 5 3q2 0 3 -3q1 -1 0 -3l-1 -2q-40 -50 -85 -95q-20 -20 -41 -38l-3 -3q-18 -17 -38 -31q-22 -15 -44 -19h-4q-18 0 -26 15q-7 17 -2 39q5 25 14 50q4 13 12 26q-3 -3 -6 -5q-4 -3 -7 -6l-20 -16q-24 -20 -49 -40q-36 -27 -73 -51q-50 -32 -101 -58
q-15 -29 -28 -59q1 -16 0 -33q-7 -101 -34 -206q-15 -53 -33 -105l-2 -6q-8 -22 -17 -44q-8 -22 -28 -37q-3 -1 -6 -1h-2q-1 0 -2 1q-4 9 -6 18q-7 37 1 80q9 45 22 90q16 61 39 122q12 34 26 68q13 29 27 59q-3 17 -15 28q-2 2 -1 6q1 3 5 5q19 9 38 19q18 35 37 70
q50 93 113 183q30 45 65 89q17 21 36 42l2 2q9 10 17 18q10 9 20 17q0 1 2 2q4 3 8.5 3.5t6.5 -2.5t2 -7l-1 -3q-1 -2 -3 -4q-5 -6 -10 -11t-8 -9q-74 -80 -133 -167q-62 -88 -112 -179q-7 -14 -14 -27q-2 -2 -2 -4q3 2 7 3l15 8q75 42 144 94q34 26 66 56q17 15 31 31
q4 3 7 7l3 2v2q10 12 22 23l-1 -1q7 6 13 6h2q4 -2 4 -6v-5l-1 -3q-3 -5 -6 -9q-4 -7 -9 -15q-9 -12 -15 -24q-7 -12 -12 -22q-6 -12 -11 -25q-5 -10 -9 -21t-7 -22q-1 -7 -2 -15.5t2 -15.5q3 -5 10 -5h5.5t14.5 4q20 9 37 24q82 67 146 148zM55 306l2 4q4 8 8 15
q-8 -4 -17 -7q5 -6 7 -12zM35 152q9 48 11 95l-18 -44q-13 -31 -24 -61q-22 -62 -39 -123v-3q-11 -39 -18 -78.5t1 -72.5q6 7 11 15.5t8 16.5l20 56q34 101 48 199zM439 633q-1 -1 -3 -1t-5 2t-2 6q0 4 1 7l4 8q5 8 14 16q8 7 15 7q3 0 6 -1q5 -2 6 -7q0 -4 -1 -7l-2 -4
q-8 -10 -18 -18q-6 -6 -15 -8z" />
    <glyph glyph-name="fo" unicode="fo" horiz-adv-x="297" 
d="M325 491q2 18 8 35q7 15 15 30q-12 -9 -24 -17q-9 -7 -19 -15q-5 -3 -10 -7q-14 -11 -29 -22q-29 -22 -59 -42q-43 -28 -87 -52q-17 -31 -33 -62q-1 -24 -4 -47q-9 -88 -33 -179q-11 -44 -27 -89l-3 -7q-13 -37 -44 -68q-3 -3 -6 -4h-2q-2 0 -4 1q-21 21 -13 59
q7 40 20 80l1 3q14 48 31 96q30 82 70 163q2 20 2 40v2q0 1 1.5 2.5t3.5 2.5l20 10l4 2q39 72 86 143q24 37 51 74t56 74q5 5 10 6h3q4 0 7 -1q2 -3 3 -8l-1 -2q-1 -4 -5 -8q-32 -38 -62 -77q-29 -39 -56 -80q-35 -53 -66 -108q2 2 5 3l15 8q61 36 118 79q4 2 8 5
q26 18 50 39q6 5 12 11q21 17 41 36q6 6 12 6q2 0 4 -1q3 -2 4 -6q0 -3 -1 -5l-1 -3q-25 -36 -39 -74l-7 -21q-1 -1 0 -1q0 -1 -0.5 -2t0.5 -2l-1 -1q0 -1 1 -1l-1 -2h1v-1h1v-1v0v0v1q0 -1 1 -1q1 -1 3 -1t5 1q15 12 25 29q8 14 13 26l2 6q11 36 -2 64q-1 2 0 4q1 1 2.5 3
t4.5 3h1q2 0 3 -2q12 -27 4 -62q-2 -10 -5 -21q-8 -20 -22 -40q-10 -14 -26 -25q-9 -7 -17 -7q-7 0 -12 4q-9 9 -7 24zM88 386v-9v-1q1 1 2 3q2 5 5 10q-1 -1 -3 -1zM13 38q46 136 58 267q-18 -38 -34 -76q-10 -25 -19 -50q-18 -50 -32 -100l-2 -5q-10 -33 -16 -66
q-5 -25 5 -44q24 29 36 62z" />
    <glyph glyph-name="gh" unicode="gh" horiz-adv-x="531" 
d="M143 484q-2 -1 -3 -1q-3 0 -5 3t0 8l2 8q6 17 20 33q29 34 70 50q20 9 40 9h13l1 -1l3 3l2 4q6 6 11 6q6 0 6 -6v-14q1 -15 -1 -30l1 -4l-1 -3q21 23 42 45q69 71 139 139q9 10 20 20q60 59 118 118q54 55 105 113q2 1 2 3q2 1 3 3q12 15 24 29q12 16 29 27q3 2 6 2
q1 0 3 -1t3 -4l-1 -2l-1 -3q-8 -10 -17 -20l-11 -12q-13 -16 -24 -32q-26 -34 -49 -69q-82 -123 -143 -252q-31 -64 -54 -129q-8 -21 -15 -43q3 5 6 9q3 5 7 11q4 5 7 10h1q5 8 10 15q13 13 26 13q5 0 9 -2q13 -7 21 -18l3 -2q8 -11 20 -19q7 -3 16 -3t24 5t32 16
q41 26 76 59q4 3 7 2.5t4 -2.5v-2q-1 -2 -3 -4q-38 -36 -83 -65q-19 -12 -39 -21q-18 -7 -35 -7h-4q-17 3 -28 13l-12 14l-8 8q-1 1 -1 3q-3 4 -8 6h-2q-1 0 -3.5 -1.5t-5.5 -3.5q-15 -16 -26 -35q-1 -1 -2 -1q-14 -22 -24 -44q-6 -21 -12 -41q-1 -3 -4 -5t-5 -2q-5 0 -6 4
q-2 1 -1 5l7 19q16 63 39 127l4 9q46 126 118 251q32 55 69 109q-82 -83 -165 -164l-45 -45q-84 -82 -164 -168q-7 -82 -30 -166q-12 -50 -31 -100q-15 -42 -34 -83q-20 -44 -51 -85q-30 -42 -74 -69q-18 -10 -36 -10h-3q-19 3 -25 20q-5 17 -2 37q2 22 7 44q6 21 14 43
q25 68 69 135q51 78 112 152q28 33 57 66l1 10q3 20 7 41h-5q-23 -22 -48 -40q-42 -29 -86 -45zM254 413q10 44 17 87q-32 -36 -62 -73q-57 -72 -103 -147q-34 -54 -54 -109q-12 -33 -19 -66q-3 -21 -2 -40q0 -8 3 -15t11 -9q4 -1 7 -1q12 0 28 11t28 24q61 74 91 154l10 29
q29 78 45 155zM180 527q-10 -9 -17 -19q31 9 60 29q20 14 35 30h-4q-1 -1 -2 -1q-5 -1 -11 -3q-2 0 -4 -1q-1 0 -3 -1l2 1l-4 -2h-1h1q-2 0 -4 -1l-4 -2q-6 -3 -11 -5l-4 -3h-1q-1 -1 -2 -1l-1 -1q-5 -3 -10 -7l-9 -6v-1l-3 -2z" />
    <glyph glyph-name="ght" unicode="ght" horiz-adv-x="691" 
d="M1230 836q-11 -1 -23 -1q-4 -1 -7 -1q-15 0 -32 -1l-60 -4q-99 -7 -197 -16q-65 -144 -122 -288q-29 -76 -57 -151q-34 -95 -66 -190q-2 -4 -6 -6q-3 -1 -4 -1q-2 0 -4 1.5t-2 5.5q31 97 66 193q62 170 132 340l40 94h-3q-2 0 -4 -1h-3q-51 -76 -108 -150l-2 -4
q-29 -39 -62 -76q-31 -37 -71 -63q-18 -12 -38 -19q-19 -6 -37 -8h-16q-8 1 -17 3q-15 6 -24 19q-5 11 -6 23q-1 4 -2 7v1v1q-1 0 -1 1q-1 0 -1 1v1h-1v-1q-4 -1 -8.5 -4t-7.5 -6q-32 -29 -57 -62l-3 -8q-3 -6 -4 -12q-1 -4 -6 -7.5t-10 -3.5t-6 3.5t-1 7.5q15 61 37 123
q37 103 91 204q-21 -27 -43 -55l-14 -18q-74 -93 -144 -189q-2 -54 -13 -110q-11 -72 -38 -145q-14 -35 -35 -69q-11 -17 -24 -34q-13 -16 -29 -29q-15 -12 -33 -13q-17 0 -22 12q-10 28 0 62q4 16 10 32q8 20 18 41q17 35 36 70q38 68 84 134q7 11 15 22l1 2q5 38 11 77
l-3 -3q-12 -9 -22 -18q-18 -13 -37 -26q-18 -11 -36 -21q-9 -5 -19 -9q-4 -1 -7 -1q-6 0 -10 3q-10 9 -4 23q0 2 4.5 11t17.5 22q27 29 63 45q18 8 37 12h2q7 2 14 2h4q1 0 2 -1h5l7 -2q6 -2 4 -8t-7 -10v-2q3 -12 4 -26q-1 -4 0 -7q1 -9 0 -19q69 94 143 186l7 10l7 8
q38 48 74 96q19 33 40 65q16 26 35 52l14 20q2 3 4 5q8 10 16 19q2 3 5 7q4 4 8 4q3 0 5 -2.5t1 -6.5q1 -1 0 -4l-1 -2l-20 -30q-3 -4 -6 -9l-10 -16l-35 -58q-62 -105 -110 -211q-29 -65 -53 -131l-13 -37q9 10 19 20l3 4l15 15q3 3 6 7q5 6 11 11q5 5 11 8l6 2
q1 0 1.5 0.5t1.5 0.5h4q10 0 16 -6q5 -7 7 -16q1 -3 2 -7l1 -3v-1q2 -1 2 -3l2 -3q1 -1 2 -1q-1 -1 0 -1q0 -1 1 -1l-1 -1h1l1 -1h1v-1l2 -2q3 -1 5 -3h2l1 -1q1 0 2 -1l5 -2h2q4 -1 6.5 -1.5t7.5 -0.5q0 -1 2 -1h13q9 2 17 5q19 6 37 18q39 29 69 66q35 41 66 84
q46 61 87 124l-90 -10q-28 -3 -56 -7l-14 -2q-22 -4 -44 -6q-5 0 -6.5 3t-1.5 7q2 5 5.5 9t8.5 4q26 4 52 5q6 0 13 1l60 4q41 4 81 7h2q15 22 29 44q22 36 43 73q4 7 6 13l9 18q9 21 20 42l2 4q9 21 20 41q4 4 9 6h2q2 0 5 -1.5t2 -5.5q1 -1 0 -4l-1 -2q-1 -2 -3 -4l-1 -4
q-6 -13 -13 -27l-3 -8l-22 -48q-23 -48 -44 -96l-11 -24q-2 -7 -6 -14q48 3 96 7l110 6q27 2 55 3l28 2h6q10 1 21 1q3 -1 3 -3t-1 -4t-5 -3zM245 542q31 19 55 45q-1 0 -4 -1q-2 -1 -4 -1l-4 -1h1v1l-1 -1h-3l-9 -2q-8 -2 -16 -5h-1l-1 -1q-3 -1 -4 -1q-3 -2 -8 -4
q-7 -3 -13 -6.5t-11 -7.5l-14 -10q-3 -3 -6 -5l-1 -1v-1q-1 0 -1.5 -0.5t-1.5 -0.5v-1q-6 -5 -11 -11l-1 -1q0 -1 -1 -1l-1 -4q-1 0 -2 -1l-2 -5h1v-2h4q6 1 13 4q2 1 3 1q7 3 15 7q15 8 29 17zM249 302q20 69 30 137l4 32q-1 -2 -3 -5l-9 -12q-42 -64 -78 -130
q-18 -34 -34 -69q-5 -12 -10 -23q-8 -24 -13 -47q-2 -12 -1 -26t11 -19h3q3 0 7 1.5t9 6.5q13 12 23 26q33 45 50 93q7 17 11 35zM895 825q2 6 5 12q4 11 9 21l-4 -6l-6 -10q-4 -5 -7 -11l-5 -6h8z" />
    <glyph glyph-name="gt" unicode="gt" horiz-adv-x="490" 
d="M572 563q43 96 90 192l23 48h-11l-74 -4l-11 -12q-11 -13 -22 -25q-23 -26 -45 -51q-107 -120 -208 -242q7 -66 -5 -138q-6 -47 -24 -96q-8 -24 -20 -48q-21 -44 -52 -86q-29 -42 -70 -71q-21 -13 -42 -16h-5q-17 0 -28 11q-10 14 -8.5 34.5t7.5 39.5q4 14 9 29
q12 32 30 65q24 45 53 89q58 87 127 168l-4 28q-1 16 -4 31q-3 20 -5 40q-2 -1 -2 -2l-3 -3l-24 -22q-24 -22 -50 -41q-23 -17 -48 -31q-12 -6 -24 -6q-13 1 -15 13q0 7 2 14q2 5 6.5 13t12.5 19q16 21 35 39q41 37 89 57q12 5 24.5 9t23.5 4q6 0 11 -1.5t7 -5.5q3 -4 2 -9
l-1 -3q-1 -3 -3 -6q-2 -2 -5 -2h-3q-1 1 -2 1t0 1h-14l-2 -1q-5 -1 -9 -2q-5 -2 -9 -3q-2 -1 -3 -1h-1v-1h-1q-4 -1 -6 -2q-12 -5 -23 -11q-4 -2 -9 -5h-1q0 -1 -0.5 -1t-2.5 -1h-1l-2 -2l-18 -12q-9 -7 -16.5 -13.5t-14.5 -13.5l-16 -16q-4 -4 -7.5 -8t-5.5 -7
q-7 -9 -12 -17q-2 -2 -3 -5t2 -4h2q2 0 6.5 1.5l7.5 2.5l22 12q21 13 41 29q20 15 38 33q9 8 18 17l4 4l3 3q3 6 9 8v1q1 0 2 1t3 1h1q2 0 3 -1t0 -3l2 -3q7 -17 11 -36q5 -24 7 -49q105 123 212 244q29 33 58 65l3 4q1 2 2 3h-3q-77 -3 -154 -7q-39 -1 -79 -4
q-13 -1 -27 -2q-26 -3 -51 -3q-5 0 -7.5 3.5t-0.5 8.5t6.5 8.5t9.5 3.5l21 1l19 -1h4q22 -1 43 -1l86 2q72 2 146 6q122 138 236 281q11 20 24 40q3 5 7 7q3 1 6 1h3q2 -1 3 -3q2 -1 2 -3v-2l-1 -3l-1 -1h-1v-2q-32 -62 -65 -124q-24 -44 -46 -88l-50 -98q11 0 22 1
q12 1 25 1q157 7 313 19q4 0 4 -3q1 -1 0 -3q0 -1 -2 -3.5t-6 -2.5l-115 -8q-30 -1 -60 -3q-94 -6 -187 -11q-66 -133 -127 -266q-86 -190 -161 -382q-3 -6 -9 -8q-2 -1 -4 -1q-3 0 -5.5 1.5t-0.5 7.5l9 24q37 96 76 191q40 96 84 191zM260 234q29 85 27 165q1 19 0 37
q-1 0 -2 -1v-1q-68 -81 -123 -168q-28 -43 -50 -87q-12 -23 -20 -46q-8 -22 -13 -45q-5 -18 -3 -35.5t19 -21.5h5q17 0 34.5 11.5t31.5 28.5q62 73 91 154zM612 813q29 1 57 3q12 0 23 1q31 64 64 129l50 94q-95 -115 -194 -227z" />
    <glyph glyph-name="he" unicode="he" horiz-adv-x="544" 
d="M228 579q-46 -89 -84 -178q-4 -7 -6 -14q-3 -4 -4 -8q59 85 140 154q10 8 19 16l4 3q12 10 23 18q11 6 19 6q3 0 6 -1q11 -3 15 -13l4 -12q4 -12 10 -23q10 -17 27 -26q15 -7 33 -7q7 0 24.5 2t44.5 12q11 4 22 9q2 11 6 22q10 30 37 55q12 11 27 19q8 5 16 6q6 0 12 -2
q12 -5 9 -17q0 -6 -2 -11q-3 -7 -8 -14q-27 -34 -67 -55q1 -2 0 -4v-2q1 -10 7 -15q11 -10 28 -10q7 0 24 4t42 17q53 25 99 66q3 3 6 2.5t5 -2.5l-1 -2q0 -2 -3 -4q-12 -11 -24 -21q-51 -41 -109 -66q-29 -12 -57 -12t-41 20q-4 6 -5 14q-58 -27 -113 -27q-29 0 -48 15
q-16 15 -23 38q-2 6 -2 12q-1 4 -2 9q-2 4 -4 7q-1 1 -3 1t-5 -1q-10 -4 -20 -13l-4 -3l-26 -20q-49 -43 -90 -91q-40 -48 -71 -99q-1 -4 -4 -8l-4 -13q-9 -21 -17 -42q-8 -24 -18 -48q-3 -5 -7 -7h-3q-2 0 -4.5 1t-1.5 6l11 31q11 30 23 61q3 5 5 11q20 50 43 100
q79 179 182 355q51 87 106 174q28 43 57 85q3 5 7 11q25 39 58 76q5 6 11 6t9 -4q1 -3 0 -7l-2 -4q-13 -20 -27 -40q-3 -4 -6 -9q-9 -11 -18 -23q-8 -11 -16 -23q-35 -47 -67 -95q-114 -171 -204 -348zM563 548q-2 -3 -3 -6q-1 -4 -2 -9q20 12 39 29q10 10 19 22l2 5
q1 3 1.5 7t-3.5 7l-1 1q-1 0 -2.5 -1t-3.5 -2t-3 -1l-11 -8q-8 -8 -15 -18q-9 -11 -15 -23z" />
    <glyph glyph-name="ht" unicode="ht" horiz-adv-x="500" 
d="M262 652q-34 -76 -63 -153l-9 -23q53 82 129 149q10 9 22 16q10 5 19 5h3q12 -2 15 -12q1 -6 -1 -13q-1 -2 0 -4q-1 -5 -2 -11q-8 -26 -12 -53l-3 -26v-5l1 -1l-1 -1l1 -1l1 -8v-1h1l-1 -1h1q1 -1 1 -2l1 -2q1 -1 2 -3h2v-1h6l1 -1q5 1 12 3q13 4 25 12.5t23 17.5
q47 42 88 90q85 98 159 202q12 17 24 35q-5 -1 -11 -1q-8 -1 -16 -1q-4 -1 -7 -1l-88 -6q-17 -2 -33 -3l-15 -2q-6 0 -13 -1q-6 -1 -12 -1q-1 0 -2 -1h-12t-9 3q-4 3 -2 8t8 9q5 3 12 3l6 1l6 -1h15q7 -1 15 -1q25 -1 51 -1q56 1 113 5q2 2 3 4q3 4 5 7l34 72q3 3 4 7
q20 42 45 83q5 7 11 9h3q4 0 8 -2t2 -9q1 -2 0 -5l-5 -8q-1 -3 -3 -5q-13 -29 -27 -58q-7 -12 -12 -23l-33 -70q20 1 40 3l95 8l48 6q8 0 16 1q16 3 32 4q3 0 3 -2v-2q0 -1 -1 -3t-4 -2q-20 -3 -40 -5q-6 0 -13 -1q-28 -3 -53 -5q-63 -6 -127 -11l-3 -7q-3 -7 -7 -13
q-80 -175 -148 -351q-23 -59 -45 -118q-43 -118 -80 -236q-2 -4 -5.5 -6.5t-6.5 -2.5q-4 0 -6 2.5t0 6.5q27 99 59 199q21 62 44 125q41 114 90 228q30 73 64 146q0 -1 -2 -2q-11 -18 -25 -36q-74 -103 -160 -201q-39 -47 -87 -88q-23 -20 -51 -31q-8 -2 -15 -2q-6 0 -15 2
t-14 12q-8 20 -3 45q4 29 12 58l2 3q1 6 3 12q1 3 3 6l2 4l1 1v1q1 3 2 5.5t1 4.5v1h-1.5t0.5 1q-5 0 -11 -3t-11 -6q-10 -8 -19 -17l-3 -2q-45 -42 -80 -90t-61 -98l-26 -71q-2 -5 -6 -7q-2 -1 -4 -1t-4.5 1.5t-1.5 6.5q19 62 42 124q9 25 19 50q58 156 140 310
q42 76 90 150q24 37 51 73q14 18 29 37q2 2 4 5q12 16 26 31q8 7 16 7q3 0 5 -1q4 -3 4 -8q1 -2 0 -6l-2 -4q-8 -11 -17 -22l-1 -1q-3 -5 -7 -9q-3 -3 -5 -7l-1 -1h-1q-8 -11 -15 -20l-15 -20q-30 -40 -59 -81q-99 -146 -167 -299z" />
    <glyph glyph-name="ia" unicode="ia" horiz-adv-x="509" 
d="M392 472q-15 -11 -28 -11q-3 0 -6 1q-11 3 -10 12q-1 8 3 17l2 5q-41 -29 -84 -52q-33 -18 -61 -18q-12 0 -23 3q-18 7 -22 27q-3 20 6 43l2 7q8 23 25 52q1 2 2 3q3 6 7 11.5t10 9.5t12 4q1 0 5.5 -1t4.5 -9l-1 -3q-1 -4 -6 -7l-1 -3q-2 -2 -2 -3q-3 -5 -4 -9
q-3 -3 -3 -5q-8 -17 -13 -27l-9 -24q-2 -5 -2 -9v-1q-1 -3 -1 -4v0l-1 1v-3l-1 -10v-2v-1q1 0 0.5 -0.5t-0.5 -1.5q0 -4 1.5 -6.5t3.5 -4.5q8 -9 23 -9h3q17 0 35 8t36 19q35 21 69 45l6 10q25 35 63 58q10 6 19 8q4 1 7 1q6 0 11 -3q6 -3 6 -10q0 -3 -1 -6q-1 -4 -5 -9
q-2 -2 -5 -2q-2 0 -2 2q-1 2 -2.5 2.5t-2.5 0.5h-4l-2 -1h-1v-1h-1q-1 -1 -2 -1q-2 -1 -4 -3t-5 -4l-3 -2q-4 -3 -7 -6l-3 -2v-1h-1q-11 -10 -21 -21q-2 -4 -5 -7l-1 -2q-1 0 -1 -1l-9 -12q0 -2 -2 -4q-2 -4 -5 -9q-2 -2 -4 -5l-2 -5q0 -1 1 -1q5 0 9 2q11 5 22 13l4 3
q14 10 27 20q21 19 41 40q7 17 24 28q3 2 6 2q1 0 4 -1.5t2 -6.5q0 -7 -3 -15l-7 -19q1 0 0 -1v-2q-1 -2 -1 -4l-1 -8l1 -1l-1 -2l1 -2q0 -3 1 -6q1 -4 2 -7h1l-1 -1l2 -2q2 -5 5 -9l8 -8q4 -3 11 -4q9 -2 19 -2q19 0 42 9q33 13 65 34q16 10 30 21q8 7 15 13l15 12q1 1 3 1
h1q2 -1 2 -3v-2l-2 -2q-16 -16 -35 -30q-20 -14 -39 -26q-34 -22 -72 -36q-23 -9 -44 -9q-13 0 -25 4q-32 9 -37 40q-2 12 1 26q-23 -24 -48 -44q-16 -12 -32 -23zM251 608h-1l-1 -1q-1 0 -2 -1t-2 -1l-1 -1q-3 -2 -6 -2q-2 0 -5 1.5t-1 7.5v3l2 5q4 7 9 13q9 11 22 18
q4 2 8 2q2 0 5 -1t5 -5q2 -5 0 -10q-2 -6 -9 -11z" />
    <glyph glyph-name="ic" unicode="ic" horiz-adv-x="393" 
d="M602 575q3 3 6 3t4 -3q1 -1 1 -2q-1 -2 -3 -4q-60 -64 -132 -115q-31 -25 -66 -36q-6 -1 -12 -1q-22 0 -33 18q-9 22 -3 50q3 21 11 43q4 11 9 22q-1 -1 -2 -3l-3 -2q-42 -40 -88 -73q-23 -17 -48 -31q-26 -16 -53 -20h-7q-21 0 -31 15q-11 20 -3 47q2 8 5 16q6 18 17 35
q8 13 19 26t25 20q4 2 6 2q3 0 5.5 -2.5t0.5 -8.5q-3 -7 -7 -14q-2 -1 -2 -3q-4 -4 -7 -9v-1q-8 -11 -15 -23l-3 -6q-1 0 -1 -1l-1 -4q-4 -6 -6 -12q-4 -13 -8 -25q0 -1 1 -1l-1 -2q-1 -3 -1 -6q-1 -2 -1 -4.5v-3.5q0 -7 7 -12q8 -5 17 -5t19 4q25 9 47 24q22 14 44 30
q47 35 88 76q11 21 26 41q22 31 52 53q15 11 31 15q5 1 9 1q13 0 20 -7q10 -10 9 -25q0 -3 -1 -6l-2 -6q-3 -3 -4 -6q-4 -6 -10 -10q-4 -2 -6 -2q-3 0 -3 3q-1 1 -1 3q-1 3 -1 6v1h1l-1 3h-1v1q1 1 0 1q0 3 -1 5l-1 2v1l-3 5h-1q0 1 -1 1q0 1 -1 1h-1q-1 0 -1 1h-9
q-3 -1 -5 -1.5t-5 -2.5q-9 -5 -16 -12l-1 -1q-15 -16 -29 -31q-30 -41 -47 -84l-2 -7q-9 -23 -11 -46q-3 -22 10 -35q7 -5 16 -5q4 0 13 2t23 10q30 17 58 39q56 43 102 94zM228 619q-2 -1 -3 -1q-2 0 -3.5 1t-1.5 4q-1 2 0 3l2 4h1l2 5q4 6 10 11q7 6 17 7q5 0 7 -4t0 -9
q-3 -8 -11 -13q-7 -5 -13 -6q-2 -1 -5 -1q-1 -1 -2 -1z" />
    <glyph glyph-name="id" unicode="id" horiz-adv-x="538" 
d="M632 568q48 102 101 202q37 72 77 143q-78 -115 -164 -226q-57 -75 -119 -147q-24 -30 -53 -56.5t-65 -38.5q-2 -1 -4 -1q-3 0 -5.5 2.5t-2.5 6.5q0 19 7 39q3 8 7 16q6 11 13 22q-21 -15 -41 -29q-49 -33 -100 -55q-23 -11 -48 -17q-10 -2 -20 -2q-13 0 -24 4
q-36 19 -24 66q2 9 5 17q6 17 16 34q8 13 19 25q8 13 22 22q4 2 8 2q3 0 5 -1q3 -2 1 -8l-1 -3q-5 -9 -11 -17q-4 -4 -8 -9q-8 -12 -14 -24q-10 -16 -15 -32q-3 -6 -5 -13q-4 -17 1 -32q7 -15 26 -16h8q17 0 38.5 7.5t43.5 18.5q74 37 141 89q19 20 43 35q12 7 24 11
q8 2 15 2q5 0 10 -1q10 -2 12 -12q0 -3 1 -5q114 135 212 276q54 76 104 152q7 10 14 21q5 7 9 13l5 8q3 6 7 12q15 24 31 49q9 13 17 25q8 11 16 23q3 4 7 4h2q2 0 3.5 -1.5t-0.5 -6.5l-15 -24q-3 -5 -4 -10q-5 -8 -9 -15q-7 -12 -15 -25q-15 -24 -29 -49q-10 -17 -20 -35
q-19 -32 -37 -64q-56 -100 -109 -200q-51 -99 -97 -199q-47 -101 -89 -201q-43 -102 -80 -203q-2 -6 -8 -8q-2 -1 -5 -1q-2 0 -4.5 1.5t-0.5 7.5l5 14q1 6 3 12q37 101 78 202q42 102 89 203zM476 505q31 29 58 62l2 1q-4 0 -7 2q-2 3 -1 7l2 3h-4v1h-9l-1 -1h-2
q-19 -8 -35 -22q-4 -3 -7 -6l-8 -8l-10 -12l-2 -1v-2q-7 -8 -13 -18l-2 -4l-2 -3q-2 -5 -4 -9l-5 -14q1 -1 0 -3q-1 -3 -1 -5v-1q10 3 20 9q17 10 31 24zM267 648q-2 -2 -5 -2h-3t-2.5 2.5t0.5 6.5q2 1 2 3l2 6q2 4 4 7q5 11 17 16q4 2 8 2q3 0 6 -2.5t1 -10.5l-1 -2
q-3 -9 -12 -15l-3 -2q0 -1 -2 -2q-2 -2 -6 -3l-1 -1q-2 -1 -5 -3z" />
    <glyph glyph-name="idd" unicode="idd" horiz-adv-x="762" 
d="M727 131q-2 -5 -6 -7q-3 -1 -6 -1q-1 0 -3.5 0.5t-1.5 5.5q21 97 52 196q23 75 51 150q35 98 78 196l26 58q-13 -23 -27 -46q-28 -43 -57 -85q7 -4 7 -14l-1 -2q-1 -3 -4 -5t-5 -2t-3 1t-3 1h-2q-1 0 -1 1h-3l-28 -38q-14 -16 -29 -32l-3 -3l-5 -5q0 -1 -2 -3l-4 -4
q-7 -8 -18 -12h-4q-9 0 -14 6q-3 7 -1 17l2 3q0 1 1 1q-3 -2 -6 -5q-11 -10 -21 -19l-44 -38q-2 -1 -4 -3q-19 -16 -37 -29q-19 -13 -40 -17q-5 -1 -10 -1q-14 0 -22 9q-9 12 -9 29t3 34q11 56 32 112q12 33 27 67l20 46q-13 -20 -27 -39q-37 -51 -79 -99q-37 -45 -88 -72
q-4 -2 -7 -2q-2 0 -5 1.5t-3 7.5q1 18 7 36q6 16 17 33l-48 -34q-52 -35 -106 -67q-25 -15 -50 -20q-5 -1 -10 -1q-20 0 -32 13q-12 17 -5 43q3 8 6 17q6 16 14 32q14 26 35 50q5 6 10 9.5t12 4.5q5 0 7 -3q2 -2 1 -5q-1 -2 -3 -4q-3 -4 -6 -4l-1 -1q-1 -1 -1 -2
q-2 -3 -5 -7q-2 -3 -3 -5q-7 -13 -15 -25q-10 -18 -17 -37l-3 -10q-2 -5 -3 -10v-2q0 -2 -1 -4v-9l-1 -2h1v-3q1 -4 2 -6.5t4 -4.5q5 -5 14 -6q20 0 41 12q21 10 40 22q3 2 5 3q71 43 138 92q31 37 74 56q4 1 7 1q5 0 8 -4q4 -6 0 -15t-14 -12h-1q-1 0 -2 1h-1l-7 -5
q-1 0 -2 -1q-10 -6 -19 -14q0 -1 -1 -1l-1 -1l-1 -1l-2 -2q-5 -4 -8 -8q-5 -4 -9 -9q-1 -2 -3 -3v-1q0 -1 -2 -2v-1l-1 -1l-1 -2l-4 -4q-2 -5 -6 -9l-6 -10l-1 -3q0 -1 -1 -1l-1 -3q-5 -11 -9 -21l10 4q13 8 23 18q25 22 46 47q74 85 130 177q18 38 36 75q22 45 47 90
q11 23 25 45q13 22 30 44q2 3 5 3t5 -2t1 -5l-4 -12q-7 -18 -16 -37t-19 -38q-3 -5 -5 -10q-6 -11 -11 -22q-18 -37 -37 -75q-41 -86 -81 -173q-22 -45 -38 -89q-15 -40 -24 -80l-1 -1q-3 -14 -3.5 -28.5t9.5 -22.5q6 -4 13 -4q8 0 22.5 7.5t29.5 19.5q60 46 115 99
q24 34 60 54q16 8 31 8q46 65 87 132q33 55 64 110l1 2q21 43 45 86l23 42l11 18q5 9 10 19q2 3 5 4v1q4 4 8 5l4 1q2 0 4 -1.5t0 -6.5q-9 -22 -21 -44q-1 -3 -3 -5q-8 -17 -18 -34q-3 -8 -7 -15q-24 -47 -47 -94q-83 -171 -149 -344l-8 -22q-59 -162 -104 -324zM772 540
q15 16 27 32q-2 -1 -4 -3h-1q0 -1 -1 -1q-2 -2 -4 -3q-3 -2 -6 -5l-2 -1q0 -1 -1 -1l-3 -3q-3 -3 -6 -7l-11 -12q0 -1 -0.5 -1t-0.5 -1l-1 -1q-6 -7 -11 -16q-1 -2 -3 -4v0h1q15 13 27 27zM266 646l-1.5 -1.5t-1.5 -0.5l-5 -5q-4 -3 -7 -5q-5 -3 -9 -3q-5 0 -7 3q-2 2 0 6
l4 12q5 7 10 13q10 11 22 20q7 4 13 4q5 0 9 -4q3 -5 1 -11q-2 -7 -9 -12q-2 -2 -5 -4q-5 -5 -9 -8l-2 -1q0 -1 -1.5 -1.5t-1.5 -1.5z" />
    <glyph glyph-name="ie" unicode="ie" horiz-adv-x="399" 
d="M260 631q-5 -4 -10 -7h-1v-1h-1l-4 -2q-1 0 -1 -1l-6 -3q-3 -1 -4 -2h-3q-1 0 -3 0.5t-1 2.5v4l3 7q1 0 1 1l2 6q3 3 4 4.5t3 3.5q4 4 8 7q5 4 11 4t9 -4q3 -3 1 -8q0 -1 -1.5 -4.5t-6.5 -7.5zM167 465q-6 21 4 50q2 5 10.5 25t35.5 44q4 4 8 4q2 0 4 -1t3 -4v-3l-2 -3
q-7 -10 -12 -19q-1 -3 -3 -6q-13 -21 -19 -37q-4 -9 -5 -17q-5 -23 6 -37q7 -7 19 -9h23q26 2 53 14q29 12 56 29q0 13 4 26q2 12 7 23q15 44 50 83q21 25 49 45q12 10 28 17q8 4 14 4q7 0 12 -4q7 -8 4 -20q-1 -6 -3 -12t-5 -12q-15 -30 -39 -57q-39 -47 -90 -83v-1v-2v-3
v-4q1 -5 3 -9q0 -2 1 -3h-1v1q0 -1 0.5 -1t-0.5 -1q2 -1 2 -3l5 -7q13 -11 33 -11h7q50 7 98 40q46 30 80 73q2 2 4 3t4 1h1q2 -1 3 -3v-2l-2 -3q-8 -12 -18 -23q-42 -45 -94 -75q-30 -17 -61 -26q-18 -5 -36 -5q-11 0 -22 2q-25 7 -34 30q-2 6 -2 12q-45 -28 -91 -42
q-19 -5 -37 -5q-9 0 -27 2t-28 25zM409 587q-14 -22 -23 -45q-2 -5 -3 -11l-2 -5q1 -2 0 -3v-4l-1 -2q6 4 11 9q48 37 83 84q17 22 26 46l2 5q1 4 1 8.5t-3 6.5q-2 1 -4 1t-6 -2.5t-9 -6.5q-22 -18 -41 -39q-17 -20 -31 -42z" />
    <glyph glyph-name="il" unicode="il" horiz-adv-x="338" 
d="M572 833q-82 -158 -145 -317q-16 -40 -31 -81q-44 -121 -76 -241l-1 -2q-1 -2 -4 -4h-3q-1 0 -3.5 1t-0.5 5q23 91 52 182q16 49 33 97q42 114 93 227q31 72 67 143l-5 -8q-6 -8 -12 -17q-52 -77 -109.5 -152t-123.5 -145q-30 -32 -63 -58q-18 -13 -38 -24q-11 -6 -20 -6
t-16 5q-10 11 -8 28q2 20 9 40l3 7q13 38 45 70q6 5 12 5h4q2 -2 3 -6v-4l-2 -3q-4 -7 -9 -15q-8 -12 -15 -25q-6 -11 -10 -22q-3 -8 -5 -16l-1 -2q-6 -16 -6 -32v-1v-1v-1v-3l2 -2h5q4 1 9 3q36 16 65 44q33 30 61 61q61 68 114 140q78 104 147 210l1 3q7 13 15 26l5 8
q7 15 17 30q5 10 13 19q7 9 16 16q4 2 7 2q2 0 5 -2t0 -9q-50 -86 -96 -173zM275 653q1 -4 -1 -7q0 -2 -1.5 -5t-6.5 -7l-4 -2q-2 -2 -4 -3h-1q0 -1 -1 -1h-1l-4 -2l1 1l-1 -1l1 1l1 1l-2 -1q-2 -2 -5 -3h-3h-4t-3 3t0 7l3 8q1 3 3 6h1q0 1 2 2q1 2 4 4q5 4 11 6l3 1
q2 0 4.5 -0.5t3.5 -2.5q3 -2 4 -5z" />
    <glyph glyph-name="ilt" unicode="ilt" horiz-adv-x="618" 
d="M493 374q-12 -12 -27 -22q-8 -5 -16 -9.5t-16 -6.5h-5q-11 0 -16.5 9t-5.5 22q-2 31 6 65q13 56 34 112l9 25q27 71 60 142q30 66 63 131l-3 -4q-8 -12 -16 -23q-107 -146 -232 -280q-30 -31 -63 -57q-15 -12 -35 -23q-15 -8 -27 -8q-5 0 -10 2q-13 7 -15 23q-2 17 2 36
q2 13 7 26q2 6 5 13q9 21 26 40q4 4 9 5h3q4 0 6.5 -2.5t-0.5 -8.5q-3 -8 -9 -17q-6 -11 -11 -22l-3 -8q-5 -15 -8 -30l-1 -3q-2 -8 -2 -16t1 -14q4 -5 10 -5q1 0 5 0.5t11 4.5q35 18 64 46q31 28 60 59q59 63 112 130q77 95 146 194l2 4l11 18q18 35 44 69q5 6 10 6h2
q4 0 5 -2.5t0 -5.5q-8 -18 -17 -35q-3 -6 -6 -11q-35 -63 -67 -125q-34 -67 -65 -135q-32 -68 -59 -136q-8 -19 -15 -38q-17 -47 -27 -93l-4 -32q-2 -13 2 -25q1 -7 8 -7q3 0 6 1q16 6 29 17q26 22 46 47t39 49l7 10q99 125 190 252q32 43 62 87q-23 -1 -45 -3
q-29 -2 -57 -5q-15 -1 -29 -4q-5 0 -9 -1q-11 -2 -21 -3q-6 0 -9 4.5t-1 9.5q2 6 8 10t12 4q16 0 32 -1h30q31 1 62 1q14 1 27 1q5 1 9 1q21 32 43 65q15 26 29 53q2 3 3 6q22 42 48 83q2 3 6 5t8 2q2 -1 4 -4q2 -1 1 -4l-1 -2q-17 -36 -38 -71l-16 -30q-27 -50 -53 -99
l-1 -3q60 3 121 6l37 2l226 10q4 0 4 -3l-1 -2q0 -1 -2 -3t-5 -3q-63 -3 -128 -6q-14 0 -28 -1q-99 -5 -199 -10q-11 -1 -23 -2h-8q-88 -170 -158 -341q-33 -80 -62 -160q-37 -100 -68 -201q-1 -4 -5 -5q-1 -1 -3 -1q-1 0 -3.5 1t-1.5 5q30 101 66 202l13 38q59 162 133 322
q31 69 66 138h-1q-45 -66 -92 -131q-93 -131 -194 -259q-21 -27 -47 -52zM263 655l-3 -1h2q-2 -1 -5 -1q-2 0 -5.5 1t-2.5 6l5 13q4 6 11 10q6 4 13 4q4 0 6.5 -2.5t3.5 -6.5q0 -3 -1 -7l-2 -3q-2 -3 -6 -6q-3 -2 -6.5 -4t-5.5 -2q-2 -1 -3 -1h-1z" />
    <glyph glyph-name="in" unicode="in" horiz-adv-x="553" 
d="M649 516q-28 0 -47 14q-21 16 -21 44l-1 4q0 4 1 9v2q1 2 0 3l1 1q-3 0 -6.5 -2t-6.5 -5q-1 0 -1 -1q-7 -5 -13 -10q-13 -11 -25 -22t-25 -22t-25 -20l-3 -2q-6 -4 -13 -8.5t-15 -5.5h-5q-11 0 -17 8t-4 22q3 12 8 25q6 19 17 38q-26 -21 -51 -41q-44 -35 -90 -64
q-24 -15 -47 -27q-24 -14 -51 -21q-7 -2 -14 -2q-16 0 -26 11q-12 14 -10 35q3 14 8 27q4 11 9 22q11 19 20 32q4 7 9.5 13.5t12.5 10.5q4 3 8 3q2 0 6 -1.5t2 -9.5q-4 -10 -11 -21l-4 -6q-12 -18 -17 -30l-11 -30q1 0 1 -1l-1 -1l-1 -10q-1 -4 0 -8l-1 -2h1l1 -4l-1 -1h1
q0 -1 1 -1q0 -2 2 -3q1 -2 4 -4q5 -3 12 -3q3 0 10.5 1.5t17.5 6.5q46 19 90 48q69 47 132 102q4 6 8 13q11 17 27 30q5 4 9 4q2 0 5.5 -2t1.5 -9q-5 -13 -14 -26q-2 -4 -5 -9q-4 -7 -8 -13l-1 -4l-5 -8l-2 -5l-1 -1q-8 -17 -15 -34l-6 -18q1 0 0 -1l-1 -4v-5v-1h1l-1 -2h4
q2 0 4.5 1t4.5 2l2 1q6 3 12 7q24 17 46 37q1 1 2 1q11 11 24 21q1 1 1 2q12 9 23 16q6 3 11 3h4.5t7.5 -4q3 -4 5 -9l1.5 -4.5t2.5 -3.5l4 -7q2 -5 5 -10q2 -3 5 -5h1l-1 -1q1 0 1 -1q1 0 1 -1q3 -3 7 -5q13 -14 34 -18h7q48 0 92 40q2 2 4 2h2q2 0 3 -2v-2q-1 -2 -3 -4
q-55 -51 -121 -54zM270 651q3 -1 4.5 -3.5t1.5 -5.5l-2 -4q-1 -4 -3 -7q-3 -3 -6 -4.5t-6 -2.5h-1q-3 -1 -5 -1h-4q-3 0 -6 2v4l2 6q1 3 3 5v1q4 6 11 9q3 1 7 1h4z" />
    <glyph glyph-name="ir" unicode="ir" horiz-adv-x="439" 
d="M491 661q-36 -56 -61 -113l-5 -15q21 31 46 59q27 32 64 50q24 8 46 8q11 0 22 -2h3q14 -3 29 -3q16 0 32 6h2q2 0 4 -1.5t1 -4.5t-5 -5q-33 -13 -65 -13h-9q-4 1 -10 1h-11q-20 0 -40 -5q-18 -7 -33 -19t-28 -26q-39 -41 -64 -87l-1 -1l-10 -30l-2 -6q-1 -4 -2 -9
q-3 -8 -9 -16q-3 -4 -10 -5h-2q-4 0 -6 3q-2 6 -1 14t3 16l3 6q3 16 8 32l6 17q19 51 47 102q1 2 3 4l1 4l-3 -4q-4 -3 -9 -7q-40 -36 -85 -67q-22 -15 -46 -28t-49 -16h-6q-20 0 -31 11q-13 15 -7 39q3 13 8 26q4 13 11 26t16.5 26.5t22.5 21.5q3 2 5 2t5 -1.5t2 -6.5
q0 -4 -2 -8q-3 -8 -8 -15q-2 -3 -3 -6q-3 -6 -8 -12q-3 -6 -5 -11q-6 -13 -11 -25q-2 -6 -3 -12l-1.5 -4.5t-0.5 -3.5q-5 -18 7 -27q8 -5 18 -5q7 0 16 3q24 9 45 23q21 13 41 28q54 38 101 84q0 2 2 4q5 7 10 15q9 14 21 28v1q6 7 12 13t13 7q7 0 3 -11q-3 -10 -11 -23.5
t-14 -21.5q-2 -3 -2 -4zM272 679l1 2v4q5 9 13 16q6 5 12 5q5 0 9 -3q4 -6 1 -12q-1 -4 -4 -8q-5 -5 -10 -8q-4 -2 -4 -3l-2 -1h-1q-2 -1 -4 -1l-1 -1h-3h-4t-2 3q0 1 -1 1v1q-1 2 0 5z" />
    <glyph glyph-name="is" unicode="is" horiz-adv-x="429" 
d="M607 546q-56 -31 -105 -72q-1 -9 -1 -17q-2 -28 -12 -58q-3 -6 -11.5 -27t-38.5 -51q-15 -15 -36 -27q-11 -6 -20 -6q-8 0 -14 5q-11 10 -5 28q2 7 4 13q4 10 9 20q34 60 92 108q-1 6 0 12q-3 25 -7 49l-3 24q-5 37 -1 78h-1l1 1q-37 -31 -78 -59q-34 -24 -71 -45
q-39 -25 -79 -31h-6q-15 0 -25 8q-14 11 -10 31q2 8 4 15q8 22 25 44q5 7 10 15q4 6 11 8h3q4 0 7.5 -2.5t0.5 -9.5q-7 -17 -19 -36q-2 -4 -5 -9l-1 -4q-1 -1 -1 -1.5t-1 -0.5l-3 -8q-1 -2 0 -3l-1 -2q-1 -2 0 -4l-1 -1q1 0 1 -1v-1v-3h1v-1l1 -1q-1 -1 -0.5 -1t0.5 -0.5
t1 -0.5l2 -3q1 0 1 -1q1 0 2 -1q6 -4 15 -4q5 0 10 1q20 5 40 16q72 37 139 89q16 12 30 25q3 12 8 24q6 18 16 36q20 36 53 66q9 8 20 15q8 6 17 11q9 6 19 9q3 1 5 1q6 0 11 -4q5 -5 3 -12q-1 -2 -3.5 -7.5t-10.5 -13.5q-7 -8 -13 -15q-7 -9 -15 -18q-27 -31 -57 -60
q-6 -5 -11 -10l-5 -5q-2 -3 -2 -6l-2 -7l-1 -8q-3 -20 -3 -39q0 -16 2 -33q2 -14 4 -27q0 -5 2 -9q2 -21 3 -43q66 53 139 88q3 1 5 1t3.5 -1.5t0.5 -5.5l-1 -2q-1 -2 -4 -4q-20 -9 -37 -19zM507 685q24 23 45 47q15 16 28 32l12 16v1q2 1 2 3l1 2v1q-1 0 -2.5 -1t-3.5 -2
h-1l-6 -5q-6 -5 -11 -10l-3 -3q-14 -14 -28 -30q-2 -2 -4 -5v-1l-2 -1q-2 -4 -6 -8q-4 -7 -9 -15q-5 -9 -10 -17zM454 382l9 25q0 2 1 4v3l2 8q2 9 2 17v4v2l-2 -2q-1 -2 -3 -3q-34 -31 -60 -68q-11 -17 -18 -35q-3 -6 -4 -13t2 -12l1.5 -1.5t1.5 -0.5h2h1t2 1q7 3 14 8
q14 12 26 26q2 3 5 7t5 8q5 7 10 15l1 4q1 1 2 3zM267 645h-2q-3 0 -5 1q-1 2 -1 5v2l3 8q2 5 7 9q4 3 8 4q3 1 5 1q4 0 7 -3q4 -4 2 -11l-4 -6q-3 -3 -4 -5q-1 0 -2 -1t-3.5 -2t-4.5 -1q-3 -1 -6 -1z" />
    <glyph glyph-name="it" unicode="it" horiz-adv-x="369" 
d="M549 734q-70 -154 -131 -309q-30 -77 -58 -154q-15 -40 -28 -80l-28 -75q-2 -5 -5 -6q-2 -1 -4 -1t-5 1t-1 6q11 36 24 72l38 102q57 154 122 308q27 66 55 131q-36 -51 -80 -99q-49 -56 -107 -104q-28 -24 -59 -40q-17 -9 -35 -14q-11 -3 -20 -3q-7 0 -14 2
q-27 10 -28 40q-1 13 5 28q1 5 6 16.5t19 27.5q5 6 10 6h3q4 0 7 -3t2 -9l-9 -18l-8 -20q-5 -14 -5 -27l1 -1v-1q-1 -1 0 -1q0 -1 1 -2q-1 -3 1 -6l2 -4t3 -3q7 -5 17 -5q5 0 10 1q30 7 58.5 26t52.5 42q54 48 100 102q50 58 91 122q7 18 16 37l-47 -2q-48 -2 -97 -6
q-25 -2 -50 -5q-5 0 -10 -1l-16 -2h-7q-3 0 -8 0.5t-7 7.5q-1 3 1 6q0 2 3 5.5t8 5.5q9 3 17 3h82q52 0 105 1h32q15 37 33 74q3 5 7 8.5t10 3.5q5 0 8 -3.5t1 -8.5l-31 -62l-6 -12h12q12 0 24 1h97q25 0 49 -1h12q18 0 35 -1q4 -1 4 -3v-2q0 -1 -1.5 -3t-5.5 -2h-149
q-41 0 -83 -1q-21 -43 -41 -86zM233 627l1 1q-1 2 0 3l4 6v1q2 1 2 2l3 4q2 2 5 4l-2 -1v-1l4 4h1v1l4 2q7 5 12 5q6 0 10 -5q3 -4 1 -11q-3 -6 -9 -11q-4 -3 -10 -6l-1 -1q-1 -1 -2.5 -1.5t-3.5 -0.5h-1l-4 -2h-4q-3 0 -6 1q-2 0 -3 1.5t-1 4.5z" />
    <glyph glyph-name="itt" unicode="itt" horiz-adv-x="537" 
d="M965 883q4 0 5 -2l-1 -3q0 -1 -2 -3.5t-6 -2.5q-55 -3 -109 -5q-28 -2 -55 -3q-12 -1 -23 -1q-7 0 -13 -1q-18 -34 -33 -69q-65 -141 -116 -283q-16 -41 -30 -83q-61 -183 -109 -365q-2 -4 -5 -6h-3q-1 0 -3 1t-1 5q27 105 57 210q42 147 95 294q15 40 30 79
q25 65 54 130l-60 -86q-90 -129 -191 -253q-21 -27 -48 -50q-12 -12 -29 -22q-12 -8 -23 -8q-3 0 -6 1q-13 3 -15.5 15.5t-0.5 25.5q3 33 15 68l9 27q20 55 46 109q18 41 39 81q-55 -68 -116 -133q-26 -31 -58 -58q-16 -13 -33 -23q-9 -5 -19 -8q-6 -2 -12 -2q-3 0 -7 1
q-14 5 -13.5 23t6.5 34q2 8 5 15q11 32 36 61q5 7 12 7q6 0 9 -5q2 -3 0 -7q0 -2 -1 -4q-27 -35 -41 -72l-2 -6q-1 -7 -2.5 -14t0.5 -13q3 -4 8 -4q2 0 8 2t14 6q32 18 59 46q29 30 58 61q55 61 106 126v1q6 12 12 23q31 56 64 111q-6 0 -13 -1h-7q-72 -3 -145 -8
q-36 -2 -73 -5q-2 0 -5 -1q-15 -1 -30 -3q-3 0 -5 -1q-17 -3 -35 -4q-6 0 -8.5 4t-0.5 10q3 6 8 9.5t11 3.5l14 1l13 -1q7 -1 13 -1h41q40 0 81 2q73 2 148 6q1 3 3 5l4 8q20 33 42 66q10 16 22 32q4 5 8 11l4 6q6 7 11 13l3 3q3 3 7 3h2q2 0 4 -1.5t1 -5.5q-1 -3 -3 -5
q-2 -6 -5 -12q-2 -1 -3 -3q-19 -37 -43 -74v-1q-13 -22 -27 -43q18 1 36 1l75 4q23 1 44 2q12 1 23 1l26 52q12 23 24 47q6 10 14 18t20 10q4 0 5.5 -2.5t0.5 -6.5l-1 -3v-2l-2 -3q-8 -16 -18 -32t-21 -32q-3 -5 -5 -9q-3 -5 -4 -9q-3 -4 -4 -7l-6 -12q-2 -4 -4 -7
q100 4 199 9zM722 832q6 11 11 23q1 3 3 6q-90 -4 -181 -9l-2 -4l-14 -22q-1 0 -2 -1v-1q-33 -57 -64 -115q-35 -65 -64 -130q-2 -3 -3 -5q-25 -50 -43 -101l-9 -26q-6 -16 -9 -31v-1q-3 -15 -4 -29q1 -4 2.5 -8.5t5.5 -5.5h2q5 0 11.5 3t11.5 7q0 1 1 1q27 19 49 45
q20 23 39 46l7 10q97 121 184 247q35 50 68 101zM256 652q1 2 3 5v1l2 2q3 4 6 6q4 3 9 4h2q1 0 2 1q6 -1 9 -5q2 -2 1.5 -5t-1.5 -6q-2 -6 -8 -11l-7 -4h-3q0 -1 -1 -1l4 2q-4 -2 -9 -3q-2 0 -2.5 0.5l-1.5 1.5q-4 0 -5.5 2.5t-0.5 6.5z" />
    <glyph glyph-name="iu" unicode="iu" horiz-adv-x="570" 
d="M651 504h-10q-9 0 -18 1q-14 2 -25 9q-19 16 -21 45q-1 13 2 27q1 6 3 11h-1v-1q-3 -2 -6 -5l-1 -1q-15 -14 -30 -29l-18 -18q-13 -12 -26 -23l-1 -1q-6 -5 -13.5 -10t-14.5 -7h-5q-14 0 -18 12q-3 13 1 28q4 16 10 32t14 32q1 4 3 8l1 2q-29 -25 -59 -50
q-43 -35 -88 -64q-46 -31 -92 -40q-6 -1 -11 -1q-16 0 -27 9q-13 13 -13 34q0 20 7 41l2 5q6 12 12 25q5 7 9 13q5 6 11 11h1q3 3 7 3.5t8 -0.5q6 -3 4 -12q-4 -11 -11 -22l-2 -4l-1 -1l-3 -9q-4 -6 -6 -12t-3 -13l-3 -8q-2 -10 -2 -19q-1 -7 2 -13q2 -6 8 -9q7 -3 16 -3
q10 0 21 4q43 16 83 44q42 29 81 62q32 26 63 54q10 17 27 30q4 2 8 2q2 0 5.5 -0.5t2.5 -6.5v-2q-1 -5 -3 -10q-1 -1 -2 -4l-1 -2q-3 -6 -8 -12q-1 -3 -3 -6q-5 -8 -9 -17q0 -1 -2 -2l-1 -4q-3 -4 -4 -8q-5 -11 -10 -23l-3 -11q-5 -15 -8 -29v-1v-2l-1 -2q1 -2 0 -4
q-1 -1 0 -1v-1l1 -1h1q1 0 2.5 0.5t3.5 1.5q7 4 12 8q23 18 44 39q1 2 4 4q11 12 24 23q5 5 12 8q3 2 6 2t5 -2q5 -2 6.5 -6t2.5 -8l1 -4l2 -10q1 -6 3 -12l-1 -1q3 -5 4 -10h1v-2q1 -3 2 -5q4 -4 6 -8h1l3 -4l3 -2q15 -13 38 -13h3q28 2 56.5 17t52.5 35q3 2 5 2h1
q2 -1 2 -4v-2q-1 -2 -3 -3q-30 -25 -63.5 -42.5t-68.5 -21.5zM259 654q6 4 13 5q6 -1 10 -5q1 -2 1 -5t-1 -6q-2 -6 -8 -11l-1 -1q-3 -2 -7 -4q-1 0 -2 -0.5l-3 -1.5h-2l-1 -1h-2q-4 0 -7 2t-3 8l4 11q2 3 3.5 4.5t4.5 3.5q1 0 1 1z" />
    <glyph glyph-name="kk" unicode="kk" horiz-adv-x="479" 
d="M481 440q-4 -9 -10 -19q-2 -7 -6 -15q-15 -51 -28 -103q-23 -95 -38 -189q-1 -5 -5 -7q-3 -2 -6 -2h-3.5t-1.5 5q1 11 3 23q14 95 37 192q25 97 57 194q9 29 20 58q25 68 54 135q6 14 12 27q2 3 3 6q0 -1 -2 -2v-1q-51 -72 -113 -138q-60 -64 -135 -110q-35 -21 -73 -35
q-17 -7 -36 -11q-10 -2 -19 -3h-9l-2 -2q-1 0 -2 -1q-54 -151 -94 -301v-2q-1 -3 -5 -5t-7 -2q-4 0 -6 2.5t-1 6.5q25 99 59 199q16 50 34 100q0 2 1 4q0 2 2 4q45 124 99 247q39 89 82 177q23 45 47 90l24 44q1 2 3 4q11 20 24 40q8 10 18 10q4 -1 6.5 -5t0.5 -9
q-10 -21 -22 -41q-3 -5 -6 -11l-19 -34l-7 -14q-27 -49 -52 -98q-47 -87 -87 -174q-40 -89 -73 -178l-1 -2q14 23 31 46q38 53 84 103q9 10 20.5 19.5t23.5 11.5q4 0 8 -0.5t5 -3.5q1 -7 -1 -15l-1 -5q-4 -11 -13 -23q-18 -28 -40 -53q-21 -25 -44 -49q-29 -31 -64 -60
q24 6 49 15q39 15 78 39q74 48 132.5 114t107.5 136q8 10 14 19q2 3 4 5q26 57 57 114q26 48 53 95q14 23 29 47q14 24 32 47q3 3 7 3.5t6.5 -2t0.5 -6.5l-2 -4l-1 -2q2 -2 1 -4v-2q-47 -92 -102 -181q-10 -17 -22 -34q-45 -88 -83 -176q-32 -75 -59 -149l-15 -43
q-4 -11 -7 -22l-3 -7q6 11 13 22q31 49 70 95l3 4q15 20 35 34q7 5 14 7q2 1 5 1q4 0 8 -2q3 -4 3 -10t-2 -13q-10 -27 -31 -51q-19 -23 -39 -44q-32 -32 -68 -60q14 -3 27 -6q15 -4 31 -7q48 -10 101 -10q13 0 27 1q67 4 138 22h2q3 0 3 -2t-1 -5t-5 -4q-41 -13 -81 -19
q-53 -9 -104 -9q-17 0 -34 1q-33 3 -64 9q-30 6 -54 19zM555 554q-29 -37 -52 -75q25 23 48 47q18 20 34 40q17 19 26 41l1 3q-2 -1 -3 -2h-2q-10 -6 -17 -14q-19 -19 -35 -40zM204 486l3 3q3 2 5 4q42 38 79 81q18 21 35 42q16 20 24 42q-4 -1 -8.5 -3.5t-8.5 -6.5
q-11 -9 -21 -20q-1 -2 -3 -3q-60 -66 -105 -139z" />
    <glyph glyph-name="la" unicode="la" horiz-adv-x="718" 
d="M741 628q-3 -5 -4 -8t-4 -7q-3 -9 -5 -18l-2 -4q1 -1 0 -3q0 -3 -1 -7q-1 -3 -1 -6l1 -4l-1 -1q1 -14 10 -24q19 -19 52 -19h3q70 0 139 49q2 1 4 1q1 0 2.5 -0.5t1.5 -3.5l-1 -2q0 -2 -2 -3q-41 -30 -88 -45q-37 -12 -72 -12q-3 0 -24 0.5t-42 24.5q-19 26 -6 65
q-28 -32 -60 -61l-20 -16q-10 -8 -21 -13q-7 -3 -12 -3q-3 0 -8 3t-4 13q1 6 2 11q-82 -104 -189 -187q-32 -23 -65 -42q-35 -22 -71 -30q-9 -2 -18 -2q-20 0 -36 10q-18 15 -26 38q-15 54 -1 118q12 66 36 133l7 19q60 153 152 301q45 74 96 145q25 36 51 71q27 36 58 71
q5 5 10 5q6 0 9 -4q1 -3 0 -7l-2 -3l-24 -34l-15 -20q-44 -58 -84 -117q-49 -71 -91 -143q-87 -142 -144 -289l-4 -10q-24 -67 -35 -133q-12 -59 6 -105q10 -19 30 -26q8 -2 16 -2q21 0 44 11q66 30 125 78q100 84 177 186q11 20 24 37q15 21 35 38q20 19 44 30q11 5 22 5h9
t13 -9l3 -4l8 6q3 2 5 2t5 -1t1 -7q-4 -10 -9 -19l-2 -4q-4 -6 -7 -13zM713 628q3 7 7 13q0 2 -1 3t-1 2l-2 2v-1v1h-3q-1 1 -2 1h-3h-4q-2 -1 -5 -1l-1 -1h-1.5t-0.5 -1l-5 -2q-2 -1 -7 -4.5t-9 -6.5q-28 -23 -52 -54q-12 -15 -21 -31l-8 -16q-1 -3 -2.5 -6t0.5 -4
q1 -1 3 -1q1 0 2.5 0.5t4.5 2.5t5 3q9 6 16 12q17 13 31 27q30 29 56 60l1 1q1 1 2 1z" />
    <glyph glyph-name="le" unicode="le" horiz-adv-x="536" 
d="M753 569q-59 -56 -131 -93q-31 -16 -61 -26q-22 -8 -42 -8q-8 0 -16 1q-22 8 -22 31l-1 -1l-1 -1q-41 -57 -87 -111q-45 -53 -100 -98q-28 -23 -60 -40q-24 -13 -46 -13q-8 0 -16 2q-11 3 -18 11q-4 3 -7 8l-2 4q-1 2 -1 3l-2 2l1 1h-1q-8 21 -5 47q2 27 8 55v1
q8 35 16 69q17 67 41 135l4 10q48 131 118 259q37 66 80 130q22 33 46 65q12 16 25 31l12 16q6 6 10 11l3 2q3 3 6 3q2 0 4 -2v-3l-3 -6q-3 -6 -7 -12q0 -1 -2 -2q-4 -6 -9 -13q-13 -21 -27 -43q-7 -10 -13 -19q-20 -31 -40 -63q-39 -63 -72 -127q-58 -110 -99 -223l-12 -34
q-21 -65 -37 -129q-8 -30 -14 -62v-3q-7 -25 -8 -49q0 -3 1 -6l-2 -3h1v-2v-2t1 -1l-1 -1l1 -1q-1 -2 -1 -4q2 -5 2 -11q2 -2 2 -4h1v-1q1 0 0 -1l1 -1q1 -4 4 -7l1 -1h1v-1h1q1 -2 3 -3t3.5 -1.5l4.5 -1.5q5 -1 11 -1q30 3 59 23q29 19 54 41q52 45 93.5 97t77.5 105
q11 30 33 57q23 29 55 49q10 6 18 9q5 2 10 2q3 0 6 -1q6 -2 7.5 -9t-0.5 -14q-5 -9 -11.5 -16t-13.5 -13q-12 -12 -27 -22q-17 -12 -36 -20l-1 -3q-2 -1 -2 -3l-1 -1q-1 -3 -3 -6q-2 -6 -3 -12l-1 -2v-3q-1 -3 -1 -5q1 -1 0 -2v-1q1 -2 1 -5h1v-1l2 -4h1q-1 0 0 1
q1 -2 3 -3h1l-1 -1h1.5t0.5 -1q10 -3 19 -3q25 2 49 13q28 11 54 26q54 30 99 72q3 3 7 3q3 0 4 -3q1 -1 0 -2q0 -2 -2 -4zM540 541q-2 -2 -3 -4q-1 -1 -1 -2q11 7 23 15q14 10 26 22q2 3 6 7t6 8q1 4 -1 7h-1v-1q-2 -1 -3 -1l-2 -2q-5 -3 -10 -7l-3 -2q-10 -9 -19 -19
l-1 -1q-6 -5 -10 -11q-2 -2 -2.5 -3t-1.5 -2.5t-3 -2.5v-1z" />
    <glyph glyph-name="ll" unicode="ll" horiz-adv-x="523" 
d="M276 658q-21 -45 -40 -91q-27 -66 -51 -132q-10 -27 -19 -53v-1q-15 -39 -22 -75q-7 -37 4 -67l1 -1q1 -3 2.5 -6t5.5 -4h3q3 0 7 1t8 4q20 12 37 27q36 33 63 70q66 85 124 172q59 90 115 180q55 91 108 182q38 65 75 130l4 8q5 8 8 15q7 14 16 29q4 7 9 15q1 1 2 3
q2 3 3 5q0 2 1 4q1 3 4 6q4 3 9 5h2q2 0 4 -1q5 -4 3 -10l-2 -5l-3 -7l-1 -4q-10 -23 -22 -45q-3 -6 -5 -12q-11 -21 -22 -43q-3 -7 -8 -15q-29 -56 -55 -112q-56 -114 -102 -228q-11 -27 -21 -55q-10 -27 -19 -55q-17 -51 -21 -100q-3 -23 2 -44q2 -18 21 -21h3q8 0 18.5 5
t19.5 11q23 17 42 38q87 89 138 193q2 4 6 5h2q2 0 2 -1q2 -1 1 -4l-1 -2q-6 -13 -13 -25q-29 -53 -66 -102t-81 -92q-20 -20 -44 -34q-19 -11 -36 -11q-6 0 -12 1q-21 8 -26 30t-4 47q3 53 20 109q9 28 19 56t22 55q41 103 91 206l-1 -1q-55 -93 -113 -186
q-57 -93 -120 -183q-32 -46 -65 -91q-27 -39 -60 -76q-16 -18 -35 -34q-19 -17 -41 -28q-11 -4 -19 -4q-13 0 -20 11q-10 14 -13 31q-5 37 6 78q10 43 25 86l17 47q25 71 55 141q42 96 92 190q48 93 105 184q28 46 59 91q29 46 64 90q4 4 8 5l4 1l4 -1q4 -2 4 -6q1 -2 0 -5
l-2 -3q-12 -21 -27 -43q-59 -88 -113 -177q-54 -90 -100 -181q-22 -44 -43 -90z" />
    <glyph glyph-name="mm" unicode="mm" horiz-adv-x="793" 
d="M1009 567q-30 -23 -64 -37q-30 -14 -60 -18q-11 -2 -21 -2q-19 0 -34 7q-20 15 -18 43q1 13 5 27l3 9q-1 0 -1 -1q-6 -5 -11 -11l-1 -1q-12 -12 -24 -25q-19 -21 -37 -43l-2 -8q-2 -3 -5 -5.5t-6 -2.5h-2q-6 0 -6 6q-1 15 4 32q6 16 17 31q3 7 8 14q4 7 8 13v1
q-10 -8 -19 -17q-11 -10 -21 -21q-19 -23 -35 -47q-6 -8 -10 -16l-9 -30q-2 -6 -8 -9q-4 -2 -7 -2q-2 0 -5 1t-3 7q5 34 17 69q5 12 10 25q7 16 16 32q-40 -35 -85 -59q-57 -31 -112 -31h-4q-30 1 -47 21q-14 21 -13 50q0 25 5 52l1 2q0 1 -0.5 1.5t0.5 1.5q0 1 -0.5 1
t-0.5 1l-2 1l-7 -3q-13 -7 -23 -17l-6 -4q-57 -49 -103 -105q-2 -4 -6 -8q-6 -6 -12 -6t-8 6q-1 8 3 19l8 20q10 18 21 37q3 5 7 11q7 12 13 24l6 10q-9 -9 -19 -18q-39 -39 -74 -79q-19 -21 -35 -42q-5 -5 -9 -11q-7 -7 -13 -15q-2 -5 -4.5 -8.5t-7.5 -6.5h-1
q-1 -2 -2.5 -2h-2.5q-4 0 -6 2q-4 4 -3.5 11t3.5 14l11 30q20 47 52 92q16 23 36 44q5 5 11 10t12 6l4 1q6 0 8 -4q3 -3 1 -9l-2 -3q-3 -5 -8 -7q0 -1 -2 -2q-2 -4 -5 -7q-2 -2 -3 -4q-9 -11 -19 -24q-16 -23 -31 -48l-13 -24q-3 -5 -5 -9.5t-5 -10.5l-1 -3q-1 -2 -3 -4
l-1 -3q2 1 2 3q3 2 5 5q36 44 77 86q14 16 30 32q6 5 11 11q2 1 3 3q7 7 15 14l2 2l3 3q1 0 3 1h1v1q6 5 12 6h3q4 0 7 -1.5t2 -6.5q-1 -9 -5 -18q-4 -11 -11 -23q-9 -16 -19 -33v-1q-8 -13 -15 -25q41 44 87 84q2 1 3 3q12 11 26 19q9 5 17 5q7 0 13 -6q5 -10 4 -24v-3
q0 -8 -1 -16q1 -5 0 -10v-14v-3v-6q1 -6 3 -12q1 -3 1 -5q1 -1 1 -3h1q2 -6 6 -11q1 0 1 -1q1 0 0 -1h1l4 -4q4 -3 8 -5t11 -4q10 -3 21 -3q15 0 31 5q29 7 58 23q53 28 97 71q2 5 6 9q4 6 9 11q2 3 5 5q1 2 4 3q1 1 1 2q3 1 5 1q1 0 2.5 -1t1.5 -4l-1 -2q0 -1 0.5 -1.5
t-0.5 -1.5l-2 -6q-2 -6 -5 -12l-6 -10q-3 -6 -5 -11q-12 -22 -21 -44q-5 -11 -9 -23q16 24 37 45l21 20l3 3l3 3q5 5 11 9q1 0 1 1q3 2 5.5 3.5t5.5 2.5l4 1q2 0 5 -1t5 -3q3 -6 0 -14l-3 -9q-4 -12 -12 -25l-1 -1q-2 -4 -4 -7q-1 -2 -3 -4q19 21 38 41q3 2 5 5q6 7 12 12
l2 1q4 3 8 5q3 1 6 1h3q5 -2 6 -7t-1 -11q-1 -6 -2 -11v-4q-3 -10 -3 -19v-7v-1l-1 -2q1 -1 1 -2q2 -8 4 -13q3 -5 8 -9q11 -6 26 -6h5q19 1 39 7q42 13 80 40q2 1 4 1q1 0 3 -0.5t2 -3.5l-1 -2q-1 -2 -3 -4z" />
    <glyph glyph-name="na" unicode="na" horiz-adv-x="693" 
d="M901 575q3 2 4 2h2.5t1.5 -2q1 -1 1 -2l-2 -2q-32 -29 -66 -52q-30 -20 -64 -26q-6 -1 -12 -1q-23 0 -40 13q-22 16 -20 47l1 3q0 1 -1 1q-8 -10 -19 -19q-29 -28 -63 -46q-11 -5 -21 -5t-15 7q-4 8 -2 18l1 5q3 7 8 14q2 2 2 4l2 1q-57 -32 -115 -50q-38 -12 -71 -12
q-24 0 -46 6q-26 8 -37 31q-11 26 -3 58q3 17 7 33v2q2 7 5 14l1 4q-3 -1 -6 -3q-6 -4 -10 -9l-4 -4q-16 -14 -30 -29q-55 -58 -102 -122l-3 -9q-3 -7 -9 -10q-3 -1 -7 -1q-1 0 -4.5 0.5t-2.5 7.5q5 33 18 66q5 15 12 30q11 25 24 49l14 24q4 6 9 12q3 4 6 6.5t7 4.5
q3 2 6 2q2 0 4.5 -2t3.5 -6q-1 -6 -3.5 -12.5t-6.5 -12.5v-2l-5 -8l-8 -14q-7 -12 -11.5 -21.5t-9.5 -21.5q-12 -25 -21 -50q42 56 93 108q5 4 8 8q12 12 22 23h1q6 7 13 12.5t16 7.5h4q10 0 12 -9q2 -7 0 -14v-2q-1 -7 -3 -14q-1 -3 -1 -5q-1 -3 -2 -7l-2 -5q-3 -15 -5 -30
v-14v-3v-1l1 -1q-1 -3 0 -6q1 -13 6 -22q7 -10 17 -15q18 -10 41 -10q6 0 24.5 2t48.5 12q61 18 119 54q16 17 35 29q17 13 35 19q10 3 17 4q3 1 6 1q5 0 10 -3q3 -1 1 -5v-3l-2 -3q-6 -5 -13 -8l-2 -2q-7 -3 -10 -5t-5 -3t-3 -1q-2 -2 -5 -3l-1 -1q-2 -1 -3 -1q0 -1 -1 -1
q-6 -4 -13 -9q-4 -3 -7 -6h-1l-1 -1q-1 -1 -1 -1.5t-1 -0.5q-5 -4 -10 -9l-10 -12v-1l-2 -1v-1l-4 -6l-2 -2l-3 -7h4h1.5t2.5 1q5 2 12 5l1 1q27 15 51 37q12 11 23 24q0 1 2 2l1 3l2 2q4 9 11 16q3 4 7 7t7 3h2q5 0 5.5 -4.5t-1.5 -9.5l-5 -14q-2 -8 -4 -14.5t-2 -14.5v-7
v-3l2 -10q2 -8 8 -16q13 -11 31 -11q6 0 12 1q30 5 58 23.5t52 41.5z" />
    <glyph glyph-name="ne" unicode="ne" horiz-adv-x="586" 
d="M799 567q-51 -44 -110 -71q-27 -12 -55 -18q-10 -2 -20 -2q-15 0 -29 6q-21 11 -19 37q-4 -2 -7 -4v-1q-14 -10 -28 -19q-29 -19 -59 -30q-37 -14 -70 -14q-18 0 -34 4q-25 5 -41 20q-16 17 -22 41q-3 11 -4 23l-1 8l1 2q-1 0 -1 1l1 1q-1 1 -1 1.5t1 1.5h-1v1h-2
q-4 -2 -6 -4q-6 -3 -10 -8l-1 -1q-13 -11 -23 -24q-22 -24 -41 -50q-10 -14 -18 -28q-3 -4 -6 -9l-8 -14l-1 -4q-2 -3 -4.5 -6.5t-8.5 -5.5h-3q-3 0 -6 2t-3 7q1 48 20 100l6 16q12 29 29 58q9 15 20 28q4 6 11 12t14 8q4 0 5.5 -1.5t0.5 -4.5l-2 -4q-2 -7 -7 -14
q-2 -4 -3 -7q-6 -9 -9 -17q-2 -5 -5 -10q-6 -11 -12 -25l-12 -26l-4 -13q-12 -31 -19 -63q9 15 19 29q21 30 47 57q3 4 7 7q7 10 17 19t21 15q5 2 10 2q3 0 8 -1.5t9 -6.5q3 -8 4 -18q1 -3 1 -5q2 -11 6 -22q1 -1 1 -2h1l-1 1l2 -4v-1v1v-1q1 -1 0 -2l6 -9q9 -19 28 -28
q20 -8 42 -8q26 0 56 11q28 10 54 26q12 8 25 18l14 10l1 4q7 18 20 34q20 24 48 34q8 4 15 4t12 -4q8 -6 4 -18l-1 -2q-7 -12 -18 -22q-11 -9 -21 -16q-14 -8 -28 -12v-2q-1 -1 0 -3q-1 -4 -2 -9l1 -1v-1q0 -2 1 -3q0 -2 1 -4v-2q7 -14 24 -17h5q18 0 39 7t43 18
q43 22 81 55q3 2 5 2h2q2 -1 2 -4l-1 -2q-1 -2 -3 -4zM609 554q-2 -3 -3 -5q11 4 22 11q10 7 18 16q5 5 8 11q0 1 -0.5 1.5t-1.5 0.5q-3 -1 -7 -3t-8 -5v0q-5 -4 -9 -7l-1 -1l-1 -1h-1q0 -1 -1 -2l-2 -2q-5 -4 -8 -8l-2 -2q-2 -2 -3 -4z" />
    <glyph glyph-name="ng" unicode="ng" horiz-adv-x="681" 
d="M864 552q-105 -49 -199 -122q0 -2 -1 -4l-2 -5q-15 -49 -33 -99q-10 -29 -22 -59q-27 -72 -70 -143q-22 -34 -50 -64q-26 -31 -61 -48q-16 -7 -28 -7q-17 0 -28 13q-12 21 -4 51q4 20 12 40q19 52 56 103q85 119 204 213q7 21 13 42l21 76q8 29 19 59q-25 -23 -52 -43
q-6 -5 -13 -9q-3 -3 -6 -5q-10 -7 -20 -10q-5 -2 -9 -2q-5 0 -11 3.5t-5 14.5q1 6 3 12t5 11q-34 -26 -72 -45q-39 -20 -76 -20q-7 0 -15 1q-38 4 -53 34q-12 31 -3 69q1 10 5 21l2 6q-2 0 -4 -1q-9 -5 -17 -11l-3 -2q-8 -6 -15 -12q-34 -30 -61 -64q-29 -34 -54 -69
q-4 -5 -9 -9t-11 -4q-10 1 -11 10q-2 7 0 16q0 2 1 4q1 11 3 21q6 24 15 48q7 20 16 40q12 23 26 45q7 12 16 22q4 6 9 11q3 4 8 6q0 1 2 2t4 1h3.5t2.5 -4q-1 -3 -1 -5l-1 -1v-3l-2 -3v-1q-3 -6 -7 -12q-4 -8 -9 -15q-1 -4 -4 -8q-13 -22 -23 -44q-9 -20 -17 -41
q-9 -26 -16 -52q-2 -6 -3 -11q10 11 20 23l8 10l7 8q23 29 49 56q29 31 64 53q9 7 19 9q3 1 5 1q7 0 10 -6q2 -3 3 -7v-5v-2q1 -7 0 -14v-3v-18q-1 -4 -1 -7q1 -1 0 -2q0 -1 1 -1l-1 -2h1q0 -16 5 -30q1 -1 1 -3l1 -1l-1 -1l4 -6q3 -2 4.5 -4t3.5 -4q12 -10 29 -11h4
q38 0 77 20.5t75 47.5q14 18 30 33q16 17 36 28.5t40 11.5q17 -1 26 -13q7 -13 3 -31q-1 -2 -2.5 -3t-3.5 -1q-1 0 -1 1l-4 8q-1 9 -7 15q-5 3 -11.5 2.5t-12.5 -3.5q-14 -6 -27 -17l-1 -1v-1h-1q-2 -1 -2 -2q-3 -3 -6 -5v-1l-13 -12l-13 -14q0 -2 -2 -4v1q0 -1 -2 -2l-4 -6
q-4 -7 -9 -15l-1 -1q0 -2 -2 -4l-2 -5q2 1 3 1q6 3 12 7h1l29 20q30 22 55 49q3 3 6 2.5t4 -2.5q1 -1 0 -2q0 -2 -2 -4l-1 -1l-1 -1q1 -1 0 -3q-1 -18 -6 -37q-15 -67 -35 -134q106 79 223 132h2q2 0 4 -1.5t1 -4.5t-5 -5zM541 170q32 65 56 130l5 13q17 46 31 92
q-1 -2 -3 -3t-3 -2q-56 -47 -102 -99q-53 -56 -93 -118q-23 -34 -38 -69l-4 -11q-9 -26 -10 -52q0 -11 4.5 -20t15.5 -11q14 0 28.5 9t25.5 20q55 55 87 121z" />
    <glyph glyph-name="nn" unicode="nn" horiz-adv-x="621" 
d="M631 558q0 1 -1 1l1 2l-1 8l-3 -3l-4 -3q-6 -5 -11 -11l-4 -4q-14 -15 -27 -31q-24 -32 -46 -66q-1 -1 -2 -3q-2 -3 -4 -3q-4 -3 -9 -5h-3q-3 0 -6.5 1.5t-3.5 5.5q-1 40 14 84l3 7q-40 -43 -86 -79q-3 -2 -6 -5q-14 -13 -32 -23q-15 -9 -29 -9h-5q-16 4 -22 18.5
t-8 29.5q-1 30 10 62l7 21q8 22 17 43q6 13 10 25q4 10 9 20l3 8q1 1 0 2v1h-1q-5 -1 -9 -3q-9 -5 -17 -11q-35 -27 -64 -61q-32 -35 -61 -72q-26 -34 -49 -68l-1 -2q0 -1 1 -2q-2 -5 -7 -8.5t-9 -5.5h-3q-3 0 -6 1.5t-5 5.5q-1 27 7 56q4 16 10 32q4 10 9 21q13 28 32 55
q9 13 21 24q4 3 7.5 5.5t7.5 2.5q7 -1 8 -7l-1 -2q-1 -3 -4 -5v-1l-1 -1l-2 -5l-5 -8q-1 -2 -3 -4q-2 -4 -3 -7q-5 -8 -9 -15q-7 -11 -11.5 -21t-9.5 -22l-5 -11q-6 -18 -10 -35l-1 -3q1 -1 0 -2l-1 -4l-2 -10q20 29 42 58q32 40 68 78q16 17 32 32q16 14 34 27q8 6 18 11
q7 4 14 4q2 0 5 -1q9 -2 10.5 -10.5t-0.5 -18.5l-6 -16l-6 -16l-8 -22q-5 -10 -9 -21l-12 -36q-2 -5 -2 -10l-3 -6q-1 -9 -3 -18q-4 -18 -4 -34q1 -6 3 -12t7 -8q3 -1 6 -1q5 0 11.5 3t13.5 8q18 12 35 26q52 41 96 92v1q1 3 3 5q5 10 11.5 19.5t15.5 16.5q6 6 13 6h3
q3 0 4 -3t0 -5v-2l-3 -3l-1 -5q-2 -5 -5 -10l-1 -3q-1 -2 -3 -4l-1 -5q-2 -1 -2 -2l-2 -5l-1 -1q-6 -13 -11 -25l-4 -13q-2 -9 -5 -19q-2 -5 -2.5 -8.5t-1.5 -8.5q-1 -4 -2 -7v-7q24 36 54 69q5 6 10 11t8 10q9 9 19 15q5 4 12 4q6 0 10 -3t5.5 -8.5t2.5 -10.5q2 -8 3 -17
q2 -10 4 -19q1 -4 2.5 -7l3.5 -7h1q0 -1 0.5 -1t-0.5 -1l4 -2q3 -3 6 -4q13 -6 27 -6q20 0 43 12q44 23 76 61q2 2 4 2h2q2 0 4 -2l-1 -3l-2 -3q-25 -29 -55 -52q-47 -33 -91 -33q-11 0 -23 2q-28 7 -35 34q-3 12 -4 25q0 4 -1 7v5z" />
    <glyph glyph-name="ns" unicode="ns" horiz-adv-x="477" 
d="M580 470q6 -26 3 -55q-3 -26 -12 -53q-7 -19 -18 -39q-13 -23 -32 -43q-19 -23 -45 -37q-11 -5 -20 -5h-8.5t-11.5 9q-8 18 0 40l2 4q20 55 62 105q26 32 56 63q-2 7 -6 12q-4 9 -9 17q-8 12 -14 25q-11 23 -12 50v1q-4 -1 -23 -18.5t-56 -45.5q-33 -24 -68 -37
q-25 -8 -48 -8q-9 0 -18 1q-31 10 -33 43q-2 16 -1 33v4v11q-6 -7 -13 -15q-14 -16 -27 -32q-16 -21 -30 -43q-4 -6 -8 -13l-1 -1q1 -2 0 -4q-2 -6 -7.5 -10t-11.5 -5h-2q-10 0 -10 11q1 22 10 46q3 11 7 22t9 22q10 24 23 46q6 12 15 23.5t21 17.5q2 1 4 1q1 0 3 -0.5
t3 -3.5q0 -7 -2 -14l-4 -8l-8 -16q-2 -3 -3 -6q-12 -20 -20 -41q-5 -10 -9 -21t-7 -22l-3 -9q12 16 23 31q12 17 26 34q7 8 15 17q1 0 1 1q7 7 11 15l1 2q4 5 10 7h1q4 0 7 -3q4 -5 5 -13v-4q1 -6 2 -13v-4l1 -20v-7v-1.5t1 -0.5q-1 -2 0 -3q0 -13 4 -22t17 -14q9 -2 19 -2
q18 0 39 8q34 14 63.5 37t48 39t24.5 19q1 11 5 23q4 10 10 20q16 24 42 40q12 7 26 9h4q11 0 15 -8q2 -6 -1 -13q-1 -3 -5.5 -10t-12.5 -16q-20 -20 -43 -36q-3 -1 -4 -2q-2 -1 -3 -1v-12l1 -1l-1 -2q1 -1 0 -2q1 -3 1 -6q1 -5 3 -11q5 -15 12 -29q2 -7 5 -15q4 -10 7 -22
q53 51 110 95q3 2 5 2h2q2 -1 2 -4v-1q-1 -3 -4 -5l-26 -20q-45 -37 -86 -78zM554 603q-1 -3 -1 -7v-1q11 8 22 18q11 9 20 20q2 2 4 5l4 6l1 2q1 2 1 4h-2q-2 0 -4 -1q-5 -2 -9 -5h-1q-9 -6 -17 -14q-2 -3 -5 -5l-1 -3l-6 -10q-2 -2 -3 -4l-1 -3zM523 301q20 29 30 57
q17 47 6 91q-41 -43 -74 -90q-19 -27 -31 -56q-4 -11 -7 -22.5t0 -21.5q3 -8 11 -8q2 0 8.5 1.5t17.5 9.5q23 17 39 39z" />
    <glyph glyph-name="nt" unicode="nt" horiz-adv-x="460" 
d="M681 812q-85 -171 -153 -344q-34 -87 -66 -173l-29 -81q-16 -47 -33 -94q-3 -6 -7 -8h-3q-3 0 -6 1t-1 7q30 97 64 195q20 59 41 117l21 58q34 87 71 173q34 76 71 151q-2 0 -4 -1h-4q-50 -62 -101 -122q-51 -59 -106 -115q-27 -27 -57 -51q-14 -11 -30 -22q-1 -1 -4 -2
q-13 -10 -28 -17q-11 -5 -20 -5q-8 0 -15 4q-13 7 -14 22q-2 16 -3 32q0 5 1 9q-1 4 0 8l-1 1l1 2q-17 -13 -29 -28q-14 -16 -26 -33l-1 -2q0 -3 -1 -5q-2 -6 -7.5 -10t-10.5 -5h-4q-4 0 -7 2.5t-2 8.5q2 23 10 45q3 9 7 17q7 17 17 33q5 9 14 14l2 1h1v1q2 1 4 1l4 1l3 -1
q6 -2 5 -7q0 -2 -1 -3q-1 -3 -5 -6l-8 -24q-5 -9 -8 -19l-6 -18l12 14q9 11 19 21q12 12 23 25q4 4 9 4h2q4 0 6 -2q0 -4 2 -7q1 -1 1 -2q1 -3 2 -7v-2q1 -4 2 -7q0 -5 1 -10q1 -6 1 -13q1 -9 3 -18l2 -6l2 -4l2 -1h5q8 0 15.5 3.5t15.5 7.5q61 39 109 92q53 55 102 112
q39 45 77 92q-33 -3 -66 -7q-19 -1 -39 -3l-73 -8l-27 -4q-4 0 -10 -1h-3q-17 -3 -32 -3q-11 1 -9 12l1 2q1 3 4.5 6.5t9.5 5.5q19 3 38 4h5l40 2q39 2 80 5l59 4q18 2 36 3q25 32 50 65l1 4l14 24q12 22 24 42q5 7 8 13q3 4 6 9q7 11 17 21q3 4 6 4q4 0 6 -2t0 -6l-2 -8
q-6 -15 -14 -30q-4 -6 -5 -11q-11 -20 -22 -39q-1 -5 -4 -9q-19 -37 -37 -73q29 2 59 5l85 6q131 10 263 22q13 1 25 2q4 0 5 -3v-2q-1 -2 -3 -4.5t-6 -2.5q-81 -7 -162 -15q-126 -11 -251 -23l-25 -2z" />
    <glyph glyph-name="oa" unicode="oa" horiz-adv-x="522" 
d="M668 478q-36 -35 -81 -55q-26 -11 -49 -11q-17 0 -33 6q-35 16 -38 56q-2 17 3 36q-9 -10 -19 -19q-13 -13 -28 -23q-7 -5 -17 -9q-4 -1 -7 -1q-5 0 -9 2q-11 7 -5 24t16 30q20 30 51 52h-1l-24 -6q-59 -11 -115 -13q-28 0 -55 2h-6q1 -18 -4 -36l-3 -7q-12 -33 -39 -63
q-14 -17 -33 -20h-3q-8 0 -14 4t-9 11q-5 15 -1 35q2 10 5 19q4 9 9 18q9 19 22 37q6 8 18 20.5t19 13.5h3q7 0 3 -12q1 -3 0 -7q-1 -2 -4 -4l-1 -1l-4 -2q-1 -1 -2 -1h1h-1l-1 -1l-2 -2q-5 -5 -9 -11l-2 -1q-11 -15 -18 -32q-4 -7 -7 -15l-4 -14q-4 -14 -3 -27q1 -6 4 -10
q2 -2 5 -2q2 0 5 1q7 2 12.5 8t9.5 11l1 1q20 24 29 48q2 6 3 12q5 19 -1 33q-8 3 -11 11q0 2 1 4t3 3q3 2 6 2h3q6 -4 9 -10q4 -1 7 -1q11 -2 23 -2h27q86 0 180 25q11 5 20 6h2q8 0 13 -6q1 -2 0 -6q0 -1 -1.5 -3.5t-7.5 -4.5q-7 -2 -14 -6q-4 -2 -6.5 -3.5t-5.5 -2.5
q-1 -1 -2 -1h1h-1q0 -1 -0.5 -1t-1.5 -1q-2 -1 -3 -2l-6 -4q-6 -4 -12 -9q-20 -17 -35 -37q-2 -4 -5 -9q-1 -1 -2 -3q-2 -3 -4 -5l-1 -3q-1 0 -1 -1l-3 -7h4q12 4 22 14q13 10 24 21q13 13 24 27q2 4 4 7q5 8 11 14q1 1 2 1v1q2 3 5 3l2 1q1 0 3 -1t1 -4q1 -6 -1 -14l-1 -3
l-3 -12q-1 -6 -3 -11q-2 -11 -3 -22q0 -6 0.5 -9.5t1.5 -8.5q1 -8 3 -15q1 0 1 -0.5t1 -1.5q0 -2 1 -3q2 -4 4 -7q7 -10 20 -16q12 -4 25 -4q21 0 45 11q42 21 73.5 56.5t56.5 73.5q2 4 5 4h2q2 0 3 -1q2 -1 1 -4l-1 -2q-30 -49 -72 -93z" />
    <glyph glyph-name="of" unicode="of" horiz-adv-x="353" 
d="M166 513q5 15 16 31t25 26l4 2h-1l1 1q-2 2 -1 4q1 1 2.5 3.5t5.5 2.5q41 7 79 31q106 59 186 149q21 33 47 64q3 3 6.5 3.5t6 -1.5t1.5 -6q-9 -19 -21 -37q-88 -146 -163 -294q-10 -23 -22 -46l14 4q13 4 28 9q50 18 97 47q24 16 46 34q10 8 21 18q5 4 8 7l12 12
q2 1 4 1h2q1 0 2 -2l-1 -3l-1 -2q-9 -10 -19 -19q-3 -2 -5 -4q-13 -11 -25 -20q-46 -36 -97 -62q-26 -13 -51 -22q-14 -5 -27 -8l-7 -2h-1v-1l4 -22q10 -133 -32 -277q-11 -37 -23 -73l-6 -18q-10 -27 -22 -54q-10 -18 -20 -35q-11 -17 -24 -32q-15 -15 -32 -15h-2
q-7 2 -11 7.5t-6 12.5q-6 31 -5 66q2 34 10 70q16 73 43 148l5 14q54 150 130 299q39 77 82 153l25 40q-47 -46 -100 -83q-31 -21 -63 -38t-64 -23q8 -19 4 -43q-2 -13 -7 -26q-4 -13 -12 -26t-20 -23q-9 -6 -17 -6q-9 0 -13 6q-6 12 -4 28q1 12 5 24zM306 171
q34 131 20 248q-47 -103 -85 -206l-7 -21q-25 -69 -41 -138q-8 -35 -10 -68q-1 -16 1 -31v-4q0 -12 4 -22q3 -3 5 -3q1 0 4 1t8 6q14 15 25 31q21 34 34 68l5 14q23 63 37 125zM193 512q-2 -7 -3 -11.5t-3 -10.5q1 -5 0 -11q-1 -3 0 -5v-1v-1h2q3 2 6 5q8 9 13 19q3 6 5 12
q9 25 4 47q-3 -5 -5 -9q-4 -6 -7 -11q-2 -3 -5 -7l-2 -6l-1 -1z" />
    <glyph glyph-name="oh" unicode="oh" horiz-adv-x="610" 
d="M710 489q-21 -8 -40 -8q-7 0 -14 1q-25 5 -35 25q-11 22 -6 50q1 8 4 16v1h-2v-1q-3 -1 -6 -3q-5 -5 -12 -10q-91 -80 -158 -176l-2 -6q-1 -5 -3 -11q-2 -5 -7.5 -8.5t-9.5 -3.5q-5 0 -7 3.5t0 8.5q28 89 59 178l7 18q42 116 96 230q-25 -22 -51 -43q-61 -50 -129 -93
q-35 -22 -71 -40q-19 -8 -39 -14q6 -17 2 -38q-2 -7 -5 -15q-12 -33 -37 -62q-15 -18 -33 -30q-14 -9 -26 -9q-8 0 -14 4q-9 4 -11.5 13.5t-0.5 20.5q2 9 5 17q6 15 14 30q12 22 30 41q9 10 20 16q6 3 12 3q4 0 8 -2t3 -5q-1 -1 -2 -4t-6 -6q-1 0 -3 -1t-2 -2l-1 -1l-1 -1
h-1l-1 -2q-1 0 -2 -1l-12 -16q-12 -18 -20 -35q-4 -7 -6 -13q-3 -10 -5 -18q-2 -12 6 -17q2 -1 4 -1q3 0 8.5 3.5t11.5 8.5q13 12 25 27q16 22 24 45q3 8 5 16q4 16 -2 30l-22 -6q-4 0 -5 2t0 4v2q1 2 6 4q2 0 5 1q2 1 3 1q-2 2 -2 4l1 3q0 1 1.5 2.5t5.5 1.5q8 -1 12 -5
q28 10 53 23q40 20 76 44q97 61 181 138q11 22 21 43q42 78 93 153q26 37 54 71q11 15 26.5 27.5t33.5 16.5l4 1q1 0 2.5 -1.5t1.5 -4.5q-2 -18 -8 -35q-8 -22 -22 -43q-23 -36 -50 -71q-50 -65 -109 -125q-45 -85 -82 -172q-38 -89 -70 -177q-16 -44 -31 -88q26 35 56 67
q22 26 46 49q17 17 34 32q8 7 16 15q4 5 10.5 9.5t13.5 7.5q3 1 6 1q5 0 8.5 -2.5t5.5 -9.5q2 -8 1 -17q0 -5 -1 -9l1 -4v-2v-1v-3l2 -10q0 -2 1 -3v-1h1q0 -2 1 -4l6 -8l1 -1h1l1 -2q3 -1 4 -3h1q1 0 3 -1q1 0 0 -1h1q1 -1 2 -1h1q3 -1 4 -2q3 0 6 -1t4.5 -1t4.5 -1
q11 0 23 2q28 7 53.5 25.5t47.5 40.5q3 3 6.5 2.5t4.5 -2.5v-3q-1 -1 -2 -3q-51 -54 -115 -79zM707 978q-30 -47 -57 -95q49 51 91 107q22 30 42 61q9 14 16 29l2 5q5 12 5 24q-28 -20 -44 -49q-29 -40 -55 -82z" />
    <glyph glyph-name="oi" unicode="oi" horiz-adv-x="329" 
d="M329 574q-24 -8 -48 -11q-6 -1 -12 -1q3 -15 -1 -32q-2 -12 -6 -23q-10 -25 -29 -49q-16 -18 -37 -26q-6 -1 -11 -1q-14 0 -23 9q-13 14 -10 36q2 12 6 24q4 10 9 20q11 22 27 41q8 10 18.5 18.5t21.5 11.5q6 0 9 -3q3 2 4 2l2 1l2 -1q9 -5 13 -14h2q2 0 3 1q12 0 24 2
q45 8 89.5 32t83.5 57q2 2 4 2h1q3 2 5 3q4 3 8 3l2.5 -0.5t1.5 -5.5q2 -6 -2 -14.5t-7 -15.5l-1 -3q-2 -3 -4 -7q-6 -12 -12 -22q-16 -34 -28 -68q-8 -22 -15 -45q-4 -14 -8 -27q0 -1 1 -2q-4 -12 -6 -24q-6 -28 -11 -56v-2q-3 -7 -10 -11h-4q-2 0 -5 0.5t-3 4.5
q-2 31 3 64q8 50 26 101l7 17q12 30 28 60q6 11 13 22l-28 -20q-45 -30 -93 -48zM234 478q11 16 17 33q5 13 6 26q2 14 -1 25q-6 0 -12 1q-4 1 -7 3q-1 0 -2 1v-1h-1q0 -1 -1 -1l-6 -6l-1 -1l-3 -4l-1 -1l-1 -1v-1l-2 -1q0 -1 -0.5 -1.5t-1.5 -0.5q0 -2 -2 -3l-13 -20
q-5 -9 -8 -15l-8 -20q1 -2 0 -3l-1 -8v-9l-1 -2l1 -1v-1h1l-1 -1q1 -6 4 -10t8 -4t11 3q17 9 26 24zM534 749q1 -4 -1 -8q0 -2 -3 -6t-9 -7q1 0 1 1q0 -1 -1 -1h-1v-1q-3 -1 -4 -2h-1q-1 -1 -2 -1h-1h1l-2 -1q-1 -1 -2 -1h-1l-3 -1.5t-2 -0.5q-3 -1 -5 -1t-4.5 1.5t-1.5 6.5
v1h-1l3 7q0 2 2 3q0 2 2 3q0 1 1 2q6 8 15 11q6 2 10 2q7 0 10 -7z" />
    <glyph glyph-name="ol" unicode="ol" horiz-adv-x="501" 
d="M442 578q48 117 110 233q13 25 28 51q-59 -70 -130 -129q-83 -68 -177 -107q16 -23 9 -58q-3 -18 -10 -35q-9 -26 -26 -52q-6 -9 -13 -17.5t-17 -14.5q-7 -4 -13 -4q-3 0 -8.5 1.5t-8.5 9.5q-7 17 -3 39q3 22 11 44l3 9q7 18 17 36q6 11 14 22q1 1 1 2q3 4 7 9q4 3 7 5
l3 2q1 1 3 1h4q1 2 2 3.5t4 2.5q54 21 107 54q96 61 173 144q39 43 74 88l1 3q2 2 3 5q17 28 35 56q2 3 5 7q6 10 14 20q10 14 21 28q3 4 6 6q3 1 6 1h3q3 -1 3 -5v-4l-2 -3q-3 -5 -4 -10q-6 -9 -11 -17q-10 -19 -22 -36l-12 -20q-17 -27 -33 -54q-32 -55 -61 -111
q-58 -111 -104 -223q-14 -33 -26 -66q-8 -23 -16 -45q-8 -26 -12 -51q-4 -24 2 -43q7 -12 22 -12q6 0 21.5 5t37.5 19q42 29 76 66l35 38q50 58 110 105q2 1 4 1h2q2 -1 2 -4l-1 -1q0 -2 -3 -4q-10 -7 -20 -16q-47 -41 -87 -88q-29 -32 -59 -62q-38 -39 -84 -64
q-22 -12 -42 -12q-6 0 -11 1q-22 6 -25 29q-8 49 13 106q9 29 20 58q10 29 22 58zM270 574q2 15 -1 27.5t-14 19.5v-3l-2 -8l-4 -8q-1 -1 -2 -3q-6 -11 -12 -21q-7 -15 -13 -30l-3 -10q-6 -18 -8 -35q-3 -18 -3 -33q0 -3 1 -4.5t3 -2.5q2 0 4 1l4 2q7 7 12 14v1q6 9 12 19
q10 17 16 35q8 19 10 39z" />
    <glyph glyph-name="ong" unicode="ong" horiz-adv-x="690" 
d="M551 170q33 65 56 130l5 13q17 46 31 92q-1 -2 -3 -3t-3 -2q-56 -47 -102 -99q-53 -56 -93 -118q-23 -34 -38 -69l-4 -11q-9 -26 -10 -52q0 -11 4.5 -20t15.5 -11q14 0 28.5 9t25.5 20q55 55 87 121zM580 513q-18 -9 -37 -16q-33 -14 -64 -14q-32 1 -44 25q-5 12 -5 27
q-1 6 0 14q-2 -3 -5 -5q-8 -7 -14 -14l-2 -2l-30 -34q-16 -18 -31 -37l-6 -8l-7 -14q-2 -4 -5.5 -6.5t-7.5 -3.5q-2 -2 -4 -2t-2 2q-4 1 -6.5 3.5t-1.5 6.5q4 17 10 35q3 8 7 17q10 25 25 49q14 22 34 40q-23 -4 -45 -6q-17 -1 -33 -1h-17q-20 2 -40 5q-4 -37 -16 -76l-3 -9
q-5 -13 -12 -27q-9 -18 -23 -33q-8 -8 -18 -13q-8 -4 -14 -4h-5q-9 2 -12 10t-3 17q0 26 10 54q4 10 8 19q8 18 21 36q7 10 15 19q8 8 18 13q3 2 5 2t4 -2t1 -7l-2 -5q-3 -7 -7 -14l-10 -16q-5 -9 -8 -15.5t-7 -15.5l-5 -13q-9 -23 -11 -44q-1 -5 -1 -9q0 -1 -1 -3v-1h1v-1
h1q-1 -1 0 -1h2q6 1 11.5 6.5t9.5 10.5q14 21 23 44q3 10 8.5 30.5t8.5 50.5q1 2 0 3q1 3 4 5t6 2q20 -3 40 -4h19q14 0 30 1q22 1 46 5q12 2 23 4h1q9 6 19 11q2 1 3 1q3 0 4 -2q2 -1 1 -5l-1 -2q-5 -7 -10 -10q-13 -13 -23 -26l-1 -2l-1 -1q-1 -1 -2 -3l-1 -1q-4 -5 -7 -9
q-6 -9 -12 -19q-12 -20 -20 -42l-1 -3q11 14 23 27q15 18 33 37l6 6q11 13 26 22q3 2 6 2q1 0 4 -1t4 -5q2 -7 3 -16l1 -8q1 -6 2 -11q1 -3 2 -5v-1l2 -3q2 -5 4 -9h1l2 -2q2 -1 4 -3q9 -5 21 -5q27 0 55 11q22 8 43 19q10 12 21 22q16 17 35.5 28.5t39.5 11.5q18 -1 27 -13
q7 -13 2 -31q0 -2 -1.5 -3t-3.5 -1q-1 0 -2 1l-3 8q-2 9 -7 15q-5 3 -12 2.5t-13 -3.5q-13 -6 -26 -17l-1 -1l-1 -1h-1q-1 -1 -1 -2q-4 -3 -6 -5l-1 -1l-12 -12l-13 -14q-1 -2 -3 -4l1 1l-2 -2l-4 -6q-5 -7 -10 -15v-1l-2 -4l-2 -5q1 1 2 1q6 3 13 7h1l29 20q30 22 55 49
q3 3 6 2.5t4 -2.5v-2l-2 -4l-2 -1v-1q1 -1 0 -3q-2 -18 -7 -37q-9 -36 -18 -69q109 81 226 134h2q2 0 4 -1.5t1 -4.5t-5 -5l-31 -14q-105 -49 -199 -122l-4 -12q-14 -46 -32 -96q-10 -29 -22 -59q-27 -72 -70 -143q-22 -34 -50 -64q-26 -31 -61 -48q-16 -7 -28 -7
q-17 0 -28 13q-12 21 -4 51q4 20 11 40q19 52 57 103q85 119 204 213q7 21 14.5 50.5t18.5 59.5q-24 -23 -51 -43q-6 -5 -14 -9l-5 -5q-10 -7 -20 -10q-5 -2 -10 -2t-10.5 3.5t-4.5 14.5q1 6 3 12t5 11z" />
    <glyph glyph-name="ont" unicode="ont" horiz-adv-x="669" 
d="M878 825q-62 -142 -116 -284l-11 -29q-53 -145 -96 -290q-2 -4 -5 -6h-4q-1 0 -3.5 1t-1.5 5q26 90 54 179q36 112 77 224q17 48 35 96q20 52 43 103h-15q-9 0 -18 -1q-87 -118 -193 -226q-29 -30 -60 -58q-30 -28 -66 -35q-7 -1 -13 -1q-26 0 -33 24q-2 12 0 25
q-1 1 0 3q0 3 -1 6q1 1 1 1.5t-1 1.5h1h-1l1 2q-27 -20 -49 -45q-17 -18 -33 -38q-5 -10 -10 -19q-7 -8 -14 -8t-8 8q2 11 5 22q3 8 8 16q8 19 18 37q13 24 31 48h-1q-1 -1 -2 -1q-12 -5 -25 -9q-25 -9 -50 -14q-49 -11 -95 -12q0 -23 -9 -48q-4 -12 -13.5 -25t-22.5 -19
q-6 -3 -11 -3q-7 0 -11 7q-5 11 -3 24q2 12 7 25q6 16 16 33q5 7 13 17t17 15q5 3 9 3t8 -3q3 -3 1 -7q-1 -4 -6 -7h1q48 1 100 12q24 5 48 13q13 4 25 9q3 1 4 1q11 4 21 11q2 2 4 2h2q2 0 3.5 -2t0.5 -5q-7 -17 -17 -33q-2 -1 -2 -3q-10 -17 -19 -34q-6 -11 -11 -22l14 16
l22 22q19 18 34 36q3 3 7 5l4 1l3 -1q14 -7 15 -23v-16v-3l-1 -1h1v-2q0 -2 1 -5v-2v-2v-1h1q1 -2 2 -5q1 0 1 -1h1l1 -2h1q1 0 1 -0.5t1 -0.5q0 -1 2 -1q5 -1 10 -1q8 0 18 3q15 6 29.5 17.5t26.5 23.5l3 3q30 27 59 57q57 58 108 121q29 36 57 73h-19q-76 -3 -149 -5
l-76 -4q-12 0 -23 -1q-26 -2 -52 -2q-6 0 -6 4q-1 2 0 4q1 3 3.5 6t9.5 4q29 2 59 2h25l64 2h20q36 1 70 2l85 2q57 79 113 159q0 1 1 2l2 6q4 8 10 17q5 9 12 18q4 6 10 6q2 0 4 -1.5t1 -4.5q-2 -11 -6 -23q-3 -8 -7 -16l-3 -7q-6 -15 -13 -30q-3 -7 -7 -14q-4 -10 -8 -21
l-31 -68q-3 -8 -7 -16l-2 -5q12 1 24 1q25 0 50 1q75 2 148 3q38 1 75 1q7 0 13 1q31 0 61 -1q4 0 3 -3v-2q0 -1 -1.5 -3.5t-5.5 -2.5q-34 -3 -67 -3h-19q-41 0 -83 -1q-102 -2 -204 -5zM190 482q10 11 15 23q9 25 7 47q-1 0 -1 -1l-3 -3q-7 -11 -12 -23l-6 -14t-4 -14
q-2 -4 -3 -10q1 -2 0.5 -4t-0.5 -4q1 -1 1 -2v-1l3 2zM874 880l27 60q-31 -44 -62 -86l-8 -10l-4 -6h29q8 21 18 42z" />
    <glyph glyph-name="oo" unicode="oo" horiz-adv-x="302" 
d="M330 459q-3 13 2 30q2 8 5 16t6 15q7 16 18 31l-19 -6q-26 -8 -50 -9q-22 0 -39 8q0 -13 -2 -26q-3 -11 -7 -22q-8 -24 -26 -47q-5 -8 -13 -15t-17 -10q-6 -2 -11 -2q-4 0 -10 1.5t-11 7.5q-10 15 -5 36q2 17 8 33l3 7q8 21 23 42q13 21 35 36q4 2 8 2t5 -3q1 2 5 3h1
q2 0 3 -1q1 -2 1 -3l1 -1l9 -8q6 -5 13 -9q16 -7 34 -9q7 -1 15 -1q14 0 30 4q13 3 24 7q1 0 2 1h1q7 8 16 13q3 1 5 1q3 0 5 -2q2 1 3 1q2 0 4 -1q9 -9 8 -24.5t-6 -30.5l-3 -9q-10 -26 -28 -50q-11 -14 -26 -18q-3 -1 -6 -1q-5 0 -8.5 3.5t-5.5 9.5zM368 520
q-5 -10 -8 -20q-5 -14 -8 -27q0 -1 1 -1q-1 -2 -1 -4.5t1 -3.5q0 -1 2 -1h2q4 2 8 7t6 9q2 1 2 2q12 17 19 35l4 14q3 9 4 19.5t-4 17.5l-9 -16q-3 -3 -4 -5q-8 -13 -15 -26zM219 467q10 16 15 31q10 28 7 54l-6 4q-6 5 -8 12q-3 -5 -7 -9l-1 -3q-5 -8 -9 -15
q-12 -18 -19 -36l-5 -11q-4 -12 -7 -24v-1.5v-1.5t-1 -2l-1 -8q-1 -7 1 -13q2 -5 6 -6h2q5 0 11 4t11.5 11t10.5 14z" />
    <glyph glyph-name="or" unicode="or" horiz-adv-x="422" 
d="M434 509l-8 -24q-3 -8 -5 -15l-1 -2q-1 -3 -3.5 -5t-5.5 -2q-4 0 -5 3q-6 25 -4 52q1 46 18 94l2 6q9 23 20 46q-9 -7 -19 -15q-43 -32 -91 -56q-26 -14 -51 -20q-7 -2 -13 -3q1 -23 -8 -49q-6 -17 -16 -33q-11 -18 -27 -31q-15 -11 -29 -11q-4 0 -8 1q-7 3 -11 9.5
t-5 14.5q-1 23 8 47q6 16 15 32q12 19 28 35q7 8 18 15q8 6 15 6q2 0 4 -1q3 -2 4 -4.5t0 -5.5q1 1 3 1h2q1 0 2 -2v-1q1 0 1 -1q3 0 6 1q12 1 25 5q45 14 88 39q21 12 42 27q9 7 19 15q4 3 9 7l4 4l1 1l1 1q6 8 14 11h3q4 0 7 -2t3 -5l-1 -3q-1 -2 -3 -4t-2 -4l-1 -1
q-2 -4 -4 -9q-1 -1 -2 -3q-6 -13 -11 -25q-7 -15 -12 -30q-11 -29 -17 -57q-4 -20 -8 -41l19 42q17 35 39.5 68t56.5 59q15 12 32 20q17 9 36 10q13 0 25 -3q5 -1 11 -1h7h8t13 4q2 1 4 1q1 0 2 -1t2 -4l-1 -2q0 -2 -2 -4q-14 -15 -35 -19q-7 -1 -14 -1q-9 0 -18 2
q-3 1 -9 1q-5 1 -10 1q-23 0 -48 -15q-34 -23 -54 -57q-21 -34 -38 -70q-9 -20 -17 -39zM224 477q17 22 25 44q8 23 7 47q-11 1 -15 8l-3 -3q-2 -2 -3 -4q-3 -2 -4 -4h1v1q0 -1 -0.5 -1t-1.5 -1q-12 -16 -21 -33q-2 -4 -5 -12q-4 -7 -7 -15q-2 -8 -4 -14.5t-3 -14.5
q0 -5 1.5 -9.5t7.5 -4.5q7 0 13 5t12 11z" />
    <glyph glyph-name="os" unicode="os" horiz-adv-x="473" 
d="M683 577q4 0 5 -2t-1 -5q-1 -3 -5 -4q-66 -16 -130 -56q3 -25 -8 -53q-4 -11 -10 -23q-22 -40 -59 -73q-19 -17 -41 -20h-2q-19 0 -22 18q0 11 4 23l6 14q10 20 26 38q30 36 69 63l18 12q-6 26 -20 48q-25 32 -23 77q1 12 5 24q4 11 10 21q-65 -39 -135 -60
q-27 -8 -54 -13q-2 -19 -9 -38l-3 -8q-7 -19 -18 -37q-11 -20 -29 -35q-17 -14 -34 -14h-5q-18 5 -21 23q-6 30 6 63q3 10 8 19q10 21 27 39q0 1 2 2q2 2 4 5q1 2 1 4l1 4q3 6 6 11q8 8 18 12q5 2 11 2q3 0 7 -1q17 -4 23 -18q3 -8 4 -16l28 4q35 6 70 18q56 21 109 55
q6 7 15 13q9 8 20.5 12.5t21.5 4.5h7q4 -1 8 -3q3 -2 2 -6v-5l-1 -3q-3 -3 -5 -3h-2q-1 0 -2 1q-1 0 -3 -1q-2 0 -1 1h-2q-2 -1 -2.5 -1.5t-1.5 -0.5l-3 -2q-1 0 -2 -1q-2 -1 -3 -1q-1 -1 -2 -1v-1q-5 -3 -9 -6l-2 -1q0 -1 -1 -1l-1 -1q-2 -1 -3 -3l-8 -8l-1 -1l-2 -2
q-1 -2 -3 -3q-2 -5 -5 -9l-7 -19q-2 -11 -2 -23q0 -9 2 -19q2 -11 5 -21q4 -12 9 -24q8 -20 12 -42q65 39 133 57zM287 645q-4 2 -8 2q-3 0 -9.5 -1.5t-9.5 -9.5l-1 -3h1q4 0 7 -2t1 -6h1q2 -1 3 -1q11 -2 22 -2h8q-2 16 -15 23zM276 527q12 19 18 38q7 17 9 34v6
q-11 -1 -22 -1q-13 1 -23 5l-1 -3l-5 -8q-3 -4 -6 -9t-5 -8.5t-3 -7.5l-7 -19q-3 -8 -5 -16l-1 -1q-1 -3 -1.5 -7.5t-0.5 -8.5q0 -2 -1 -4q-1 -6 -0.5 -12.5t4.5 -10.5q3 -2 8 -2q1 0 5.5 1t10.5 5q16 13 26 29zM509 420q13 18 20 37t7 39v2q-1 0 0 1q-19 -12 -35 -26
q-36 -29 -59 -67q-7 -11 -11 -21q-2 -7 -4 -13q0 -4 0.5 -7.5t4.5 -4.5q3 -1 6 -1q4 0 8 1q9 4 18 11t15 14q17 16 30 35z" />
    <glyph glyph-name="ot" unicode="ot" horiz-adv-x="411" 
d="M399 348q68 174 148 348q27 59 55 118q-4 0 -8 -1h-23q-43 -48 -92 -91q-50 -42 -104 -75q-56 -36 -114 -44q7 -30 -3 -64q-2 -8 -5 -16q-10 -27 -27 -52l-11 -16l-2 -2q-5 -7 -11 -12q-10 -7 -19 -7h-2q-8 0 -13 6q-4 6 -5 13q-1 9 1 19q2 19 9 39l3 7q13 37 43 69
q5 5 10 5t8 -4q1 -2 0 -7l-2 -3q-3 -7 -7 -15q-15 -24 -24 -49l-2 -7q-4 -9 -6 -17t-3 -17v-2l-2 -14l1 1q1 0 0 -1h-1q1 0 1 -1q1 0 2 -1q6 3 11 9q9 10 15 20q13 20 21 41q16 44 6 80v3q1 2 3 4t5 2q36 2 72 20q31 15 61 35q95 61 170 144q-46 -1 -92 -3q-31 -1 -61 -3
h-12q-16 -1 -32 -1h-16q-5 1 -6 5v5q1 3 4 6t10 4q17 1 35 1h32q33 -1 66 -1q38 1 76 1h9q0 1 2 2q0 1 1 2q59 68 105 140q18 36 41 71q4 5 8 6h3q3 0 5.5 -1.5t0.5 -7.5q-9 -25 -23 -50q-9 -19 -19 -39q-3 -4 -5 -9l-22 -42l-27 -54q-2 -5 -5 -9q-1 -4 -4 -8q46 1 90 1
l119 2q18 1 35 1q42 1 84 1q4 0 4 -3v-3q-1 -1 -2.5 -3.5t-5.5 -2.5q-48 -2 -94 -2q-20 -1 -40 -1q-98 -2 -197 -4q-78 -156 -145 -313q-74 -174 -138 -348q-3 -6 -8 -7q-2 -1 -3 -1q-2 0 -4.5 1t-0.5 7q11 32 23 65q23 65 50 130zM583 827q6 0 12 1h14l6 14q7 13 13 27
q10 19 19 39q-30 -41 -64 -81z" />
    <glyph glyph-name="ott" unicode="ott" horiz-adv-x="672" 
d="M713 452q-29 -73 -55 -147q-47 -128 -90 -257q-1 -5 -5 -7h-4q-2 0 -4 1t-2 6q38 113 79 227l32 90q58 157 120 314q41 100 83 201l2 6q-43 -75 -89 -149q-45 -73 -95 -144q-47 -69 -101 -133q-27 -32 -58 -60q-14 -13 -31 -23q-13 -8 -26 -8q-4 0 -7 1q-14 4 -17.5 17.5
t-1.5 27.5q4 37 16 76q8 26 17 52q17 46 38 92l2 5q31 75 68 149q22 46 47 92h-5q-56 -69 -123 -131t-144 -109q-37 -22 -75 -39l-5 -2q-7 -2 -14 -7q-3 -3 -4.5 -7t-3.5 -8l-2 -12q-2 -14 -7 -29q-3 -12 -7 -24q-11 -30 -29 -59q-9 -16 -23 -30t-32 -20h-3q-2 0 -4 0.5
t-2 3.5v6q-1 9 -1 19q1 11 3 23q2 15 8 31q4 10 9 20q11 26 28 50q8 12 18 24q6 6 10 11q5 5 12 10q1 0 1 1q5 3 9 3q2 0 5.5 -2t2.5 -9q2 5 9 9q8 5 14 7q3 1 4 2q10 4 19 9q38 17 74 40q72 47 135 107q55 53 103 111h-33q-45 -1 -92 -3l-45 -2q-7 0 -14 -1q-16 -1 -33 -1
q-7 1 -7 6q-1 3 0 5q1 3 4 6.5t11 4.5q18 0 36 -1h15q26 -1 51 -1q50 0 101 1h17q29 34 56 69q13 24 29 48q22 37 51 72q4 4 8 5l4 1l3 -1q3 -2 3.5 -5.5t-1.5 -7.5q-10 -18 -21 -35q-47 -72 -87 -146q99 1 199 4l36 64q1 3 4 7l4 11q11 25 22 51q3 4 5 9q9 21 21 43
q3 6 10 8h3q3 0 6.5 -2.5t1.5 -8.5q-8 -21 -17 -42q-4 -8 -8 -15q-7 -17 -15 -34l-11 -24q-9 -21 -19 -43l-11 -24l71 2q182 4 365 10q5 0 5 -4v-3q-1 -1 -3 -4t-7 -3l-101 -2q-52 -2 -104 -3q-116 -3 -232 -5q-1 -3 -3 -7l-12 -26q-88 -200 -164 -401zM211 478q10 19 17 38
l3 10q8 24 13 47q0 5 2 11l2 5q-2 -5 -7 -10q-1 -1 -2 -3q-3 -3 -6 -7q-7 -9 -15 -20t-14 -22q-3 -6 -5.5 -10.5t-5.5 -10.5q-5 -11 -9 -23q-5 -12 -8 -24q-5 -16 -7 -33l5 2q8 6 15 13q13 18 22 37zM798 783q32 51 60 102h-32q-32 -1 -66 -2q-27 0 -53 -1q-23 0 -46 -1
q-34 -61 -63 -123q-35 -73 -65 -146q-3 -6 -6 -13q-20 -44 -36 -88q-8 -22 -15 -44q-6 -18 -9 -35l1 -1q-4 -15 -3 -28q0 -5 2 -9.5t6 -5.5q2 -1 5 -1q4 0 9.5 2t12.5 7q33 23 59 52q28 29 52 61q103 133 187 274z" />
    <glyph glyph-name="on" unicode="on" horiz-adv-x="495" 
d="M450 565q-15 -23 -25 -44q-8 -17 -14 -34q-8 -21 -13 -42q10 13 21 27q5 5 10 11q2 3 4 5q17 23 37 45q10 10 20 19q2 2 4 3l7 7q2 2 4.5 4t5.5 3q2 1 4 1q4 0 7 -3.5t3 -9.5q-2 -11 -5 -22l-2 -4q-6 -21 -4 -40q0 -10 5 -17q4 -6 12 -10q9 -3 18 -3q14 0 34.5 8t43.5 25
q45 34 76 80q3 3 5.5 3.5t4.5 -1.5q2 -1 1 -3l-1 -2q-25 -36 -59 -66q-30 -27 -66 -45q-25 -12 -47 -12q-12 0 -23 3q-31 9 -34 41q0 16 5 34l7 19q2 1 2 2l1 2q-3 -3 -6 -5l-2 -2q-8 -7 -15 -15q-14 -14 -27 -30q-15 -18 -29 -37q-4 -6 -9 -12q-8 -12 -18 -24l-1 -1
q-3 -4 -8 -5h-3q-3 0 -5 1.5t-2 5.5q-1 25 6 53l6 18q6 18 15 35q13 25 29 48l-18 -8q-59 -25 -116 -26h-8q-22 0 -41 4q3 -21 0 -44q-3 -21 -11 -42q-10 -28 -29 -56q-6 -10 -15 -20t-20 -15q-7 -3 -12 -3t-11 2.5t-10 11.5q-8 19 -4 43q1 25 11 52l2 7q9 23 23 46
q8 12 17.5 24t22.5 14q-1 2 -2 5v3l3 3t5 2h3q9 0 15 -6t9 -15q8 -2 17 -3q18 -3 36 -3q70 0 145 40l10 12q6 7 14 10q3 2 6 2q4 0 6 -4q1 -1 1 -2q1 -2 1 -4l-3 -3l-2 -1v-1h-1l-1 -1q-2 -3 -2 -5q-2 -3 -4 -5q-1 -3 -4 -7q-4 -5 -6 -9q-4 -6 -7 -12zM236 513q1 20 -2 38v1
h-1q-6 3 -11 6l-1 -2q-4 -7 -12 -9l-1 -1q-1 -1 -2 -1v-1q-4 -5 -7 -10q-1 -1 -1 -2q-9 -12 -15 -24q-12 -23 -21 -47q-7 -22 -10 -43q-1 -9 -0.5 -17.5t4.5 -14.5q4 -4 9 -4q2 0 7 2t12 10q16 17 26 37q9 16 15 33q9 24 11 49z" />
    <glyph glyph-name="ow" unicode="ow" horiz-adv-x="520" 
d="M392 542q14 20 28 38q4 5 7 9q-1 -1 -2 -1l-16 -6q-50 -16 -98 -19h-11q-18 0 -34 2q2 -16 -3 -35q-2 -9 -6 -18q-9 -26 -28 -52q-5 -8 -13 -15.5t-18 -9.5q-3 -1 -6 -1q-5 0 -10.5 3t-8.5 9q-5 16 -3 34q1 19 8 39q7 19 18 39q5 9 13.5 19.5t19.5 13.5h2q4 0 6 -2h4
q1 1 2.5 1.5t3.5 0.5q4 -3 8 -5v-1h1q11 -2 23 -4q19 -2 38 -2q60 0 124 24l10 8l3 2q5 4 9 4q1 0 2 -1q3 -1 3 -4q1 -2 0 -4q0 -2 -3 -4l-2 -2q-1 -3 -3 -5q-2 -4 -6 -8v-1l-10 -14q-2 -2 -4 -5q-13 -17 -26 -35q-23 -34 -38 -69l-3 -8q-1 -3 -3 -8.5t-1 -11.5q0 -2 1 -3.5
t3 -1.5q4 1 7 3t7 4q31 22 52 52q21 27 40 55v2l4 5q2 3 5 7q2 3 5 3.5t6 -1.5q1 -1 2 -3q1 -8 -2 -16q-1 -4 -3 -9q0 -3 -1 -7q-3 -13 -5 -28t-2 -29v-6.5t1 -5.5q0 -7 2 -14q1 -5 3 -11l1 -2q0 -1 1 -1q0 -2 1 -4l3 -5h1v-1h1l1 -1q1 -1 4 -2l-1 -1h2q2 -1 3 -1h2v-1h5
l1 1h3l1 1h2q11 5 20 13q24 23 38 49q19 29 31 58q6 14 11 27q17 46 20 91q1 10 -2 20t-11 15q-6 3 -13 3h-4q-8 -1 -17 -7q-3 -3 -6 -3h-4t-5 3t0 7q1 4 6 8q15 11 30 12h4q14 0 23 -6q11 -8 13.5 -22t0.5 -29q-3 -32 -12 -65q-4 -17 -11 -34q-6 -17 -14 -35
q-14 -33 -36 -65q-18 -29 -45 -52q-21 -15 -40 -15q-9 0 -19 4q-22 14 -25 43q-5 28 2 60q0 3 1 7q-12 -16 -24 -31q-13 -16 -28 -30q-8 -7 -16.5 -14t-17.5 -10q-6 -2 -11 -2q-12 0 -16 11q-5 16 2 36l2 7q6 17 16 34q12 20 24 38zM229 476q11 18 18 38q4 11 7 22
q3 17 -2 31l-9 2q-1 0 -3 1q-3 1 -8 2l-2 -2q-1 -2 -3 -5q-5 -8 -10 -17q-8 -16 -15 -33q-5 -14 -8 -28v-3q-4 -13 -3 -26q1 -5 4 -9q2 -1 4 -1q3 0 8 3q7 5 12.5 11.5t9.5 13.5z" />
    <glyph glyph-name="ph" unicode="ph" horiz-adv-x="637" 
d="M562 513l-1 1v1v1v1q1 1 0 1q-3 -1 -5 -3l-11 -11q-13 -14 -24 -28q-22 -28 -42 -57l-19 -30q-3 -3 -4 -5l-12 -18l-3 -10q-2 -5 -7 -7q-2 -1 -4 -1t-4.5 1.5t-0.5 6.5q11 39 25 78q8 23 18 46q44 110 107 218q30 53 65 104q-73 -78 -155 -149q-51 -44 -103 -87
q-6 -5 -11 -9q-9 -8 -19 -15l-11 -10q-1 -10 -3 -20q-3 -19 -10 -38q-6 -16 -14 -32q-17 -36 -45 -68q-12 -14 -29 -24q-11 -7 -21 -7q-5 0 -9 2q-13 6 -11 22q1 12 5 24l2 6q15 33 40 62q27 29 58 55l2 2l3 2v2q0 3 1 7q2 15 2 29q1 1 0.5 1t-0.5 1v1v2t-1 3q1 1 0 1
q0 1 -1 2h-1l1 1l-3 3q-2 1 -4 1t-4 -1q-6 -2 -11 -5q-12 -9 -21 -20q-26 -31 -47 -63q-44 -63 -78 -130l-12 -26l-28 -76q-44 -127 -70 -252l-1 -2q-1 -4 -4 -6q-3 -1 -5 -1h-4t-2 5q13 71 30 143q24 103 61 206q9 24 19 48q26 64 56 128q15 33 32 66q1 1 2 3q14 30 36 59
q4 6 10 6h2q4 0 5 -2.5t0 -6.5l-3 -9q-9 -22 -21 -45q-4 -9 -8 -17q-17 -35 -34 -71l-35 -80q33 56 75 109l4 6q17 26 44 46q13 8 25 8h4q16 -3 20 -18q3 -13 2 -28q6 5 11 9l23 20q56 45 111 92q122 103 215 227q4 4 8 4q4 5 9 10q2 2 4.5 3.5t5.5 1.5h2q1 0 2 -0.5t2 -1.5
q-1 -1 0 -1q1 -2 1 -4l-1 -3l-1 -2q-12 -22 -29 -43q-6 -8 -11 -16l-40 -58q-68 -104 -120 -211q-28 -54 -51 -108q-12 -29 -23 -58q1 2 3 5q5 8 11 16q21 32 47 64l6 8q9 10 16 20q6 7 11.5 12t13.5 7q3 1 5 1q6 0 10 -4t5 -11q1 -5 4 -9q0 -7 2 -13l1 -2q2 -5 3 -9
q1 -2 2 -5q0 -1 1 -1v-1q1 0 0 -1q5 -10 11 -18q2 -2 3 -5h1q0 -1 2 -2q4 -4 9 -7q8 -5 18 -7q6 -1 12 -1q46 0 92 35q28 21 51 45q13 14 25 27q10 13 22 25q1 2 4 2t5 -2v-3l-1 -2q-23 -30 -50 -57q-26 -28 -57 -51q-54 -38 -111 -41q-27 0 -45 15q-18 16 -24 40
q-5 10 -5 22zM294 468q6 15 11 31v2q-24 -21 -45 -44q-24 -27 -37 -57l-4 -8q-3 -10 -3 -19q0 -4 3 -7q2 -2 4 -2q1 0 3 1t4 2.5t4 2.5q5 5 10 11q1 1 1 2q2 1 2 3h1q3 4 5 7l9 14q11 16 18 31l1 1q0 1 0.5 1.5t1.5 0.5l2 7q2 2 3 4z" />
    <glyph glyph-name="pp" unicode="pp" horiz-adv-x="495" 
d="M528 493q21 14 43 25l6 14q3 9 5 18l3 9q1 2 1 4v1q2 7 2 14v1v2q1 1 0 1v5q-1 1 -1 2q-1 0 0 1l-2 3h-1q0 1 -1 1v1h-1q-1 0 -2 0.5t-2 0.5q-8 -1 -15 -5.5t-14 -10.5q-31 -29 -54 -64q-27 -37 -48 -74q-13 -21 -25 -43q-7 -15 -16 -30l-6 -17q-21 -59 -41 -119
q-10 -30 -19 -60l-6 -18q-5 -21 -13 -41q-2 -4 -4 -5q-3 -1 -5 -1h-3.5t-1.5 4q5 26 13 53q3 8 5 15q9 34 19 67q29 96 64 192l17 48q23 59 48 118q10 22 21 43q-68 -64 -147 -112q0 -1 -1 -1q-1 -1 -2 -1l-3 -9q-19 -53 -58 -102q-11 -13 -21 -22q-12 -11 -26 -17
q-8 -3 -15 -3q-14 0 -18 15q-1 12 4 25q3 8 8 17q14 22 35 40q27 23 57 42q6 17 12 35q0 3 1 6l2 4q1 6 1 12l2 8q2 8 2 16v1q-1 1 0 2h-1q1 0 0 -1l-2 4h-4q-5 0 -10 -3.5t-9 -7.5q-8 -9 -15 -18q-1 -2 -3 -5q-11 -12 -21 -25q-19 -26 -37 -52q-37 -52 -70 -105
q-16 -26 -32 -53q-7 -12 -14 -25q-1 -2 -3 -5l-22 -60q-18 -57 -34 -114q-2 -5 -7 -7q-3 -1 -5 -1t-4.5 0.5t-1.5 5.5q15 65 37 130q8 24 17 49q33 91 78 182q29 57 63 113q16 29 34 56v1q18 28 39 54q4 4 7 4h2q3 0 5 -2t1 -6q-13 -25 -29 -50l-9 -14q-19 -31 -36 -62
q-62 -107 -109 -216q52 87 114 170q2 2 2 3q19 26 39 51q17 24 45 32q4 1 7 1q5 0 8 -3q5 -3 7 -9q5 -11 3 -26q-2 -22 -9 -44q88 53 159 126l11 20q5 8 10 15l2 2q2 3 4 5l4 4q2 1 3 1q2 2 5 2q1 0 3.5 -0.5t3.5 -4.5l-1 -2l-2 -8l-1 -3q-2 -2 -3 -5q-3 -7 -8 -14l-1 -2
q-8 -15 -15 -30q-15 -32 -29 -64q-34 -79 -64 -157q10 16 19 31q28 47 62 91q14 19 31 36q8 7 17 14.5t19 11.5q9 3 16 3q10 0 18 -9t8 -26q-1 -18 -9 -38l-3 -10l4 2q47 22 95 40h2q2 0 3.5 -1.5t0.5 -4.5q-1 -2 -5 -4q-46 -17 -92 -38l-10 -5q-2 -1 -4 -1q-4 -9 -9 -18
q-21 -39 -56 -72l-1 -1q-7 -7 -16 -14t-20 -9h-4q-6 0 -10 4.5t-4 12.5q1 8 4 15q4 11 15 25t28 27zM542 466q13 19 23 39q-17 -9 -34 -21q-17 -13 -28 -30q-4 -6 -7 -14l-1 -3q-3 -7 0 -12q1 -3 4 -3q2 0 7 3t12.5 12t14.5 17.5t9 11.5zM300 504l2 3q-23 -15 -43 -32
q-19 -17 -33 -37q-6 -10 -10 -21q-2 -4 -2 -9t2 -8q2 -4 5 -4q1 0 4.5 1t9 6t9.5 9q2 2 4 6q1 1 2 3l5 8l4 4q8 12 15 24q2 1 2 2q7 11 13 23q4 6 6.5 10.5t4.5 11.5z" />
    <glyph glyph-name="rr" unicode="rr" horiz-adv-x="369" 
d="M502 629v1.5t-1 0.5h-1l-1 -1q-5 -4 -11 -9q-12 -12 -23 -24q-21 -26 -37 -54l-16 -28q-1 -3 -3 -6l-2 -5l-1 -10q-2 -6 -7 -10q-4 -2 -7 -2q-1 0 -4 0.5t-4 6.5q-1 40 15 84q4 12 10 23q-24 -12 -48 -14h-7q-13 0 -25 5.5t-19 17.5q0 2 -1.5 4t-0.5 3h-2q-1 -1 -2 -1
q0 -1 -1 -2l-7 -6v-1q-16 -18 -30 -37q-29 -38 -51 -78q-10 -20 -19 -40l-5 -12q-1 -7 -3 -15q0 -3 -1 -6q-1 -7 -3 -14q-3 -7 -8 -13q-5 -4 -9 -5h-3q-2 0 -5 1q-6 6 -4 15v3q0 6 2 13q3 14 5 28q8 39 22 78q6 15 12 29q12 28 30 53l1 2q4 5 9 11t11 9q3 1 5 1t4 -1
q4 -2 2 -6l-1 -2l-3 -3l-2 -6q-2 -2 -2 -3l-6 -14q-1 -3 -4 -7q-5 -11 -9 -21q-9 -17 -15 -35q-4 -11 -8 -23l-6 -20q2 1 2 3q2 5 5 11q23 41 52 80q14 19 30 38q6 8 15 14q6 4 12 4t10 -2q2 -3 5 -6q1 0 1 -1v-1h1l1 -2l10 -8q1 0 2 -1h2l1 -1q2 -1 6 -2q6 -2 13 -3h1
q1 -1 1.5 -1h1.5h2h8q5 0 11 2h1q14 3 27 11q7 9 16 18t20 12h2q2 0 4 -2t1 -5q-5 -12 -13 -25q-3 -5 -7 -11q-2 -4 -4 -7l-1 -3l-1 -1l-3 -6q-4 -9 -9 -19l-8 -23q0 1 2 2l1 3q18 28 41 54q5 7 11 13q7 7 12 13q2 2 2 3q5 6 10 10.5t11 6.5h4q6 0 10 -3t7 -8l2 -2
q0 -1 2 -2l-1 -1h1q1 -1 3 -2q-1 -1 0 -1q4 -4 8 -6q9 -6 20 -6t23 5q2 1 3 1t2 -1.5t0 -3.5v-1q-1 -2 -3 -4q-25 -12 -48 -12h-7q-12 1 -21 7q-9 7 -13 17z" />
    <glyph glyph-name="sa" unicode="sa" horiz-adv-x="461" 
d="M382 460q-10 3 -9 15q0 7 3 16q1 4 5.5 12.5t11.5 17.5q8 11 16 21q-92 -51 -172 -123q-4 -3 -8 -7v-2q0 -3 1 -7q2 -50 -15 -105l-3 -9q-18 -51 -55 -98q-20 -25 -47 -42q-13 -8 -26 -9h-3q-10 0 -17 7q-13 16 -5 40q3 9 6 19q7 18 16 37q49 93 133 169l-6 40
q-5 25 -8 51q-4 27 4 58l2 6q10 26 33 47q25 22 54 23q4 0 6 -3t1 -7t-4.5 -8t-7.5 -4q-12 -2 -23 -8v-1q-1 0 -1.5 -0.5t-1.5 -0.5l-8 -6v-1l-3 -2q-2 -3 -5 -5q-2 -3 -3.5 -5t-4.5 -5q-4 -6 -7 -12l-4 -9q-9 -25 -8 -50q0 -32 5 -62l3 -24q12 11 25 22q87 72 185 122l1 1
q4 3 9 7q16 12 35 19q6 2 11 2q4 0 7 -1q4 -2 5.5 -5.5t0.5 -7.5v-3l-2 -2q6 5 11 5h2q7 -1 5 -7q-3 -8 -7 -16q-4 -7 -6 -14l-2 -5q-4 -11 -4 -23l-1 -1h1v-2q0 -3 1 -5t1.5 -3.5t1.5 -3.5q4 -8 15 -9q3 -1 7 -1q9 0 20.5 4t25.5 11q25 12 49 29q13 9 23 18q6 5 11 10
l11 10q3 2 4 2t2.5 -0.5t1.5 -2.5l-1 -3l-1 -2q-12 -14 -27 -26l-2 -1q-14 -12 -30 -23q-29 -19 -59 -32q-16 -7 -34 -11q-5 -1 -10 -1q-10 0 -19 4q-23 13 -19 44l2 5q-15 -16 -31 -31q-15 -14 -32 -27q-7 -6 -16 -9q-5 -2 -10 -2q-3 0 -6 1zM398 484l-2 -6q2 -1 3.5 -0.5
t3.5 1.5q12 6 22 15l4 4q13 11 26 23q12 11 23 24q5 6 9 11l3 3q4 9 12 17q-4 -3 -9 -3h-5q0 -1 -1 -1h-2q-3 -1 -6.5 -3t-5.5 -3q-13 -8 -26 -19q-20 -18 -35 -40l-8 -12t-6 -11zM215 351q3 25 2 49q-90 -83 -134 -184l-4 -10q-7 -19 -7 -37q2 -15 15 -15q6 0 14 3
q28 15 45 39q21 24 35 50q11 22 19 43q11 31 15 62z" />
    <glyph glyph-name="sh" unicode="sh" horiz-adv-x="473" 
d="M445 568q60 138 139 273l24 42q-26 -34 -53 -67q-47 -59 -96 -116l-59 -68q-20 -23 -39 -45q-50 -56 -94 -114q-13 -17 -26 -35q4 -25 0 -53q-2 -11 -6 -22l-4 -13q-5 -11 -13 -22q-5 -6 -10.5 -10.5t-12.5 -6.5h-3q-5 0 -9 3t-5 8q0 21 8 43q3 8 7 16q13 27 32 52
q-5 23 -11 45l-5 20q-6 24 -6 51q1 12 5 23q4 12 12 23q19 27 48 28q16 -1 24 -13q5 -11 3 -25l-1 -2q-1 -4 -5 -6q-2 -1 -4 -1t-5 2q-4 6 -12 11l-3 2l-2 2h-1l-1 1h-8q-1 -1 -1.5 -1t-1.5 -1q-1 0 -2 -1l-1 -1l-1 -1l-1 -1v-1h-1l-1 -1l-5 -10q-1 0 -2 -1l-6 -17v-3
q-1 -3 -1 -6q-2 -40 7 -76q2 -9 3 -19q17 23 35 46q46 58 96 113q102 114 196 231q59 74 114 149l33 46q11 16 24 32l7 10l2 2l1 2l3 2v1l1 1q2 1 2 3l4 4l8 6h1q5 3 10 2.5t4 -5.5v-2l-1 -6l-3 -5q-2 -3 -3 -5l-2 -4l-10 -14q-2 -2 -3 -4q-9 -12 -17 -24l-9 -12
q-25 -36 -50 -73q-89 -131 -160 -266q-35 -67 -67 -135q-15 -33 -29 -67q-7 -17 -14 -35q25 31 52 61l19 20l17 18q1 1 2 3q6 7 14 14.5t17 11.5q5 2 10.5 2.5t10.5 -1.5q6 -5 7 -14v-13q-1 -12 2 -23q2 -14 16 -19q2 -1 5 -1q5 0 12.5 3t16.5 8q40 23 69 58q3 3 5 3
q3 0 4 -3q1 -1 0 -2q0 -1 -2 -3q-32 -39 -75 -67q-20 -15 -43 -19h-5q-18 0 -27 12q-11 15 -9 36q0 10 2 19q-1 2 0 4h-1v1.5v1.5q-8 -3 -14 -9q-9 -8 -17 -16q-19 -19 -35 -37q-33 -36 -63 -72q-2 -6 -5 -11q-2 -5 -5 -6q-2 -1 -3 -1q-2 0 -4.5 1t-0.5 6q3 11 7 21l7 18
q7 20 15 39q15 38 32 77zM226 391q1 13 0 25v-1l-1 -1q-16 -24 -25 -49l-4 -11q-2 -7 -3 -15v-1q0 -6 1 -11q1 -2 2 -2t3 1t4.5 3.5l4.5 4.5q7 11 11 22l2 6q4 15 5 29z" />
    <glyph glyph-name="ss" unicode="ss" horiz-adv-x="450" 
d="M141 346q-9 -6 -19 -9q-5 -2 -10 -2q-4 0 -8 2q-7 4 -8.5 12t1.5 17q9 21 27 40q14 18 31 34q28 27 58 50q0 21 -2 41q0 8 -1 15q-3 21 2 45q1 6 3 12q7 17 22 32q15 12 28 12q7 0 15 -5q8 -6 5 -18q-3 -9 -12 -13h-3q-2 0 -1 2l-2 4q-1 1 -2 1.5t-2 0.5h-1q-1 0 -3 -1
l-2 -2h-1l-1 -1l-3 -3l-1.5 -1.5t-0.5 -1.5l-5 -14q0 -2 -1 -5q0 -3 -1 -7q-1 -2 0 -4q-4 -25 -6 -50q-1 -11 -3 -23q39 28 80 54q73 47 148 88q13 15 31 24q5 3 10 4v1q3 1 6 1v1h3q5 1 10 1t10 -1q4 -1 4 -4v-3q-1 -1 -3.5 -4t-5.5 -4q-5 -1 -9 -3q-3 -1 -4 -1.5l-3 -1.5
l-1 -1q-5 -2 -9 -5.5t-7 -5.5v-1h-1l-1 -1l-2 -2l-2 -2l-8 -8q0 -1 -2 -2v-1q0 -1 -1 -1l-1 -1q0 -1 -1 -1q-3 -4 -5 -9l-1 -2q-2 -2 -2 -3l-4 -11q-8 -23 -7 -46l2 -26q0 -9 2 -19q1 -24 -1 -49q96 68 200 115q2 1 3 1q2 0 3 -1.5t0 -4.5l-1 -1q0 -2 -3 -4l-5 -2l-20 -10
q-93 -44 -178 -107q-4 -34 -16 -68q-11 -30 -29 -60q-14 -23 -34 -43q-8 -9 -18.5 -18t-22.5 -12q-5 -1 -10 -1t-11.5 3t-10.5 11q-4 16 3 34q1 5 5 11q25 45 64 85q25 27 56 52l-2 24q-1 19 -4 38q-4 25 -4 51q0 23 8 48q5 14 15 27q-78 -43 -152 -92q-31 -21 -62 -44v-2
q-1 -1 0 -3q-3 -21 -10 -41q-7 -19 -18 -38q-25 -38 -64 -63zM433 428q-34 -29 -62 -61q-17 -20 -30 -41q-12 -16 -18 -32q-3 -7 -4 -14q-1 -9 3 -15t13 -6h2q10 2 20 11t16 17l2 2q30 34 44 72l4 12q8 28 10 55zM115 379q-3 -5 -6 -12q-1 -3 -2.5 -9.5t7.5 -9.5h3
q6 0 15.5 5.5t16.5 11.5q1 0 1 1q18 13 31 31q16 21 24 43q6 15 7 31q0 2 1 4q-1 1 0 3q-36 -28 -68 -62q-17 -17 -30 -37z" />
    <glyph glyph-name="st" unicode="st" horiz-adv-x="385" 
d="M1059 955q4 0 3 -3q1 -1 1 -2q-1 -1 -2.5 -3.5t-5.5 -2.5q-17 -2 -33 -2h-10q-22 -1 -42 -1q-41 -1 -81 -2h-2q-122 -4 -243 -7q-3 -6 -6 -11q-2 -6 -6 -13q-23 -47 -45 -95q-78 -170 -142 -340l-61 -169q-16 -43 -30 -85q-8 -22 -15 -43q-2 -5 -3 -11l-12 -32
q-2 -3 -4 -4t-3 -1h-2q-2 0 -2 3q4 19 11 39l3 9l16 48q15 48 32 96q16 47 32 93q46 125 97 249q34 85 70 171l12 28l24 56q1 4 4 9l1 2h-1q-70 -84 -144 -166q-40 -44 -80 -87q-47 -49 -94 -100q-35 -40 -68 -83v-9q0 -20 -2 -41q-1 -23 -9 -47l-2 -6q-3 -8 -9.5 -19.5
t-17.5 -19.5q-10 -6 -19 -6q-2 0 -7 0.5t-11 7.5q-7 8 -5 20q1 7 4 14q1 5 4 10q19 39 48 78q-1 3 -2 7q-2 23 -2 47q2 19 9 38l4 11q13 29 39 50q7 5 14.5 9t13.5 5q5 1 9 1t7 -1h2q1 0 2 -1q3 -1 4 -2q3 -3 1 -8v-2q-1 -3 -6 -5l-5 -2l-1 -1q-2 -1 -3.5 -1.5t-2.5 -1.5
q-1 0 -3 -1l-1 -1q-1 0 -1 -1l-5 -2l-3 -2h-1v-1q-3 -1 -5 -3q-3 -2 -5 -4q-1 0 -1 -1l-2 -1q-3 -3 -5 -6v-1l-2 -2q-4 -6 -7 -12l-2 -5q-2 -3 -3 -6q-3 -7 -4 -13v-1q-1 -1 0 -2q-1 -3 -1 -6q-2 -5 -2 -10v-1l-3 -24q34 43 70 83q35 38 70 75q9 9 18 19q47 50 92 100
q61 69 118 139h-7l-150 -6q-10 0 -21 -1q-26 0 -53 -2l-24 -2q-26 -2 -51 -2q-7 0 -7 5v5q1 3 4 6.5t10 4.5q14 1 27 1q14 0 26 -1h30q28 0 56 1h28q71 2 143 3q0 1 2 3q12 15 25 31q7 16 17 31q4 8 11 9q2 1 5 1t6.5 -3t1.5 -10q-6 -19 -15 -38q-3 -5 -5 -10q-3 -4 -4 -9
q-2 -2 -3 -4q56 2 113 4q50 1 101 3q23 0 47 1l75 2q11 1 22 1q18 1 35 1h17zM261 605q-1 0 -1 -1q0 1 1 1zM199 399q8 32 4 60q-9 -13 -16 -26q-2 -2 -4 -5q-13 -19 -21 -39l-2 -6q-3 -11 3 -18q2 -2 5 -4h3q3 0 6 1q5 2 8.5 6.5t5.5 8.5l5 11z" />
    <glyph glyph-name="th" unicode="th" horiz-adv-x="593" 
d="M812 571q-44 -43 -98 -62q-31 -10 -59 -10q-18 0 -47.5 7.5t-45.5 44.5q-1 1 -1 3q-1 3 -3 6l-2 3h-1l-1 -1q-1 -1 -2 -1v-1l-12 -12q-21 -22 -38 -47q-28 -41 -47 -83l-3 -8q-2 -10 -5 -21q-2 -4 -6 -6q-3 -1 -5 -1q-1 0 -3.5 0.5t-1.5 4.5q17 83 41 166q19 64 42 128
q30 82 68 164q0 2 2 3l1 3q-29 -45 -58 -89q-48 -74 -98 -147q-4 -4 -6 -8q-42 -63 -91 -121q-26 -30 -57 -56q-15 -12 -32.5 -22.5t-34.5 -10.5q-16 1 -22.5 12t-7.5 26q1 34 12 70q14 53 34 106q8 23 17 46q29 77 63 152q33 71 71 141q-52 -2 -103 -4h-11q-33 -2 -68 -4
l-30 -2h-9l-21 -2q-5 0 -10 -1h-11q-5 0 -7 4t0 9q2 6 7.5 10t11.5 4h11q5 -1 11 -1h22q21 -1 42 -1q44 1 86 1l86 2q40 75 86 149q4 5 10 8q4 1 8 1h3q5 -2 6 -6q0 -3 -2 -7l-1 -4q-9 -14 -16 -27l-5 -8q-30 -53 -59 -105q97 3 195 6q10 1 20 1q9 0 19 1q1 3 3 7q3 6 7 13
q19 35 40 71q10 18 22 36q12 19 26 35q4 3 6 3q1 0 3.5 -1t1.5 -6q-1 -6 -4 -11q-5 -15 -14 -29v-1l-12 -22q-5 -10 -10 -19q-19 -37 -39 -75q12 0 23 1l63 2q39 2 77 3l40 2h9q10 1 20 1h10q3 -1 3 -3q1 -2 0 -4l-1 -2q-2 -2 -5 -2q-18 -3 -35 -3h-10q-21 -1 -44 -2
q-29 -2 -60 -3q-13 0 -26 -1l-47 -2q-12 0 -24 -1l-31 -62q-17 -36 -33 -72q-33 -73 -61 -145l-28 -74q-13 -36 -25 -73l-4 -11q-11 -31 -20 -62l32 52q18 26 36 50q5 7 10 12t13 8q4 1 8 1q9 0 15 -6q4 -5 6 -12l4 -6q5 -8 10 -13q13 -14 30 -23q19 -9 42 -9q20 0 43 7
q50 15 90 53q1 2 3 2h2q2 0 3 -2v-2q-1 -1 -2 -3zM635 954l1 3q1 2 2 3l-211 -8h-11q-6 0 -12 -1q-46 -85 -85 -172q-34 -74 -63 -148l-2 -5q-10 -24 -19 -47q-17 -48 -29 -95q-3 -18 -5 -35q-1 -12 2 -23q4 -8 14 -9q15 1 30 11q30 21 58 49q25 27 48 57q51 66 96 133
q49 71 95 143t91 144z" />
    <glyph glyph-name="tt" unicode="tt" horiz-adv-x="426" 
d="M1089 907q4 0 5 -3l-1 -3q0 -1 -2.5 -4t-6.5 -3q-110 -8 -219 -14l-187 -8q-90 -167 -169 -336q-42 -92 -81 -185q-38 -93 -74 -185q-2 -6 -7 -8q-3 -1 -5 -1t-5 1.5t-1 7.5l11 30q33 89 70 178q76 185 169 369q33 65 67 129q-3 -1 -7 -1h-5q-50 -70 -102 -140
q-61 -83 -124 -165q-54 -73 -116 -142q-31 -33 -67 -63q-16 -15 -36 -27q-13 -7 -24 -7q-7 0 -14 3q-11 9 -12 24q-2 18 0 37q6 40 21 81t33 83q19 43 39 86q40 85 86 169q15 28 31 56h-70q-19 -1 -38 -1h-153q-7 0 -7 6q-1 3 0 5q1 3 4 6.5t10 3.5q16 0 33 -1l22 -1l51 -2
q54 -1 108 -1h49q27 49 58 97q26 41 55 82q13 20 28 40l1 1l7 10q3 3 7 5q1 1 2 1q9 7 18 7q5 -1 7 -4q0 -3 -1 -5q0 -2 -2 -4.5t-7 -4.5h-1l-1 -1h-1l-1 -2l-1 -2l-1 -1q-1 0 -1 -0.5v-1.5l-9 -12q-2 -3 -4 -5q-7 -12 -14 -23q-45 -67 -88 -135q-14 -21 -26 -42
q124 0 249 4q1 2 2 3q21 29 41 57q31 43 61 87l2 4l17 27q14 23 30 45q4 6 10 6h1q2 0 4 -2q2 0 3 -2t0 -4l-1 -2l-4 -4q0 -2 -2 -3q-11 -22 -23 -44q-15 -25 -29 -50q-3 -5 -6 -11q-25 -45 -51 -91l-4 -8q-2 -3 -3 -6h13q193 6 389 20zM567 785q30 43 62 86q-76 -3 -151 -4
q-49 -1 -97 -1q-31 -53 -60 -106q-45 -80 -82 -162q-19 -41 -36 -82q-11 -23 -19 -47q-6 -15 -11 -31q-11 -38 -10 -74q0 -6 2.5 -12t7.5 -8q2 -1 5 -1q5 0 13 4.5t15 10.5q71 54 127 122q54 65 105 133q5 6 10 13q61 79 119 159zM683 926q2 4 5 9l3 6q-12 -17 -25 -35
q-8 -10 -15 -21q2 1 3 1h7z" />
    <glyph glyph-name="ub" unicode="ub" horiz-adv-x="579" 
d="M791 576q2 1 4 1h2q2 -1 2 -4l-1 -1q0 -2 -2 -4q-51 -33 -106 -46q-19 -5 -37 -12q-5 -12 -10 -25q-19 -39 -54 -69q-17 -15 -36 -18q-8 0 -14.5 3.5t-7.5 10.5q-1 9 2 18q3 6 10.5 18t22.5 24q26 22 56 36l2 6q1 2 1 4l1 3q1 3 1 6l2 16v6l1 2q-1 0 -1 1l-1 1v4l-1 1
l1 -1h-1v1q-1 1 0 2q-1 0 -1 1h-1q1 1 0 1q-2 3 -7 4q-15 -1 -28 -12q-15 -12 -26 -27q-13 -16 -24 -33q-11 -16 -20 -32q-4 -9 -8 -17q-4 -9 -10 -18q-1 -3 -4 -3l-1 -3q-1 -3 -5 -5q-2 -1 -5 -1q-1 0 -3.5 0.5t-1.5 5.5q13 66 35 133q11 36 24 73q17 45 36 91
q-58 -81 -130 -153q-31 -31 -64 -57t-68 -34q-6 -1 -10 -1q-13 0 -22 6q-12 10 -13 27q-1 13 1 28q-9 -11 -18 -21q-22 -25 -50 -41q-10 -5 -18 -5q-6 0 -10 2q-10 7 -9 20q1 15 6 29q5 15 15 29q9 16 22 29q6 8 14 14q6 5 11 8q1 1 3 2q3 2 6 2t5 -1q1 -1 2 -4v-3l-2 -2
q-2 -3 -2 -5q-1 -1 -2 -3t-3 -4l-2 -2q-3 -5 -6 -9l-3 -4q-10 -13 -18 -27q-4 -7 -7 -13v-1h-1l-4 -10q-4 -7 -6 -14l-3 -8v-2v-2q-1 -1 -0.5 -1t-0.5 0q1 -3 3 -5h3l7 2q6 3 12 7q37 27 63 63q6 14 17 26q4 4 8.5 4.5t6.5 -2t1 -6.5l-14 -37q-3 -18 0 -33q3 -13 18 -14
q16 0 33 9q35 19 64 46q30 27 57 56q55 60 102 124q14 19 26 38q8 14 14 28q28 60 65 119q17 29 36 58q9 14 19 28q11 15 25 28q4 2 7 2q2 0 4.5 -1.5t1.5 -7.5q-6 -15 -15 -30q-2 -2 -2 -4q-7 -10 -12 -19q-5 -6 -9 -13l-39 -64q-68 -114 -118 -231q-13 -33 -25 -66
q-24 -66 -42 -132l7 12q12 21 28 42q14 19 31 38q14 17 35 28q12 5 22 5q7 0 13 -2q15 -7 15 -25q2 -18 -2 -37l31 10q54 12 104 45zM584 439q22 28 33 56q-20 -10 -39 -24q-13 -11 -23 -25q-4 -6 -7 -13l-2 -4l-2 -8q1 -6 7 -6h2q4 0 9 3q13 9 22 21z" />
    <glyph glyph-name="ue" unicode="ue" horiz-adv-x="431" 
d="M643 576q2 2 4 2t4 -2l-1 -2l-1 -2q-10 -11 -21 -20q-43 -40 -94 -65q-25 -13 -51 -15h-8q-20 0 -32 14q-23 -20 -49 -36t-52 -23q-13 -4 -26 -4q-11 0 -22 3q-39 19 -37 67q1 13 4 27q-16 -24 -41 -43q-14 -11 -31 -12q-8 0 -12 5t-6 11q0 15 5 32l2 8q5 12 12 25
q8 16 20 31v1q6 8 13 13q3 3 7 5t7 2q2 0 3 -0.5t2 -2.5q1 -4 -2 -10.5t-7 -12.5q-1 -3 -3 -5q-4 -8 -6.5 -13.5t-5.5 -13.5l-11 -28q-1 -5 -1.5 -9t-1.5 -9l-1 -1q1 -1 1 -2l-1 -2h1v-1h1l-1 -1h2q6 1 11.5 5t9.5 8q22 20 40 45q1 1 2 3l2 2q5 12 10 25q3 8 8 15q4 7 9 12
l2 2q5 5 11 5q1 0 4.5 -0.5t3.5 -7.5q-1 -10 -4 -20l-2 -5q-6 -12 -10 -24l-8 -24q-2 -10 -3 -21q0 -5 -1 -10l1 -1l-1 -1q0 -1 1 -1l-1 -1q0 -1 1 -1v-1q1 -8 3 -16l1 -1q-1 -1 0 -1v-1q0 -1 1 -3q2 -3 5 -6l2 -4v-1h1v-1q1 0 1 -1h1v-1l3 -2q3 -3 5.5 -4t7.5 -2
q7 -2 14 -2q13 0 31.5 7t38.5 20q15 10 31 22q-12 31 2 68q2 7 6 14q12 25 32 48t47 34q8 3 14 3q5 0 9 -2q6 -4 6 -13q1 -7 -2 -15q-1 -2 -3 -8t-7 -16q-24 -46 -62 -87l-9 -8q-1 -2 -3 -3q3 -10 11 -16q6 -3 14 -3q2 0 8 0.5t16 3.5q22 6 44 19q45 25 82 63zM466 521v1
q0 -1 1 -1l-1 -1q8 7 15 15q33 37 54 78v1q5 9 8 18q0 4 0.5 7.5t-1.5 6.5q-1 1 -4 1h-4t-6 -3l-8 -8t-6 -8q-16 -17 -28 -38q-3 -4 -6 -9v-1q0 -1 -1 -1l-11 -30q0 -2 -1 -4l-1 -10v-9v-2v-3z" />
    <glyph glyph-name="un" unicode="un" horiz-adv-x="681" 
d="M892 576q1 1 3 1h2q2 -1 1 -3v-2l-2 -3q-23 -19 -48 -36q-23 -16 -49 -29q-22 -11 -45 -17q-13 -3 -25 -3t-23 3q-33 18 -28 61q1 11 5 22l1 2q1 1 0 2h-2q-10 -3 -19 -10q-1 -1 -3 -2l-22 -16q-22 -17 -43 -35l-27 -26q-4 -5 -9 -9q-3 -7 -9 -11q-5 -4 -9 -4q-3 0 -5 2
q-6 4 -4.5 12t2.5 15l2 4l8 26q12 29 27 56q10 19 22 38l-51 -36q-47 -31 -96 -56q-23 -12 -48 -22q-3 -1 -7 -3q-22 -9 -45 -15q-11 -3 -21 -3q-15 0 -27 6q-17 11 -17 33q-1 15 4 31l-2 -2q-3 -3 -6 -7q-2 -1 -4 -3q-10 -12 -23 -23t-26 -14q-4 -1 -7 -1q-11 0 -16.5 9
t-3.5 23q3 18 10 36q5 15 14 31q7 15 18 30q5 8 13 16.5t18 11.5q2 0 4.5 -1t3.5 -4q0 -4 -1 -8l-3.5 -7t-7.5 -12q-2 -3 -4 -5q-9 -15 -16 -29q-8 -16 -14 -32q-4 -11 -7 -22l-1 -2q-3 -8 -2 -14q2 -4 6 -4q3 0 8 2q12 7 23 18t22 23l21 24l1 2l5 7l3 3l7 10l2 1q0 1 1 2
q1 2 3 2l6 6q5 2 8.5 1.5t3.5 -5.5l-2 -8q-3 -6 -7 -13l-4 -8t-3 -7q-6 -9 -10 -18q-2 -6 -4 -13l-1 -3q0 -3 -1 -5q0 -3 1 -5l-1 -1q0 -1 1 -2q0 -5 1 -10v-2q1 0 1 -1v-1q0 -1 0.5 -1t0.5 -1q2 -2 4 -5q1 0 1 -1q1 0 1 -1l3 -2q5 -2 8 -3h10q16 0 34 5q46 14 91 39
q78 44 152 100q3 4 8 8q3 3 8 7t10 6h3q3 0 6 -1q1 -2 1 -5v-1q-1 -2 -3 -4v-1q-8 -19 -21 -37q-4 -4 -6 -8q-16 -23 -28 -47q-11 -21 -21 -45q-5 -11 -8 -21q12 13 26 25q23 21 48 40q12 8 23 17l3 2q10 7 19 11q7 3 12 3q6 0 10 -3q4 -5 5 -12l-1 -2q1 -1 1 -3q-1 -2 0 -3
l-1 -10q-1 -5 0 -9q-1 -4 0 -9l-1 -1l1 -1v-2v-2q0 -9 3 -17l1 -1q0 -1 1 -1l1 -3q1 -1 1 -2l2 -3q10 -8 25 -8q6 0 21.5 2.5t36.5 13.5q23 12 44 27q13 8 25 17z" />
    <glyph glyph-name="unt" unicode="unt" horiz-adv-x="829" 
d="M1551 904q-49 -1 -100 -3q-50 -1 -101 -3q-69 -2 -137 -4l-144 -4q-3 -5 -4 -9q-5 -7 -8 -14q-96 -192 -173 -386q-42 -104 -80 -209q-32 -89 -62 -179q-2 -5 -7 -7h-3q-2 0 -4.5 1t-1.5 6q29 92 62 183l14 36q71 194 156 387q43 95 87 190h-14q-6 -6 -9 -11l-12 -16
q-59 -78 -120 -153q-59 -73 -127 -138q-32 -30 -68 -53q-19 -13 -39 -23t-40 -12h-3q-34 0 -43 28q-7 18 -6 40l-11 -6q-12 -10 -24 -21q-19 -18 -34 -39q-1 -2 -1 -4q-2 -6 -7 -9.5t-10 -4.5q-11 0 -11 10q1 25 10 50q5 13 11 26q-22 -16 -44 -30q-37 -24 -77 -44
q-20 -10 -41 -15q-9 -2 -18 -2q-10 0 -20 3q-15 7 -18 24q-2 14 4 29h-1q-23 -23 -50 -43q-13 -11 -29 -15h-5q-14 0 -18 12q-3 11 1 25q2 10 5 20q3 6 6 13q7 16 18 32q4 8 10 16t14 14q6 4 11 4q3 0 5 -2q5 -4 3 -11l-2 -4q-1 -2 -3 -4v-2l-5 -6v-2l-9 -14q-5 -7 -7.5 -13
t-6.5 -13l-9 -26q-1 -3 -2 -7l-1 -2q1 -2 0 -4v-1v-1v-1q-1 -1 0 -1.5t2 -0.5q4 0 9 2q12 6 24 14q22 17 41 37q3 4 6 7q7 16 17.5 29.5t26.5 16.5h2q3 0 5 -3q1 -2 0 -4l-2 -4q-11 -14 -17 -28l-10 -30v-1l-3 -14l1 -4l-1 -1l1 -1v-1v-2q1 0 0 -1q1 -1 1 -2t1 -2l3 -4
q4 -4 11 -5h8q13 0 29 5.5t32 14.5h2q56 28 108 69q8 14 19 28q4 4 8 7.5t10 4.5h2q5 0 7 -4l1 -1l-1 -1l1 -1l-1 1q1 -2 1 -4l-1 -1q-1 -3 -3 -5q-1 -2 -3 -4q-3 -9 -8 -18q-7 -13 -13 -28q-7 -18 -12 -36q9 12 20 23q12 13 26 24q3 4 7 7l5 5q3 2 4 4l9 8q6 3 10 3
q1 0 4 -0.5t5 -4.5q2 -8 2 -16q1 0 0 -1l1 1q-1 -2 0 -3q-1 -1 0 -3q1 -3 0 -7l3 -14q1 -2 2 -5q1 -1 0.5 -1.5t0.5 -0.5v-1l1 -2q1 -3 4 -5l1 -3h1q0 -1 1 -1q1 -2 4 -3l3 -2h1h-1q1 0 2 -1q1 0 3 -1h10q10 1 19 4q37 14 71 39.5t62 54.5q66 66 122 138q59 72 114 145h-26
q-14 -1 -28 -1q-76 -2 -152 -5q-8 -1 -15 -1q-37 -1 -74 -3l-24 -2q-34 -2 -67 -3q-7 0 -7 5q-1 3 0 5q1 3 4 7t10 4q33 1 66 1h35q50 0 99 1q94 2 188 5q25 32 47 64q5 7 9 13q2 3 6 7l1 5q24 50 51 99q4 5 9 8q5 2 9 2h2q6 -1 8 -5t0 -9q-20 -45 -45 -88l-12 -22
q-20 -37 -38 -73l61 2q30 0 61 1q88 3 176 5q91 2 182 5q3 0 4 -3v-2q-1 -1 -3 -3.5t-5 -2.5zM1050 901l18 38l-20 -26l-9 -12h11z" />
    <glyph glyph-name="ur" unicode="ur" horiz-adv-x="536" 
d="M762 641q4 0 5 -3v-2q-1 -2 -3 -4q-7 -5 -15 -8.5t-16 -5.5q-17 -5 -33 -6q-14 0 -27 3l-12 4q-2 2 -5 3q-2 2 -6 3h-2q-4 0 -9 -2.5t-10 -6.5q-12 -10 -22 -23q-22 -27 -40 -56q-9 -14 -17 -29l-6 -12q-5 -10 -11 -19q-2 -2 -3 -2l-1 -2q-3 -8 -5 -16q-5 -17 -11 -34
q-5 -10 -16 -14h-7q-3 1 -5 4t-1 6q11 47 27 96l3 6q8 25 17 51l2 6q-24 -22 -49 -42q-37 -31 -78 -51q-32 -14 -62 -14q-9 0 -18 1q-40 11 -41 53q-1 9 1 18l-1 -1q-1 -1 -1 -2q-27 -28 -56 -52q-13 -12 -26 -12q-4 0 -7 1q-8 2 -10.5 9t-2.5 14q1 14 6 29l3 6q7 19 16 37
q10 18 24 36q9 10 20 10q8 0 10 -6q1 -4 -1 -9l-2 -3q-2 -5 -7 -7q-2 -2 -3 -4q0 -1 -2 -3q-4 -7 -9 -15q-7 -14 -14 -29l-8 -26l-3 -9q1 0 0 -1l-2 -5q1 0 1 -1l-1 -2h1v-2h2q5 1 9 5q12 8 23 17q0 1 1 1q24 21 43 44h1l1 2q-1 1 -1 2l2 6q4 10 9 19q3 5 7 10l7 7l3 3
q5 4 9 4q5 0 7 -3q1 -1 0 -4v-2v-1q0 -2 -1 -4q0 -3 -1 -6l-6 -15q-3 -9 -5 -18v-3q-1 -3 -1 -5q-1 -6 -1 -11v-8v-2v-2h1l-1 -1q1 -1 1 -2l2 -10l1 -2v-1v-1q2 -3 3 -6l4 -2l-1 -1h1v-1l6 -4q2 -1 3 -2h1q7 -3 14 -5q5 -1 11 -1q26 0 55 15q37 20 71 48q27 22 52 47l2 2
l2 6l5 6l3 4l2 2q4 4 9 4t7 -4q0 -2 1 -3q1 -2 1 -4l-1 -4q-1 -1 0 -2q-2 -7 -4 -13q-3 -11 -7 -22l-1 -3q-5 -15 -9 -29q-4 -10 -7 -21l-3 -8q10 17 22 35q17 28 40 55q11 13 23 24q6 6 12.5 11t13.5 7q4 1 8 1q9 0 16 -4q3 -1 6 -1q1 -1 3 -1q11 -3 21 -5q9 -2 19 -2h7
q9 1 18 4q5 1 10 3z" />
    <glyph glyph-name="ut" unicode="ut" horiz-adv-x="557" 
d="M677 655l-48 -132q-24 -70 -46 -139l-42 -124q-2 -5 -6 -6h-3q-1 0 -3 1t-1 5q22 74 46 148t51 149q18 57 38 113q21 63 43 126q-5 -1 -9 -1h-8q-10 -16 -21 -31q-50 -67 -108 -130q-56 -63 -120 -119q-30 -27 -64 -49q-33 -22 -65 -22h-2q-17 2 -24 15q-6 16 -5 35
q0 9 1 18l-14 -18q-11 -14 -24 -26q-11 -13 -25 -22q-15 -11 -30 -11q-15 3 -16 17q-6 28 6 61l1 4q6 16 14 32v1q8 18 23 35q6 6 13 6h2q3 0 5.5 -3t1.5 -6q-1 -6 -3 -12l-3 -8q-3 -4 -5 -9l-1 -2l-2 -4q-7 -15 -13 -31l-3 -8q-9 -23 -11 -45q-1 -5 0 -8t6 -3q6 1 12.5 5
t10.5 8q25 20 42 44q10 13 17 25q2 8 5 16q4 12 11 23q3 4 8 7t9 3q5 0 8 -3t3 -7q-3 -12 -7 -23q-2 -5 -3 -10t-1 -8q-5 -18 -6 -38q-1 -7 -0.5 -14t5.5 -11q4 -3 9 -4q7 0 15 2q32 9 63 32t60 50q59 56 111 116q54 63 101 129q-2 -1 -5 -1h-8l-18 -2q-58 -4 -114 -8
q-5 -1 -10 -1q-28 -2 -56 -5q-14 -1 -26 -3q-21 -3 -42 -4q-4 0 -5.5 2.5t0.5 6.5q1 4 4.5 6.5t7.5 2.5q15 2 29 2h9l30 2h7q29 2 59 4q7 1 14 1q39 3 77 6q28 2 57 4q29 42 55 84q8 22 20 44q3 5 7 6q3 1 6 1q2 0 4.5 -1t1.5 -6q-4 -21 -12 -43q-3 -9 -7 -18l-5 -15
l-16 -40l-3 -8q9 0 19 1l61 4q131 9 263 17q4 0 4 -3q1 -1 0 -3q-1 -1 -2.5 -3.5t-6.5 -3.5q-74 -4 -148 -9q-97 -6 -195 -13l-4 -12l-14 -36q-19 -47 -37 -95zM710 809l12 33q-11 -17 -23 -34h7q2 1 4 1z" />
    <glyph glyph-name="utt" unicode="utt" horiz-adv-x="711" 
d="M1317 893q4 0 4 -2v-3q-1 -1 -2.5 -3.5t-5.5 -2.5l-101 -2l-107 -2q-88 -2 -175 -4l-4 -8q-3 -6 -5 -12q-92 -199 -166 -398l-9 -24q-68 -188 -122 -376q-1 -5 -6 -7h-4q-1 0 -3.5 1t-2.5 6q31 112 68 225q36 107 75 214q33 92 69 184q34 86 72 172q-44 -73 -90 -146
q-42 -68 -87.5 -134t-100.5 -128q-26 -31 -56 -58q-15 -13 -31.5 -22.5t-32.5 -9.5q-17 2 -22 15.5t-4 29.5q1 34 12 70q8 27 18 55l7 18l29 74q21 51 44 101l-35 -50q-29 -42 -60 -84q-28 -38 -59 -74q-31 -35 -70 -62q-20 -15 -42 -21q-5 -1 -10 -1q-18 0 -28 13
q-8 16 -7 36q1 19 7 39q-11 -15 -22 -29q-22 -30 -53 -51h-1q-4 -3 -8 -5t-10 -3q-8 0 -12 5q-5 6 -6 14.5t-1 16.5q4 22 12 44q6 16 14 32q9 19 21 38l1 2q2 5 6 10t9 8q5 2 9 2q3 0 6 -1q3 -2 1 -6q-1 -3 -3 -6l-1 -1l-3 -9l-6 -10q-2 -4 -4 -9q-9 -17 -15 -34l-8 -20
q-7 -21 -12 -40q-1 -6 0 -12v-2q1 -2 1 -3v-1h1q2 0 5 1.5l5 2.5q1 0 2 1q6 3 12 8q26 22 45 48q13 16 24 33q5 12 13 25q3 4 6 7q2 3 4 5q1 1 2 3l4 6q3 3 5 5.5t4 4.5l8 4q1 0 2 1l2 1q1 0 3 -1t1 -3t0 -3l-1 -5l-2 -4l-7 -12q-2 -4 -3 -8l-4 -8q-1 -2 -3 -4
q-4 -10 -8 -21l-4 -12q-1 -3 -1 -6l-1 -2q-2 -12 -3 -23q-1 -5 -1 -10v-1q1 0 1 -1l-1 -1q0 -2 1 -3l1 -8q1 0 1 -1v-1q0 -1 1 -1l1 -2q0 -1 1 -1l1 -1q0 -1 1 -1l1 -1h1q1 -1 2 -1h4q17 0 34 11q17 10 33 24q34 29 60 63q62 77 118 158q24 34 47 69q21 44 44 89
q-54 -2 -108 -5q-46 -2 -94 -4l-29 -2q-33 -3 -66 -3q-6 1 -5 5v4q1 2 3.5 4.5t7.5 3.5q23 2 46 3h7q26 0 54 1l82 2q11 1 21 1l73 2q8 0 16 1q3 5 6 11q5 12 13 24q19 37 42 74q10 18 22 36q7 11 14 21q5 8 11 15q4 6 8.5 6.5t6.5 -2.5q3 -2 1 -6l-1 -2l-4 -8q-1 -2 -2 -3
q1 -2 0 -4q-22 -42 -47 -85q-22 -38 -42 -77q106 4 213 7q19 31 36 62q1 3 3 6l11 24q12 25 26 51v1q12 24 26 48q4 5 10 7h2q3 0 5.5 -2t1.5 -8q-8 -23 -19 -46q-2 -5 -5 -9l-14 -32l-12 -24q-18 -39 -35 -77h9q187 5 372 6zM818 751q39 61 75 122q-82 -2 -163 -5
q-17 0 -34 -1q-8 0 -16 -1q-34 -65 -64 -131q-34 -73 -63 -145q-16 -37 -29 -74q-6 -14 -11 -27q-7 -20 -13 -40q-9 -32 -6 -62q1 -11 10 -13q7 0 13.5 2.5t12.5 6.5q16 10 29 23q15 13 28 27q28 28 52 57q50 61 90 124q46 68 89 137z" />
    <glyph glyph-name="wh" unicode="wh" horiz-adv-x="688" 
d="M901 576q2 3 4 3q3 0 4 -3l-1 -2l-1 -3q-54 -66 -128 -108q-33 -20 -66 -29q-9 -2 -17 -2q-7 0 -14 2q-16 5 -18 22q-3 15 2 32l9 42q5 20 12 39l3 8l-1 1l1 3q-1 0 0 1v1q1 1 0 1v1q0 1 -1 1h1h-1l1 1h-2q-2 0 -5.5 -2t-7.5 -6.5t-7 -7.5l-2 -1l-28 -32q-28 -33 -54 -67
t-49 -70q-18 -28 -35 -57l-2 -4l-2 -4l-4 -8t-5 -5q-2 -1 -4 -1q-1 0 -3 1t-1 5l9 25q20 48 43 96q23 49 48 97q49 97 107 192q41 66 84 131q-84 -89 -182 -162q-31 -24 -66 -44q-34 -22 -69 -28q-5 -25 -14 -50q-12 -33 -31 -66q-9 -16 -20 -32q0 -2 -2 -3q-9 -14 -20 -27
t-27 -22q-10 -5 -19 -5q-7 0 -14 4q-12 8 -15 24q-4 14 -2 30q2 8 3 15q-11 -15 -23 -29q-16 -17 -33 -32q-16 -15 -35 -21q-5 -1 -10 -1q-11 0 -18 8q-9 12 -7 30q1 27 11 55q4 11 10 23q10 21 23 42q7 11 16 21l8 8t10 6q4 2 7 2q6 0 8 -5q1 -3 0 -7t-5 -8l-2 -3
q-1 -1 -2 -3q-2 -4 -6 -9q-1 -2 -2 -3l-10 -16l-10 -18l-3 -7q-3 -5 -5 -10l-12 -34q-6 -16 -8 -31l-1 -1q1 0 1 -0.5v-1.5q0 -2 -1 -4q1 -1 0.5 -2.5t-0.5 -2.5q1 -2 1 -4.5t1 -4.5q2 -4 7 -4h4.5t9.5 4q15 9 29 23q13 13 26 28t24 31q7 10 12 19q3 7 8 14q2 3 5 3
q4 0 4 -2q4 2 7 2q1 0 4 -1.5t2 -7.5l-2 -6q0 -3 -2 -8q-4 -7 -6 -13q0 -3 -1 -5v-1q-1 -3 -1 -5v-1q-2 -6 -2 -13q-2 -7 -1 -13q0 -1 1 -1q-1 -2 0 -3q0 -3 1 -6v-2q1 -2 1 -5l1 -2v-1q1 -1 1 -2v-2q1 -1 2 -1v-1h1l-1 -1h1l1 -1h6l1 1h1l2 1l4 2q14 9 23.5 21.5t17.5 24.5
q1 1 2 3q19 29 32 60q5 10 8 21q8 20 13 41q0 1 -1 2l1 2q-24 1 -36 18q-11 16 -3 36q2 6 5 11q9 15 26 19h4q11 0 16 -9q6 -11 6 -25.5t-3 -29.5q39 8 76 33q61 38 116 85q89 76 168 161q62 88 133 172q37 44 76 87q8 9 18 19l3 2q8 9 17 16q11 8 22 15q7 4 11 6l10 2h3
q4 0 5 -3q1 -2 0 -4t-4 -5l-10 -7q-4 -4 -9 -7q-6 -5 -10 -10l-6 -6l-17 -18q-12 -13 -22 -26q-7 -8 -14 -15q-36 -43 -72 -87q-36 -43 -70 -86q-34 -44 -66 -89q-66 -91 -124 -184t-106 -187q-25 -47 -48 -95q-4 -10 -9 -19q2 1 2 3q2 1 3 3q25 40 55 79q27 34 55 67
q1 2 4 4q11 14 24 27q6 6 13.5 10.5t15.5 4.5q15 -1 15.5 -15.5t-4.5 -28.5q-1 -4 -1 -7q-3 -10 -4 -20q-8 -28 -10 -54l-1 -8l1 -1l-1 -1q1 -1 1 -2l1 -2v-1.5t1 -1.5v-1v-1h1v-1v-1q7 -5 17 -5h6q33 6 64 26q68 38 116 98zM427 661q8 -5 17 -6v3q1 1 1 3v2q2 13 1 26
q0 5 -2.5 10t-7.5 8q-1 1 -3 1q-4 0 -8.5 -3.5t-7.5 -8.5l-1 -3q-4 -10 -1 -18.5t12 -13.5z" />
    <glyph glyph-name="zz" unicode="&#x7a;&#x7a;" horiz-adv-x="743" 
d="M909 441q3 2 5 2h2q2 -1 2 -4l-1 -2q0 -2 -3 -5q-39 -33 -84 -50q-39 -15 -78 -16q-32 1 -61 9l-18 4q-16 4 -33 4q-22 0 -46 -7q-21 -8 -40 -20q-11 -6 -20 -13q-7 -5 -12 -10q-4 -2 -7 -5q-5 -4 -10 -4q-1 0 -3.5 1t-4.5 6q0 3 1 5q1 3 3 6q43 46 90 88q40 38 84 75
q42 36 86 69q42 32 86 60q19 11 37 21h-2q-2 -1 -3 -1q-31 -5 -60 -5q-28 2 -55 7q-12 3 -24 7q-10 4 -20 11q1 1 0 1q-57 -60 -119 -116q-51 -48 -105 -92q-50 -41 -106 -68q-27 -14 -55 -20q-19 -3 -39 -4q-11 0 -21 -1q-28 -2 -55 -20q-12 -9 -24 -19q-10 -10 -17 -21
q-1 0 -1 -1q-7 -9 -16 -9q-4 1 -6 4.5t-1 7.5q10 22 24 44q13 20 28 39q54 71 122 132q36 31 73 58q5 3 11 7q1 0 2 1q-19 2 -38 6h-1q-6 2 -13 3q-22 5 -42 8q-7 1 -16 1q-20 0 -42 -7q-1 0 -2 -1l-4 -2q-1 0 -2 -0.5t-2 -1.5t-2 -1l-11 -8q-1 0 -1 -1q-5 -3 -9 -8l-4 -12
q-1 -2 -4 -4t-7 -2q-3 0 -5 3q-1 8 3 17l1 5q3 7 7 12q2 3 6 7l7 7q8 7 18 12q29 14 57 14h10q31 -4 57 -15q1 0 3 -1q3 -1 6 -3q21 -9 46 -12h9q20 11 41 19q2 1 4 1q3 0 4 -3q1 -1 1 -3q-1 -2 -5 -5q-1 -2 -4 -4q-4 -4 -8 -7q-1 0 -2 -1l-1 -1q-19 -15 -38 -29
q-12 -9 -25 -19q-17 -13 -33 -27q-9 -7 -18 -15q-2 -2 -4 -3l-1 -1q-4 -4 -8 -7q-33 -30 -62 -63q-14 -15 -27 -31q-5 -5 -9 -10l-3 -4l-1 -1q0 -1 -1 -1l-12 -16q-2 -4 -6 -8q0 -1 -2 -2q31 18 61 20q12 2 23 2q17 0 35 3q28 4 56 17q55 27 104 69q114 93 215 200q2 3 4 3
q2 3 5 5q1 1 4 1h12q9 0 17 -2l15 -2q5 -1 11 -2q10 -2 23 -3h4q10 -1 22 -2l53 -2q14 0 27 1q6 0 14 1h5q5 0 9 1q4 0 5.5 -2.5t0.5 -5.5t-6 -5q-50 -24 -95 -60q-32 -24 -63 -49l-20 -16q-42 -33 -83 -69q-39 -34 -80 -71q-4 -3 -8 -7l-5 -5q7 3 13 5q27 8 52 8
q17 0 33 -4q14 -3 26 -7q24 -7 50 -10h7q74 0 143 57z" />
    <glyph glyph-name="uni008A" unicode="Sun" horiz-adv-x="1582" 
d="M783 414q-2 49 -27 86q-115 -54 -224 -123q-121 -76 -231.5 -171t-190.5 -211q-33 -47 -51 -96q-3 -8 -14 -41t25 -71q31 -25 75 -25q9 0 41.5 3.5t90.5 33.5q61 32 119 77q55 42 107 89q103 96 179 208q40 57 71 120q7 16 13 31q17 46 17 90zM1143 634q-49 -11 -98 -25
q-128 -36 -255 -93q23 -30 30 -69q7 -54 -15 -115q-2 -4 -14.5 -38t-52.5 -95q-72 -117 -174 -219q-103 -103 -224 -176q-59 -36 -121 -54q-36 -10 -69 -10q-24 0 -46 5q-46 12 -68 50q-17 45 3 100l2 6q23 59 67 115q40 56 89 107q99 103 216.5 188t242.5 152q46 25 93 47
q-20 27 -45 48q-39 33 -84 61q-38 24 -74 52q-85 65 -145 152q-27 40 -39 91q-12 48 9 106l2 4q27 60 75 110.5t106 90.5q120 85 250 140q132 56 259 61h13q40 0 78 -17.5t38 -64.5q-2 -16 -7 -32q-5 -13 -18 -34.5t-36 -47.5q-46 -52 -96 -99q-100 -92 -213 -166
q-114 -77 -235 -132q-6 -2 -10 -2q-3 0 -7 1.5t-5 9.5q0 4 1 8q2 4 6 8.5t13 7.5q58 19 115 46q121 58 231 143q111 84 199 188q25 28 40 59q3 5 5 10q9 25 0 47q-20 35 -68 38q-16 2 -32 2q-37 0 -76 -8q-65 -11 -131 -36q-128 -47 -249 -125q-57 -35 -109 -79.5
t-86 -100.5q-11 -21 -19 -42q-12 -33 -13 -75t21 -85q23 -45 58 -81q37 -42 79 -77q52 -41 111 -75q28 -17 54 -35q37 -23 66 -54q191 86 382 128q2 0 4 1q5 1 7.5 0t3.5 -4q0 -4 -1 -8l-3.5 -7t-7.5 -12q-2 -3 -4 -5q-9 -15 -16 -29q-8 -16 -14 -32q-4 -11 -7 -22l-1 -2
q-3 -8 -2 -14q2 -4 6 -4q3 0 8 2q12 7 23 18t22 23l21 24l1 2l5 7l3 3l7 10l2 1q0 1 1 2q1 2 3 2l6 6q5 2 8.5 1.5t3.5 -5.5l-2 -8q-2 -6 -7 -13l-4 -8t-3 -7q-6 -9 -10 -18q-2 -6 -4 -13l-1 -3q0 -3 -1 -5q0 -3 1 -5l-1 -1q0 -1 1 -2q0 -5 1 -10v-2q1 0 1 -1v-1
q0 -1 0.5 -1t0.5 -1q2 -2 4 -5q1 0 1 -1q1 0 1 -1l3 -2q5 -2 8 -3h9q17 0 35 5q46 14 91 39q78 44 152 100q3 4 8 8q3 3 8 7t10 6h3q3 0 6 -1q1 -2 1 -5v-1q-1 -2 -3 -4v-1q-8 -19 -21 -37q-4 -4 -6 -8q-16 -23 -28 -47q-11 -21 -21 -45q-5 -11 -8 -21q12 13 26 25
q23 21 48 40q12 8 23 17l3 2q10 7 19 11q7 3 12 3q6 0 10 -3q4 -5 5 -12l-1 -2q1 -1 1 -3q-1 -2 0 -3l-1 -10q-1 -5 0 -9q-1 -4 0 -9l-1 -1l1 -1v-2v-2q0 -9 3 -17l1 -1q0 -1 1 -1l1 -3q1 -1 1 -2l2 -3q10 -8 25 -8q7 0 22 2.5t36 13.5q23 12 44 27q13 8 25 17l19 14
q1 1 3 1h2q2 -1 1 -3v-2l-2 -3q-23 -19 -48 -36q-23 -16 -49 -29q-22 -11 -45 -17q-13 -3 -25 -3t-23 3q-33 18 -28 61q1 11 5 22l1 2q1 1 0 2h-2q-10 -3 -19 -10q-1 -1 -3 -2l-22 -16q-22 -17 -43 -35l-27 -26q-4 -5 -9 -9q-3 -7 -9 -11q-5 -4 -9 -4q-3 0 -5 2
q-6 4 -4.5 12t2.5 15l2 4l8 26q12 29 27 56q10 19 22 38l-51 -36q-47 -31 -96 -56q-23 -12 -48 -22q-3 -1 -7 -3q-22 -9 -45 -15q-11 -3 -22 -3q-14 0 -26 6q-17 11 -17 33q-1 15 4 31l-2 -2q-3 -3 -6 -7q-2 -1 -4 -3q-10 -12 -23 -23t-26 -14q-4 -1 -7 -1q-11 0 -16.5 9
t-3.5 23q3 18 9 36q6 15 15 31q7 15 18 30z" />
    <glyph glyph-name=".notdef" horiz-adv-x="1024" 
d="M100 0v1434h824v-1434h-824zM150 50h724v1334h-724v-1334zM325 1148q31 28 58 43q53 30 112 30q92 0 148 -47.5t56 -127.5q0 -49 -23 -98.5t-87 -129.5q-63 -80 -99 -132t-36 -99q0 -38 24 -133h-32q-35 97 -35 148q0 76 81.5 218t81.5 217q0 57 -33 90t-91 33
q-38 0 -69 -17q-26 -15 -56 -40v45zM389 334l57 58q11 10 20 10q10 0 22 -11l56 -60q9 -11 9 -20q0 -11 -10 -22l-56 -62q-14 -14 -21 -14q-11 0 -20 10l-61 71q-7 9 -7 18q0 10 11 22z" />
    <glyph glyph-name=".notdef" horiz-adv-x="1024" 
d="M100 0v1434h824v-1434h-824zM150 50h724v1334h-724v-1334zM325 1148q31 28 58 43q53 30 112 30q92 0 148 -47.5t56 -127.5q0 -49 -23 -98.5t-87 -129.5q-63 -80 -99 -132t-36 -99q0 -38 24 -133h-32q-35 97 -35 148q0 76 81.5 218t81.5 217q0 57 -33 90t-91 33
q-38 0 -69 -17q-26 -15 -56 -40v45zM389 334l57 58q11 10 20 10q10 0 22 -11l56 -60q9 -11 9 -20q0 -11 -10 -22l-56 -62q-14 -14 -21 -14q-11 0 -20 10l-61 71q-7 9 -7 18q0 10 11 22z" />
    <glyph glyph-name="space" unicode=" " horiz-adv-x="508" 
 />
    <glyph glyph-name="space" unicode="&#xa0;" horiz-adv-x="508" 
 />
    <glyph glyph-name="exclam" unicode="!" horiz-adv-x="250" 
d="M320 494v0q-3 -5 -9 -7.5t-11 -1.5t-6 6q0 17 6 36q1 5 2 9q5 21 12 42q23 73 55 146q17 38 35 74q10 19 21 37l6 10q2 4 5 8l4 6l2 2l4 8q1 0 1 1q3 4 7 5t6.5 -1t0.5 -6v-1q-2 -5 -4 -9q-1 -6 -3 -11l-8 -20q-6 -16 -13 -32q-2 -4 -3 -8q-31 -73 -58 -146
q-13 -36 -25 -72q-6 -18 -12 -37q-2 -4 -3 -9q-4 -15 -12 -29zM306 444v0v-1q1 0 1 -1q2 -4 0 -9t-7 -9q-2 -2 -5 -3t-5 -1q-6 0 -8 4q-1 0 -1 1h-1q-1 1 -1 2q-2 1 -3 4v0v3v0q1 2 1 4l2 4l2 2l1 1l3 3q2 2 5 3q2 1 4 1h4t3 -1q2 -1 3 -2l2 -4v-1v0z" />
    <glyph glyph-name="quotedbl" unicode="&#x22;" horiz-adv-x="306" 
d="M427 740v0q-8 -18 -20 -36q-20 -33 -55 -54q-6 -2 -9 0t-2.5 6.5t5.5 8.5q28 19 46 47q10 17 19 33l1 1q1 3 3 5q3 7 7.5 14t10.5 11h2t1 -1q2 -3 1.5 -7t-2.5 -8zM478 776v0q2 1 3 0.5t2 -1.5q2 -3 1.5 -7.5t-2.5 -9.5l-8 -18q-10 -19 -21 -37t-24 -35q-12 -18 -29 -30
q-7 -4 -11.5 -2.5t-4.5 6.5t6 11q14 11 23 26q12 16 23 32q10 17 20 35l4 6q3 7 7.5 13.5t10.5 10.5z" />
    <glyph glyph-name="numbersign" unicode="#" horiz-adv-x="582" 
d="M704 621v0q3 -3 1 -6.5t-6 -5.5q-8 -2 -15 -1h-4q-9 1 -18 1h-17t-17 1h-77q-21 -29 -42 -57h1h2q34 2 68 2q17 0 33 -1h1h16h2q8 0 14 -4q4 -2 1 -6.5t-8 -6.5q-8 -3 -16 -2h-4h-8h-11h-38q-34 0 -68 -2q-4 -6 -8 -11q-10 -13 -19 -26q-23 -31 -47 -62l-8 -12
q-7 -10 -14 -19q-4 -6 -9 -11q-2 -3 -4 -5q-1 -2 -2 -3q-2 -4 -5 -6q-3 -4 -8 -6v-1q-5 -2 -9 0t-4 6q3 10 10 19q1 2 2 3q7 10 14 19l28 38q19 26 39 53q9 11 17 22q-20 -1 -40 -3h-2h-2l-38 -54q-9 -14 -18 -29q-2 -2 -4 -5q-7 -12 -17 -23q-3 -3 -6.5 -3.5t-5.5 1.5t-1 6
q6 14 16 28l4 6q11 16 21 32q14 19 28 39q-22 -2 -44 -5q-12 -1 -25 -3q-4 0 -9 -1q-2 0 -4 -1q-16 -2 -29 0q-3 1 -2 3.5t4 4.5q9 4 18 6h2q9 2 19 4v0q20 4 40 6q22 3 43 5l40 54q1 2 3 4q1 2 3 3q-15 -1 -29 -1l-60 -4q-4 0 -4.5 3t1.5 6t6 4q38 5 75 7l22 2h1
q13 16 25 32l4 4q9 12 19 23l4 4q4 5 8 9q2 3 6 4q1 1 2 1h1.5t0.5 1h1l0.5 -0.5t-0.5 -0.5v-1v-1h1v-3h-1q-1 -4 -3 -7q-3 -4 -5 -7q-3 -5 -7 -9q-7 -10 -15 -21l-8 -10q-3 -5 -7 -9l-6 -8q23 1 45 2q12 16 25 33l6 8q10 13 21 25q4 4 9.5 7t10 2.5t5.5 -6.5
q0 -4 -3.5 -7.5t-7.5 -3.5v-1h-0.5t0.5 0q-2 -3 -5 -6q-1 -2 -2 -3q-5 -8 -10 -15q-1 -2 -3 -4q-10 -14 -21 -29h6h9h65q15 -1 31 -2q8 0 17 -1v0q8 0 13 -2zM512 591v0q6 9 13 18h-10q-7 0 -14 -1h-16q-2 0 -4 -1q-22 -29 -44 -59q23 2 45 3q6 9 12 17q9 12 18 23z" />
    <glyph glyph-name="dollar" unicode="$" horiz-adv-x="513" 
d="M650 657v0q-1 -1 -1 -2q-1 -9 -4 -17q-4 -8 -6 -16q-1 -2 -2 -5q-3 -8 -8 -17q-1 -1 -1 -2q-1 -2 -2.5 -2.5t-3 0t-1.5 2.5q0 3 1 5v14q2 9 1 18q0 6 1 13q0 3 1 6q0 10 1 20q0 18 -2 34q-2 35 -13 66q-1 -3 -3 -6q-2 -4 -3 -7q-53 -105 -103 -211q21 -26 36 -57
q15 -30 15.5 -67t-19.5 -77q-41 -70 -117 -104q-31 -13 -59 -15q-2 -4 -4 -9q-10 -23 -19 -46l-18 -42q-1 -3 -3 -7q-6 -18 -16 -35q-1 -3 -4 -4t-6 -1q-5 1 -4 7q6 19 14 38q2 5 5 10q9 24 20 48q5 13 11 26q3 8 6 15q-33 2 -58 19q-53 35 -45 107q6 36 26 73q10 18 23 35
q7 9 14 17q8 7 17 13q0 1 1 1q3 2 6 1.5t4 -2.5t-1 -6q-3 -3 -5 -7l-8 -10q-1 -1 -2 -1q-5 -7 -10 -13q-51 -69 -40 -133q6 -28 27 -45q11 -9 24 -14q7 -3 14 -5q4 -1 8 -1v0q0 -1 0.5 -1h0.5h4q6 -1 12 -1v0q2 6 5 11l6 14q55 126 115 252q-1 1 -2 3t-3 4q-2 3 -5 6
q-20 24 -36.5 50.5t-23.5 58.5q-7 34 3 72q11 35 37 66q26 30 61 48q38 18 71 10q28 -7 44 -28q12 21 23 42q12 21 23 42l12 20q3 7 8 13q2 4 4 7q1 1 2 1.5t1.5 0t0.5 -1.5q-2 -5 -4 -9q-3 -7 -7 -15q-6 -11 -11 -22l-14 -28l-10 -20q-7 -13 -13 -26l-8 -14q16 -28 20 -60
q6 -36 2 -77q-2 -10 -3 -20zM526 423v0q-4 57 -38 98q-22 -47 -43 -94q-38 -84 -75 -168v0v-1v0v0v0h1l18 4q4 1 9 3h1t2 1v0h1v0v0q18 7 35 17v0h1v1h1q1 1 2 1l2 2q4 2 8 5q7 5 14 11q3 3 6 5.5t7 6.5q7 7 13 14q1 1 2 3v0h1v1l0.5 0.5t0.5 1t0 -0.5l6 8q5 7 9 15l2 4
q0 1 0.5 1.5t0.5 1v0.5q2 4 4 7q3 10 6 19q3 16 3 33zM603 784v0q1 1 1 2q1 1 1 2v0v1l-8 12t-8.5 10.5t-10.5 8.5q-22 15 -55 4h-1h-1q-1 -1 -1.5 -1h-0.5l-4 -2q-3 -1 -7 -3t-7 -4t-6 -5q-15 -10 -26 -22q-26 -28 -35 -60q-10 -36 -1 -67.5t27 -56.5q14 -21 31 -40
q0 -1 1 -1q2 4 4 9l22 46q41 83 85 167z" />
    <glyph glyph-name="percent" unicode="%" horiz-adv-x="511" 
d="M479 381v0v0v0v0h-0.5h-0.5h1v0v0zM676 765v0q5 2 7.5 0.5t3 -4.5t-2.5 -7q-28 -28 -55 -57q-18 -20 -37 -39q-9 -9 -17 -18l-5 -5q-95 -98 -183 -200q-44 -51 -85 -105q-16 -21 -31 -43q47 41 98 79l54 40q16 11 31 21q11 7 22 15q2 2 4 3q12 9 24.5 9.5t20.5 -5.5
q16 -16 2 -44q-7 -13 -19 -24q-12 -13 -28 -20q-15 -5 -22 3.5t-5 20.5q2 13 10 26q1 2 3 4q3 6 6 11q-24 -16 -47 -33l-2 -2q-109 -78 -201 -174q-4 -5 -9 -6t-9 0q-4 2 -4.5 6.5t2.5 8.5q18 30 38 59q2 2 4 5q22 31 46 62q84 109 181 211q49 52 99 101q25 25 51 49
q14 13 27 26q-20 -8 -40 -13q-63 -19 -123 -20q-29 -1 -55 3q-7 2 -12 4q-1 -9 -4 -19q-4 -13 -14 -25q-8 -12 -19 -21v0q-2 -2 -4 -3q-4 -3 -8 -3.5t-7 1.5q-9 8 -10 21q-2 12 2 26q7 27 30 50q4 4 8 4t5 -3.5t-2 -8.5q-14 -19 -16 -38v-9t1 -9q0 -4 1 -8h1v0q1 1 2 1l2 2
v0v0v0v0v0h1q0 1 1 2l1 1q8 8 13 19q8 16 4 30q-3 3 -5 8v0v0v0v0v1q-1 2 0.5 4t4 2.5t3.5 -0.5q4 -4 6 -10q6 -4 14.5 -5t16.5 -2h3q109 -6 227 44zM479 381v0v0v0v0v0zM489 432v0q-1 -6 -4 -13q-2 -4 -4 -9q-4 -7 -6 -15q-1 -6 1 -12l1 -1v0l0.5 -0.5l0.5 -0.5h1v0v0h-1h1
v0v0v0v0v0v0v0v0v0v0v0h0.5h0.5v0q4 2 8.5 5.5t7.5 6.5q8 8 13 17q1 4 2.5 8t0.5 6q0 6 -4 9q-5 3 -10 3t-9 -4z" />
    <glyph glyph-name="ampersand" unicode="&#x26;" horiz-adv-x="622" 
d="M780 923v0q22 3 37.5 -5.5t17.5 -28.5q1 -25 -14.5 -51t-35.5 -50q-81 -97 -184 -174l-70 -52q-51 -39 -101 -79q-8 -39 -11 -77q-3 -52 2 -101q2 -11 3 -23l24 26q3 4 5.5 3.5t3.5 -3t-1 -5.5q-15 -17 -29 -33v-4l2 -8q2 -9 4 -19q0 -2 1 -5l2 -12q0 -5 1 -10v-2
q0 -2 -1 -3t-2 -1t-2 1l-1 1q-6 8 -10 18t-8 22q0 1 -1 3v3q-41 -43 -90 -76q-27 -18 -56 -28.5t-52 -1.5q-33 18 -27 61q6 46 35 91q32 51 76 97t92 87q14 11 28 23q19 71 56 143q49 93 129 171q40 38 86 67q45 28 91 35zM409 266v0q-19 86 -3 184q1 7 3 14v2q-2 -1 -4 -3
q-3 -2 -5 -4q-7 -6 -11.5 -10t-10.5 -9q-12 -11 -23 -22q-23 -21 -44 -45q-10 -11 -20 -23q-5 -6 -9 -10.5t-8 -10.5q-18 -24 -34 -50q-3 -6 -7 -13l-2 -4l-1 -1v0v0v-1q-5 -10 -9 -21q-4 -10 -6 -20v-0.5v-1.5l-1 -1v-1v-4q-1 -5 -1 -10v-4v-1v0v-1v-1q0 -4 1 -8q1 -2 1 -4
v0h1v-1v-1l4 -6q2 -2 5 -4.5t6 -3.5q10 -4 23 -2q28 5 55 22q27 15 51 35q25 21 49 45zM775 803v0q18 21 34 46.5t10 46.5q-6 17 -26.5 18.5t-41.5 -5.5q-48 -16 -91 -50q-44 -32 -80 -73q-73 -83 -112 -177q-18 -43 -29 -86q44 34 89 67q32 23 63 47q102 73 184 166z" />
    <glyph glyph-name="quotesingle" unicode="'" horiz-adv-x="242" 
d="M422 777v0q0 -6 -2 -12q-4 -13 -10 -25q-12 -25 -33 -47q-9 -8 -18 -5q-3 2 -4 6t2 9l4 4q14 18 26 37q7 11 12 21l4 8q1 2 2 3q1 2 3 5t3 6q2 3 4.5 4.5t4.5 0.5t2 -3v-6q1 -3 0 -6z" />
    <glyph glyph-name="parenleft" unicode="(" horiz-adv-x="356" 
d="M592 955v0q3 2 6 1.5t4 -2.5t-2 -5q-2 -4 -5 -7q-3 -5 -6 -9l-10 -12l-4 -4q-4 -4 -7 -8q-10 -11 -21 -22q-27 -31 -52 -63q-89 -111 -149 -232q-30 -60 -51 -121q-11 -31 -19 -62l-10 -38q-2 -12 -5 -23q-2 -6 -7 -8t-9.5 -1t-3.5 6q5 36 16 72q9 34 21 68
q45 126 124 247q39 60 86 117q23 28 49 56q12 13 25 26l2 2q7 7 14 12l8 6z" />
    <glyph glyph-name="parenright" unicode=")" horiz-adv-x="313" 
d="M468 956v0q12 -62 7 -130q-6 -120 -51 -245q-23 -63 -55 -126q-15 -30 -33 -60l-18 -30q-1 -3 -3 -5q-8 -14 -19 -26q-7 -6 -13 -4.5t-4 9.5q5 14 15 27q2 4 5 8l20 34q19 32 35 65q58 122 82 242q11 60 14 119q1 57 -4 112q-1 4 1.5 8t7.5 6q4 2 8 1t5 -5z" />
    <glyph glyph-name="asterisk" unicode="*" horiz-adv-x="383" 
d="M539 719v0q5 -4 2.5 -10t-8 -10t-11.5 -2q-14 6 -26 15q-2 1 -4 3l-22 16q-10 -36 -24 -71q-2 -5 -7 -9t-11 -4t-8 4t0 9q8 28 18 57l-24 -16q-11 -8 -23 -15q-2 -2 -4 -3q-11 -7 -22 -13q-8 -4 -12.5 -0.5t-4 9.5t7.5 12q9 6 19 12q3 1 6 3q12 7 23 15q15 9 29 17l16 10
q-1 0 -1 1l-8 6q-6 6 -11 13q-3 3 -5 7q0 1 -1 2l-2 6q0 3 2.5 5.5t5.5 2.5q9 -1 15 -6l1 -1q7 -4 13 -9q0 1 1 2v1q4 11 9 21q1 0 1 1q3 8 10 14q1 1 2 1t1 -1q2 -2 2.5 -6t0.5 -8q-1 -1 -1 -2q0 -9 -2 -18q-1 -5 -2 -11q0 -1 -1 -2q1 0 2 1q9 6 19 11l8 6q19 12 39 21
q2 1 3 -0.5t-1 -3.5q-17 -18 -37 -32q-3 -3 -6 -5q-6 -4 -11 -8q-3 -2 -7 -5q12 -8 23 -15q7 -5 14 -9q3 -2 5 -3q5 -3 9 -6z" />
    <glyph glyph-name="plus" unicode="+" horiz-adv-x="385" 
d="M483 574v0q3 0 5 -1.5t3 -3.5q0 -3 -1 -5.5t-3 -5.5q-3 -3 -6 -4l-6 -2h-27h-17q-18 -1 -36 -1v-2q-3 -6 -5 -13q-7 -21 -14 -41q-2 -5 -3 -10q-6 -17 -14 -34q-3 -5 -8.5 -7.5t-10.5 -2.5q-10 3 -7 14q2 8 5 15q1 3 3 6l6 18q1 1 1 2q1 2 1 4q7 18 14 37q2 5 3 9
q1 2 2 3h-9q-8 0 -15 -1q-12 -1 -23 -1h-1q-10 0 -18 3q-2 2 -0.5 4t3.5 3q11 6 23 8q11 1 23 2q8 1 17 2h7v2q2 4 3 8l2 6q3 9 7 18t10 16q4 4 8 4t5 -4q2 -4 1 -10t-2 -11q-3 -11 -6 -21q0 -2 -1 -3v-2q18 1 37 1q5 1 11 1q17 1 33 0z" />
    <glyph glyph-name="comma" unicode="," horiz-adv-x="254" 
d="M328 497v0q1 -15 -5 -32q-5 -16 -13 -31q-16 -32 -44 -58q-12 -11 -23 -6q-4 4 -3 10t6 12l1 1q11 12 21 24v0v0h0.5h0.5l2 4q3 3 5 6q4 7 8 13q8 13 13 25l6 12l6 16q3 6 10 8q3 1 5.5 0t3.5 -4z" />
    <glyph glyph-name="hyphen" unicode="-" horiz-adv-x="404" 
d="M503 579v0q4 0 6.5 -3t1.5 -7q-1 -5 -5 -9t-9 -5q-21 -3 -42 -4h-8q-23 -1 -47 -2q-23 -1 -47 -1h-23v0q-12 0 -22 3q-2 1 -3.5 2.5t-0.5 4.5v0v0q0 2 1 5q2 2 4.5 3.5t4.5 2.5q12 3 24 3h2q10 1 20 1h2q16 0 32 1q7 0 15 1q23 1 47 2q8 0 16 1q15 1 31 1z" />
    <glyph glyph-name="hyphen" unicode="&#xad;" horiz-adv-x="404" 
d="M503 579v0q4 0 6.5 -3t1.5 -7q-1 -5 -5 -9t-9 -5q-21 -3 -42 -4h-8q-23 -1 -47 -2q-23 -1 -47 -1h-23v0q-12 0 -22 3q-2 1 -3.5 2.5t-0.5 4.5v0v0q0 2 1 5q2 2 4.5 3.5t4.5 2.5q12 3 24 3h2q10 1 20 1h2q16 0 32 1q7 0 15 1q23 1 47 2q8 0 16 1q15 1 31 1z" />
    <glyph glyph-name="period" unicode="." horiz-adv-x="237" 
d="M294 475v0q8 -1 10 -9q1 -4 -0.5 -9t-5.5 -8l-2 -2l-1 -1l-4 -4q-3 -2 -6 -3q-6 -3 -12 -2q-4 1 -6 5v1v1q-1 2 -1 5q0 2 1 4v0v0q1 9 11 17q8 6 16 5z" />
    <glyph glyph-name="slash" unicode="/" horiz-adv-x="534" 
d="M763 939v0q3 3 6 2.5t4 -3t-1 -6.5q-10 -15 -23 -29q-3 -2 -5 -5l-26 -28l-4 -4q-29 -32 -58 -63l-38 -42q-85 -93 -169 -186q-51 -57 -102 -115l-52 -58q-12 -14 -25 -28q-2 -2 -3 -4q-11 -13 -24 -24q-5 -4 -9 -3t-5 4t1 8q9 15 22 28q3 3 6 7q14 16 29 32q28 33 57 65
q102 114 206 228q52 57 104 113q27 29 54 57l26 28q1 1 2 1q12 14 27 25z" />
    <glyph glyph-name="zero" unicode="0" horiz-adv-x="164" 
d="M281 475v0v0h1v0h-0.5h-0.5zM374 768v0q15 -6 20.5 -20t5.5 -30q0 -69 -38 -141q-19 -36 -46 -69q-12 -15 -27 -28q-4 -3 -7 -5q-1 0 -1.5 -0.5t-1.5 -1t-1.5 -1l-0.5 -0.5v0q-1 0 -2 -1l-4 -2q-5 -2 -9 -3q-2 -1 -4 -1h-1q-4 -1 -1 0q-2 0 -4 -1q-21 -1 -29 13t-7 32
q1 20 6 40t13 40q16 42 40 84q11 20 23 40l12 20q1 1 2 1l2 4v0q0 1 1 1q-2 1 -2 3t2 4q12 15 28.5 20.5t30.5 1.5zM357 589v0q35 65 33 126q0 13 -4.5 25.5t-16.5 16.5q-6 2 -13 1q3 -5 1 -13q-6 -12 -13 -24l-12 -20q-11 -19 -22 -39q-6 -10 -11 -20q-2 -3 -3 -6v-1
q-1 0 -1 -0.5v-0.5l-4 -8q-10 -20 -17 -41q-4 -9 -6 -19q-2 -4 -3 -8q0 -2 -1 -4v-1v-0.5v-0.5q-4 -16 -5 -31v-4v0v0v0v0v-1v0v1v0v-1.5v-0.5v0v1v-3v-2q1 -5 3 -10v0v0v0q0 -1 1 -1v-1l2 -2v0v0v0q0 -1 1 -1v0v0v0v0h1v0v-0.5v-0.5v0v1l0.5 -0.5t0 -0.5h-0.5v0v0h-0.5
h-0.5h3h1h1h4l0.5 0.5t1 0.5h0.5h-1v0h0.5h1t0.5 0.5t0.5 0.5h0.5q6 2 11 7q14 11 25 24q24 29 42 61z" />
    <glyph glyph-name="one" unicode="1" horiz-adv-x="82" 
d="M255 488v0q-3 -9 -6 -19t-6 -21l-2 -6q-4 -18 -13 -36q-4 -6 -11 -9t-13 -2t-7 7q0 23 7 48q0 1 1 2q5 22 12 45q23 80 56 160l18 40q0 1 1 3q4 8 8 17q3 6 5 11l2 2v1q1 3 4 9q11 19 23 38q2 4 5 7q0 2 1 3q-1 -1 -3 -2q-2 -2 -5 -4q-2 -3 -5 -5q-14 -12 -29 -22
q-1 -1 -2 -0.5t-1 1.5t1 2q12 13 26 24l5 5q18 15 34 30q2 3 5 3t4.5 -1.5t0.5 -4.5t-2 -7q-1 -2 -1 -4l-2 -6t-2 -5l-4 -12q-2 -5 -4 -11q-7 -22 -16 -44l-6 -16q-29 -71 -54 -141q-14 -40 -25 -80z" />
    <glyph glyph-name="two" unicode="2" horiz-adv-x="276" 
d="M446 500v0q3 3 6 2t3.5 -4t-2.5 -6q-18 -18 -38.5 -17.5t-37.5 5.5q-2 0 -3 1q-9 2 -17 4q-23 6 -48 10q-26 -23 -57 -40q-21 -14 -43 -14q-12 1 -17 9t0 20q11 26 39 36t51 11q13 1 26 0q51 47 85 102q27 43 42 87q8 19 10.5 38.5t-7.5 32.5q-5 6 -10 8q-4 1 -7 2h-0.5
h-1h-1h-0.5h-2h-2q-3 0 -1 0h-2q-3 -1 -5 -1q-1 -1 -3 -1h-1l-1 -1v0h-0.5h-0.5q-1 0 -2 -1q-3 -1 -7 -3v-0.5t-1 -0.5l-0.5 -0.5l-0.5 -0.5q-3 -1 -5 -3h-0.5t-1 -0.5t-1 -0.5t-0.5 -1h-1q-3 -2 -5 -3q-4 -4 -8 -7q-2 -1 -3 -3h-1l-1 -1v0h-0.5t-0.5 -1v0l-6 -6q-1 0 -2 -1
q-2 -2 -4 -5q-3 -2 -6 -5l-0.5 -0.5l-1 -1l-0.5 -0.5v0q-1 -1 -1 -2q-1 0 -2 -1v0v0v0v-1q-2 -2 0 1l-2 -4l-1 -1l-1 -1q0 -6 -6 -10t-11.5 -4t-6.5 6q-1 0 -1 1v7v-1.5t-0.5 -0.5t-0.5 0.5t0.5 1t0.5 2.5t1 4v0q0 2 1 4q2 6 6 11q2 2 3 4l2 2l-1 -1l1 1t2 2.5t2 2.5
q9 10 19 19q20 18 43 28q25 10 46 4q19 -6 26 -24q13 -39 -9 -88q-19 -49 -49 -97q-30 -47 -72 -90q22 -4 43 -11q5 -2 10 -3q14 -5 30 -8q7 -1 16 0t17 8zM264 483v0q10 6 19 13q-20 0 -42 -7q-8 -2 -16.5 -7t-11.5 -13q0 -5 4 -5h0.5h1h0.5v0h0.5h0.5h0.5h1h0.5q4 0 8 2
q17 6 34 17z" />
    <glyph glyph-name="three" unicode="3" horiz-adv-x="215" 
d="M486 857v0q18 -6 22 -25q3 -20 -7 -42q-13 -25 -34 -47q-21 -23 -44 -44q-25 -24 -51 -46q-3 -3 -6 -5q-2 -2 -3 -4q23 0 39 -13q31 -32 7 -87q-22 -53 -73 -93q-52 -41 -102 -32q-19 6 -30 21.5t-8 37.5q2 6 6.5 8.5t8.5 2t4 -5.5q0 -9 4 -15q2 -4 4 -6t6 -4l1 -1h1
t1 -1q1 0 3 -1q4 -2 9 -3h1h1h-1v0h0.5h1.5h1h1h2q5 -1 10 -1q2 1 5 1h1h1v0v0v0q4 0 7 1h1q2 1 5 2h1q1 1 2 1v0v0q5 2 9 4q6 2 11 5l4 2v1q1 0 1.5 0.5l0.5 0.5q11 7 20 15h1l1 1v0l1 1l4 4l8 8q5 5 9 10q2 2 3 4v0h0.5h0.5q0 1 1 2t1 2h1v1h1q0 1 1 2q2 3 4 5q3 6 6 11
l6 10l0.5 0.5l0.5 0.5v0q0 1 1 2q1 3 2 5q2 6 4 11q1 2 2 5v0.5v1.5v0.5v0.5q3 10 3 20q0 16 -11 26q-10 10 -27 10q-7 0 -14 -2q-10 -7 -21 -12v-1v0v0h-1v0v0q-7 -3 -11 0q-3 2 -2.5 6.5t3.5 8.5q18 20 40 36q6 6 13 11q14 12 28 23l24 20q6 5 13 11q39 28 62 65
q11 20 5 37q-7 13 -24 15q-38 1 -77 -25q-20 -13 -36 -30q-6 -6 -11 -12q-3 -3 -6 -7l-1 -1q-5 -7 -14 -12l-8 -2q-1 -1 -2 -1q-5 -1 -8 1.5t-3 6.5q-1 10 7 20q6 6 13 12q12 10 24 19q26 17 54 30q46 22 85 12z" />
    <glyph glyph-name="four" unicode="4" horiz-adv-x="225" 
d="M520 844v0q5 3 8.5 0.5t0.5 -7.5q-19 -29 -46 -56q-2 -2 -4 -5q-49 -52 -105 -96q-27 -21 -55 -36q19 3 38 5q30 4 59 5q14 23 27 46q6 9 12 19q9 16 18 31q2 2 3 5l12 18q3 6 7 11l4 6t5.5 3.5t5.5 -0.5t0 -5q-2 -3 -3 -7q-3 -7 -7 -14q-5 -10 -11 -21q-10 -20 -22 -40
q-13 -24 -27 -48l-2 -4h3q6 0 12 -1q4 0 4 -3t-2 -6t-6 -3q-9 1 -18 1l-44 -78l-24 -42q-28 -51 -58 -102q-3 -5 -7.5 -7t-8.5 -1q-4 2 -4.5 5.5t1.5 8.5q17 30 35 61q5 10 11 19l77 136q-27 -1 -55 -4q-24 -3 -49 -8q-12 -3 -24 -5l-8 -2l-1 -1h-1q-1 0 -2 -1q-2 0 -4 -1
q-6 -2 -11 -3v0v0q-4 -1 -5.5 1t-1 5t3.5 5l10 6q3 2 7 4q9 5 17 9q15 9 29 19q28 18 54 39q27 22 50 44q26 23 50 48q4 4 9 8q20 21 43 39z" />
    <glyph glyph-name="five" unicode="5" horiz-adv-x="250" 
d="M532 797v0q4 -1 4.5 -4.5t-1.5 -7.5q-5 -9 -14 -10q-6 0 -12 1h-5q-8 1 -17 1l-32 2q-10 1 -20 1h-4h-1v-2q-2 -3 -4 -7q-3 -6 -7 -13q-5 -9 -11 -19t-12 -21q-11 -20 -22 -41q18 10 36 12q17 2 26.5 -6.5t14.5 -21.5q15 -51 -25 -110q-43 -58 -109 -88q-37 -18 -71 -15
q-28 5 -37 29q-6 24 10 51t42 49q3 2 5.5 1t3 -3.5t-2.5 -4.5q-25 -21 -36 -48q-5 -12 -2 -22q0 -2 1 -4t2 -3l4 -4q1 0 3 -1v0v0v0v-1q5 -2 10 -3h2q1 -1 2 -1v0v0h2h11h6l0.5 0.5t1.5 0.5h1h1l14 4q2 0 4 1q1 1 3 1v0v0v0h1q1 1 2 1q14 6 27 13q4 2 7 4q1 0 1 1h1v0
q1 1 3 2q4 3 9 6q12 8 23 16l6 6v0h1l0.5 0.5l0.5 0.5v1q5 4 10 9t10 11l4 4q0 1 0.5 1t0.5 1q1 0 1.5 0.5l0.5 0.5q35 45 26 88q-3 9 -10.5 14t-19.5 3q-22 -6 -41 -25q-1 -3 -3 -5q-3 -5 -7 -8q-1 -1 -1 -2q-12 -10 -22 -7t-7 16q8 23 21 45q11 20 24 41q12 20 26 39
q6 8 13 15q-4 1 -7 2q-4 1 -8 1q-5 1 -4 5q0 2 2 4.5t4 2.5l10 2t10 1q9 2 18 2v0v0h2h30h1l34 -2q9 0 17 -1h4q7 0 14 -2z" />
    <glyph glyph-name="six" unicode="6" horiz-adv-x="226" 
d="M510 802v0q4 0 5.5 -2t0.5 -4.5t-5 -4.5q-38 -20 -74 -47q-35 -26 -66 -58q-31 -31 -59 -65q-2 -2 -4 -5v0l-0.5 -0.5l-1 -1t-0.5 -1.5q-3 -3 -5 -7l-12 -16q-12 -17 -23 -35l-10 -18v-0.5t-1 -0.5v-1.5t-0.5 -0.5h-0.5v-1q0 -1 -1 -1l-4 -10q-6 -15 -11 -29q11 7 22 13
l2 2q12 6 23 10.5t22 3.5q20 -4 18 -25q-3 -20 -18 -39q-13 -17 -30 -32q-16 -16 -35 -23q-21 -6 -35 4q-8 6 -11 15q-7 -3 -12 0.5t-3 10.5q3 8 8 15q2 2 3 4q1 0 1 1l4 22q11 42 35 83q48 82 124 150q34 32 73 59q40 27 81 35zM257 481v0q-15 -11 -28 -25v-13v-1v-0.5
v-0.5v-2q1 -2 1 -4v0l0.5 -0.5l0.5 -0.5v-2h1v-1l2 -2v-0.5t0.5 -0.5h0.5l-0.5 0.5l-0.5 0.5q0 -1 1 -1t1 -1h0.5h0.5q1 -1 3 -2h1h0.5h0.5h1h1q14 1 28 11q17 12 28 28q7 8 11 17t2 17q-4 10 -14 8t-22 -10t-20 -15z" />
    <glyph glyph-name="seven" unicode="7" horiz-adv-x="215" 
d="M482 761v0q4 1 6 -1t1 -5.5t-4 -6.5q-19 -14 -35 -32q-7 -9 -15 -17t-15 -17q-26 -30 -49 -62q-24 -33 -45 -67l-1 -1v0l25 -2h15h2q4 0 8 -1t5 -4q3 -8 -5 -15q-5 -3 -9.5 -3.5t-8.5 -0.5h-1q-8 1 -16 1q-5 1 -10 1q-9 0 -19 1l-32 -56q-17 -29 -35 -59q-3 -5 -9 -8
t-11 -3q-5 1 -7.5 5.5t-0.5 9.5q21 42 45 84l18 30h-1q-8 1 -15 3h-1q-4 1 -7 4h-2q-1 1 -3 1t-1.5 2t2 4t4.5 2h3h1q5 3 11 3q1 0 2 1q8 1 15 0h1h2h1q29 47 64 90q26 33 56 62q18 17 37 31q-9 -3 -17 -5q-26 -6 -50 -7q-23 -1 -46 1l-22 4q-5 1 -10 3l-1 1v0
q-1 -2 -2.5 -3.5t-3.5 -1.5q-5 -1 -7 1.5t-1 7.5q2 6 7.5 10t11.5 5q8 0 15 -2q3 0 5 -1l20 -2q21 -2 44 -1q45 2 91 16z" />
    <glyph glyph-name="eight" unicode="8" horiz-adv-x="159" 
d="M401 773v0q22 4 28 -12q2 -7 0 -15.5t-6 -17.5q-11 -21 -24 -42q-28 -45 -63 -87q-6 -6 -13 -6l4 -10q10 -29 -8 -63q-11 -18 -28 -27.5t-35 -7.5q-39 7 -35 48q9 44 46 84q13 15 28 29q1 28 18 56q20 31 52 53q17 12 36 18zM317 575v0q-4 13 -10 25t-10 26
q-17 -19 -31 -39q-13 -19 -19.5 -40t2.5 -36q8 -12 24 -11.5t30 15.5q13 15 15.5 31t-1.5 29zM395 718v0v1q11 16 14 30v5.5t-2 3.5q-3 3 -8.5 2t-9.5 -2q-34 -13 -57 -43t-27 -60q7 4 13 6q9 3 16 1q1 -1 0.5 -2.5t-1.5 -2.5q-9 -5 -16 -11q-1 -1 -2 -1l-9 -9q3 -15 10 -28
q1 2 3 4q8 10 15 19q33 43 61 87z" />
    <glyph glyph-name="nine" unicode="9" horiz-adv-x="210" 
d="M491 796v0q2 1 4 1.5t3 -0.5t0 -3q-1 -4 -2 -7l-2 -6l-4 -10q0 -2 -1 -3l-10 -24q-11 -25 -24 -50q-24 -44 -53 -86q-26 -40 -60 -76q-32 -33 -71 -57t-80 -28q-5 0 -5.5 3t2 7t6.5 5q42 8 81 35q37 26 66 60t53 70q27 41 51 83q12 21 23 42q6 10 11 21q2 3 3 6
q-11 -10 -23 -20q-18 -15 -38 -29l-2 -2q-16 -12 -32 -22q-21 -12 -36 -4q-14 10 -8 29t21 36q13 14 30.5 26t35.5 15q15 3 26.5 -3.5t7.5 -22.5q0 -1 -2 -1.5t-3 0.5q-13 18 -42 6q-27 -14 -45 -40q-8 -11 -7 -21q1 -4 4 -7t8 -2q15 4 29 13q16 10 31 20q29 21 54 46z" />
    <glyph glyph-name="colon" unicode=":" horiz-adv-x="237" 
d="M370 652v0q2 -3 1 -7v-2q0 -2 -1 -3q-2 -6 -9 -11q-3 -3 -6 -4q-4 -1 -7 -1q-4 0 -6 1q-3 1 -5 4q-3 5 -1 13q2 4 6 8l2 2q1 0 2 1q6 5 13 5q8 0 11 -6zM300 480v0q3 -2 4 -5q0 -3 -1 -7q-2 -6 -8 -10t-12 -5q-3 0 -6 2t-4 6v3v3q-1 4 2 9q2 3 5 5q2 2 5 3q1 1 3 1h5
l2 -2v0q3 -1 5 -3z" />
    <glyph glyph-name="semicolon" unicode=";" horiz-adv-x="249" 
d="M342 615v0q-7 0 -11 5q-3 5 0 13q1 3 4 6q2 4 5 6q4 3 7 4q4 1 8 1q7 0 10 -5t1 -12q-1 -4 -4 -7q-2 -3 -6 -6q-3 -2 -7 -3q-4 -2 -7 -2zM320 482v0q0 -12 -6 -24q1 2 1 1.5t-0.5 -1.5l-1 -2t-1.5 -2q-1 -2 -3 -4q-1 -1 -1 -2l-0.5 -1t-1.5 -1v0l-4 -6v0q-15 -19 -35 -30
q-6 -2 -9 0.5t-2.5 6.5t5.5 8q7 5 13 11q1 1 2 2.5t2 2.5q1 2 2 3l1 1v0.5t0.5 1l0.5 0.5q0 1 1 2v1q0 1 1 1v0v1v4h1v4q0 -3 0 -1q0 3 1 7t1 7q0 7 5.5 12.5t12.5 7.5t11 -1.5t4 -9.5z" />
    <glyph glyph-name="less" unicode="&#x3c;" horiz-adv-x="336" 
d="M377 552v0q25 -16 42 -39q2 -3 0.5 -8t-6.5 -9q-4 -4 -9.5 -5t-8.5 2l-13 13q-12 13 -25 25l-10 8q-5 5 -11 10q-2 2 -5 4q-2 2 -5 4q0 1 -1 1q-2 2 -4.5 4t-5.5 2q-5 1 -6 4.5t3 8.5q7 7 16 13q3 2 5 3q9 7 19 14l22 14l18 12q21 14 41 27q11 8 22 14q1 1 2 1q4 3 8 4
q3 2 7 2l4 2q3 1 4.5 -1.5t-0.5 -5.5q-1 -2 -3 -4q-1 -3 -4 -5l-6 -6q-1 -2 -3 -3q-8 -7 -17 -14q-2 -1 -3 -2l-40 -28q-21 -14 -42 -27q-11 -7 -23 -13q-1 0 -2 -1h-1q2 -1 3 -1q1 -1 3 -1l10 -4q14 -6 25 -15z" />
    <glyph glyph-name="equal" unicode="=" horiz-adv-x="427" 
d="M357 635v0q6 4 12.5 5.5t13.5 2.5q11 1 22 1q21 1 41 0t40 -3l20 -2h3q5 -1 9.5 -2t5.5 -6q0 -2 -0.5 -4t-2.5 -4q-3 -3 -6 -4.5t-7 -1.5h-10h-4h-17q-20 0 -40 -1q-12 0 -24 -1q-9 0 -18 -1h-4q-9 0 -17 -1h-2q-5 0 -9 1q-6 0 -10 3q-4 4 -3 9t7 9zM527 570v0
q4 0 4.5 -3.5t-2.5 -7t-8 -3.5q-18 -2 -36 -3q-8 -1 -17 -1q-22 -2 -44 -3q-4 0 -8 -1l-30 -2q-39 -4 -75 -3q-6 0 -8.5 3.5t-0.5 9.5q2 5 7.5 8.5t10.5 4.5q35 3 69 1q17 -1 34 -1h51q10 1 20 1h33z" />
    <glyph glyph-name="greater" unicode="&#x3e;" horiz-adv-x="351" 
d="M472 634v0q3 0 5 -2t1 -5q-1 -7 -8 -11q-14 -9 -27 -19q-5 -3 -9 -6l-34 -26q-21 -16 -41 -33q-14 -12 -27 -23q-7 -5 -12.5 -3.5t-7 7.5t4.5 12q33 32 71 59q18 13 37 25q3 2 6 3l2 2v0h-5q-18 2 -33 9q-16 6 -28 17q-6 5 -11 11q-3 3 -5 6q0 1 -1 2q0 1 -1 2
q-3 -1 -5.5 1t-0.5 6q3 7 9.5 10.5t12.5 1.5q6 -3 10 -8q2 -1 3 -2q12 -11 27 -19q13 -6 28 -10q2 0 4 -1q16 -5 35 -6z" />
    <glyph glyph-name="question" unicode="?" horiz-adv-x="380" 
d="M553 837v0q25 -7 18 -36q-10 -29 -35 -55q-28 -32 -57 -63q-21 -21 -41 -43q-24 -26 -44 -53q-20 -28 -36 -57q-4 -7 -10.5 -8.5t-10.5 1.5t-2 10q13 32 37 62t51 56q19 19 39 38q29 28 57 56l2 2q24 22 37 48q6 14 1 24q-6 7 -16 8q-25 0 -51 -14q-29 -15 -54 -38
q-24 -22 -40 -49q-3 -4 -5 -7q0 -2 -1 -3v0v-1h-1q0 -2 -0.5 -3t-1 -1.5l-0.5 -0.5v0.5t1 0.5q-1 -1 -2 -3q-1 -3 -2 -7q-1 -1 -1 -3l-1 -1v-3q-1 -2 -1 -3v1v0v0v-0.5v-0.5v0v-3q0 -2 -1 -5q0 -2 -1 -4v-3q-3 -6 -9.5 -9t-11.5 0q-7 5 -7 14q-1 10 2 20q7 20 22 37
q27 31 61 55q29 21 61 35q29 13 54 9zM320 472v0q5 -3 7 -8q1 -3 0 -6.5t-3 -6.5t-4 -7l-1 -1q-3 -5 -9 -8t-11 -2q-11 2 -8 14v1q1 1 1 3l1 2q0 2 -1 -2q1 7 6.5 13t12.5 8q5 1 9 0z" />
    <glyph glyph-name="at" unicode="@" horiz-adv-x="751" 
d="M831 768v0q35 -15 53 -46q17 -33 1 -78q-20 -47 -60 -87q-36 -38 -79 -67q-22 -15 -45 -27q-7 -3 -13 -6q-5 -2 -9 -5q-14 -7 -27 -11q-29 -11 -54 -7q-23 5 -31 26q-7 20 1 45q1 5 3 9q0 1 1 1q-28 -23 -57 -43q-21 -14 -43 -25q-12 -6 -23.5 -8.5t-20.5 1.5
q-9 5 -10.5 14.5t2.5 20.5q11 24 30 45q35 44 85 58q27 5 47 -5q11 -6 11 -19q0 -3 -1 -5q3 4 7 8q3 4 6.5 4t5.5 -2t1 -6v-2q-2 -5 -3 -9q-1 -6 -3 -11v-2q-2 -5 -3.5 -10t-1.5 -10q-1 -6 -1 -12v-0.5v-0.5v-1.5v-0.5v1v0v0v-1v-1v-1q1 -4 2 -9v0v-1l1 -1v-1l1 -1v0l2 -4
q1 0 1 -1v0q1 0 2 -1l4 -4q1 0 2 -1v0v0v0h2q1 -1 2 -1h0.5h1.5h1l0.5 -0.5l0.5 -0.5h4h6l1 1h1v0l-0.5 -0.5l-0.5 -0.5v0v0.5t1 0.5q6 0 12 2l22 6h1q9 3 19 7q10 5 21 10q89 44 145 124q28 41 23 79q-8 33 -37 52q-66 41 -161 22q-90 -19 -175 -76q-85 -55 -148 -133
q-15 -17 -28 -37q-6 -11 -12 -21q-3 -5 -6 -11q0 -1 -1 -2v0v0v-1h-1v-1v-0.5v-0.5q-1 -1 -2 -3q-9 -20 -16 -41q-1 -5 -3 -10q0 -3 -1 -5v-1v0v-0.5t-0.5 -0.5t-0.5 -1q-2 -10 -3 -20q-1 -9 -1 -19q-1 -5 0 -10v-4v-0.5v-1.5v-1q1 -19 8 -36v0v0v-0.5v-0.5v-0.5t0.5 -0.5
h0.5q0 -2 1 -3l4 -8q4 -7 9 -13q8 -12 21 -21q26 -19 62 -24q36 -4 77 7q83 26 143 95q4 4 7.5 3.5t4.5 -3.5t-2 -7q-14 -18 -31 -34q-78 -70 -169 -83q-93 -10 -141 47q-24 30 -27 72t12 87q34 94 116 172q79 78 176 125q99 48 193 45q46 -2 84 -19zM580 533v0q1 2 3 5
q-5 -4 -10 -4q-3 0 -5 2h-1l-1 1l1 -1v0q-1 0 -1 1v0v0h-2l-4 2q-4 2 -7 3q-2 1 -5 1h-1v0v1v0v0h-0.5h-0.5h-2h-7q-1 -1 -3 -1h-1h-1v0v0h-1h-1l-8 -2l-0.5 -0.5t-1.5 -0.5t-1.5 -0.5t-1.5 -0.5t-3 -1q-9 -3 -17 -8l-0.5 -0.5t-1.5 -0.5l-0.5 -0.5l-0.5 -0.5q-2 -1 -4 -3
q-4 -2 -7 -5q-15 -11 -28 -26q-6 -8 -11.5 -16.5t-5.5 -16.5t7 -9t16 2q19 7 38 18q18 11 36 24q23 16 44 35v1q1 0 1 1z" />
    <glyph glyph-name="A" unicode="A" horiz-adv-x="1132" 
d="M1349 577q1 -1 0.5 -2.5t-1.5 -1.5q-4 -2 -9 -3q-23 -4 -47 -6l-29 -4q-14 -2 -28 -5l-44 -8q-6 -1 -14 -2q-13 -2 -27 -5q-5 -2 -6.5 -4t-2.5 -6v-3l-22 -60q-34 -102 -62 -204q-27 -101 -49 -203q-10 -50 -21 -101q-4 -25 -9 -50q-2 -12 -4 -25q-1 -6 -3 -13v-3v-4v-2
l-2 -2q-5 -5 -8 -5q-4 0 -5.5 12t3.5 42t12 62t12 54q3 14 4 19q26 122 57.5 244t76.5 245l-117 -26q-88 -18 -175 -40q-17 -22 -33 -44q-86 -116 -178.5 -229t-202.5 -214q-174 -126 -271 -126h-2q-96 0 -118 82q-20 74 18 179q4 12 32.5 79.5t151.5 184.5q68 58 168 122
t198 96q45 15 83 15q44 0 77 -21q3 -3 1 -6.5t-5 -5.5q-3 -1 -5 -1h-3q-31 12 -68 12q-39 0 -105.5 -21t-153.5 -74.5t-156 -109.5q-147 -142 -196 -265l-7 -19q-40 -109 -9 -173q26 -56 99 -56q18 0 80 10.5t223 148.5t364 431q-50 -15 -101 -29q-82 -22 -165 -49t-163 -67
q-11 -7 -17 -7q-4 0 -5 2q-4 5 -1 13q1 2 5 9.5t20 12.5l111 34q163 51 327 95q262 376 513 758q19 30 37 60q57 103 131 198q3 2 5 2q1 0 2 -1.5t0 -4.5q-2 -3 -5 -5q4 -1 6.5 -5.5t0.5 -9.5t-8 -8q-49 -123 -100 -246q-70 -166 -135 -332q-32 -83 -63 -167
q-30 -83 -58 -166q3 1 6 1h1q20 4 40 7q20 4 40 7q22 4 42 6q21 3 40 5q7 0 15 1q1 0 8 1t9 0zM1124 544q42 134 91 268q31 85 91.5 237t154.5 370q-295 -474 -622 -938q57 15 114 26q53 10 108 24q32 7 63 13z" />
    <glyph glyph-name="B" unicode="B" horiz-adv-x="1198" 
d="M1409 577q5 0 6.5 -3.5t0.5 -7.5t-5 -6.5t-10 -3.5l-92 -12q-44 -5 -88 -12q25 -46 27 -104q-1 -57 -22 -116q-9 -24 -36 -79t-94 -130q-67 -77 -151.5 -139t-174.5 -106q-185 -93 -365 -102q-12 -1 -24 -1q-79 0 -152 24.5t-109 95.5q-31 66 -1 152q36 91 115 165
q80 74 174 124l10 6l4 2l18 51q47 129 106 256q71 154 158 305t190 296q49 69 101 136q-1 -1 -2 -1l-18 -10q-105 -60 -204 -135q-98 -73 -186 -156q-45 -42 -85 -86q-42 -45 -79 -91q-57 -72 -111 -146q-14 -21 -30 -42q-4 -5 -9 -8q-3 -1 -6 -1h-4q-4 2 -5 6t1 8l1 2
q15 24 32 48q17 25 36 49q20 25 41 49q40 46 82 91q43 44 88 87q44 43 91 84q94 82 195 153q89 63 183 114l52 64l7 10q18 24 41 43q6 5 13 7q3 1 5 1q3 0 5 -2q1 -2 1.5 -5t-0.5 -6l-1 -4q-5 -14 -16 -26l-4 -6q-11 -14 -23 -29l-12 -14q97 45 191 51h6q23 0 43 -6
q6 -2 10 -4q6 -3 11 -6q11 -6 18 -14q25 -37 13 -90q-3 -16 -9 -32q-16 -43 -47 -85q-38 -53 -81 -103q-80 -94 -174 -176q-91 -80 -192 -150q-51 -35 -105 -67l-10 -6q-2 -1 -5 -3q2 0 3 1h7l2 1h2q4 0 8 1q11 0 22 1l23 1l22 -1q46 -1 90 -9q86 -15 156 -53
q82 -42 133 -116q100 14 198 26zM561 592q-52 -114 -94 -230l-7 -19q71 35 144 63q203 77 404 112q39 8 78 14q10 2 23 3q24 2 49 9q-10 20 -29 36t-39 28q-3 2 -5 4q-43 27 -93 45q-101 36 -221 36h-12q-31 0 -62 -4q-8 -1 -19 -4q-11 -4 -23 -6q-5 -1 -9 -1t-7 1
q-5 5 -5 11l1 3q2 6 8 10q8 4 18 5q9 2 18 7q19 10 37 21h1q41 24 80 51q79 52 153 112q124 102 230 221q4 5 8 9q51 55 97 120q24 33 36 66q11 30 11 60q-2 48 -42 63q-24 9 -53 9q-18 0 -37 -3q-69 -12 -137 -43q-29 -36 -56 -72q-55 -72 -106 -144q-99 -145 -186 -295
q-85 -148 -154 -298zM1204 446q-3 19 -9 37l-2 4v1q0 1 -1 1l-1 2l-2 6q-4 8 -9 15q-3 7 -8 13q-126 -18 -254 -45q-197 -42 -393 -123q-36 -15 -72 -32l-14 -38q-46 -144 -83 -287q-2 -8 -4 -17q-2 -6 -8 -9q-5 -2 -9 -2q-1 0 -4 1t-2 7l2 18q2 10 3 19q14 71 37 144
q0 5 2 10q20 67 42 135q-66 -33 -125.5 -78t-105.5 -104q-36 -47 -54 -95q-13 -36 -15 -73q2 -76 54 -121q59 -48 148 -54q24 -2 49 -2q63 0 129 13q88 17 175 51q45 17 89 40l42 22q23 13 43 25q42 26 82 57q20 15 38 30q6 5 11 9q2 2 5 4v1l2 1l16 14q36 34 67 70
q16 18 30 36q2 1 2 2t1 1l1 1q2 2 4 5q2 4 6 9q7 9 14 19q13 19 24 38q6 10 12 21q2 4 5 9l2 4v1q12 24 21 49q6 14 10 29q1 5 2 9l1 3q0 1 -1 1l2 4q2 10 3 19q3 19 3 37v11q-1 0 0 1q0 1 -0.5 1t-0.5 1q1 1 0 2q-1 9 -2 17z" />
    <glyph glyph-name="C" unicode="C" horiz-adv-x="1168" 
d="M1376 575q5 5 9.5 4.5t5.5 -4.5q1 -2 1 -4q-1 -2 -3 -4q-36 -43 -75 -85q-155 -174 -333 -335q-83 -75 -173 -144.5t-192 -118.5q-100 -47 -199 -56q-15 -1 -31 -1q-79 0 -138 35q-33 22 -57 52t-41 65q-30 75 -32 162q-1 178 67 366l6 18q65 180 184 351
q119 172 288 318q78 68 168.5 122.5t188.5 83.5q56 17 107 17q46 0 88 -14q69 -29 92 -95q27 -73 6 -159q-8 -32 -20 -64q-24 -68 -64 -134q-4 -5 -9 -7h-3q-4 0 -6.5 2t-0.5 7q8 19 17 38q12 27 24 55q8 18 14 36q24 66 30.5 139.5t-43.5 131.5q-47 48 -129 48q-9 0 -18 -1
q-100 -10 -198 -59q-90 -44 -169.5 -106.5t-146.5 -134.5q-145 -158 -247 -333q-72 -121 -116 -244q-20 -55 -35 -111q-24 -87 -32.5 -173.5t5.5 -166.5q7 -39 20 -76q11 -35 31 -66q41 -63 123 -83q29 -5 58 -5q63 0 131 22q101 32 192 92q92 61 174 132q88 75 171 154
q84 80 161 162q78 84 149 171z" />
    <glyph glyph-name="D" unicode="D" horiz-adv-x="1388" 
d="M1598 577q4 0 4 -3v-4q-1 -1 -3 -3.5t-6 -2.5q-60 5 -123 6q-35 0 -71 -2q-25 -32 -50 -63q-88 -106 -188 -201q-98 -92 -206 -170q-107 -77 -223 -132q-114 -55 -229 -76q-27 -4 -55 -6q-13 0 -26 1q-6 0 -11 1q-3 0 -6 1h-1q-3 0 -5 1h-1h1q-49 7 -77 40q-28 34 -21 86
q4 18 10 36q14 37 40 74q39 52 91 96.5t107 79.5q57 36 116 64q13 30 25 61q46 109 98 218q51 108 107 215q22 41 44 81q7 14 15 27q13 26 25 52q13 29 29 57q5 8 13 11q6 3 11 3q3 0 5 -1q7 -2 8 -9q1 -5 -1 -10q-1 -2 -3 -5t-3 -7q-5 -9 -12 -19q-36 -51 -66 -104
q-30 -54 -57 -107q-57 -107 -107 -214q-50 -108 -94 -215q-4 -7 -6 -13l-3 -8q47 21 94 38q137 51 272 82q140 32 275 43q13 1 27 2q114 144 181 299q10 23 19 46q12 35 21 70q7 25 11 52q4 26 6 52q7 105 -55 171q-67 61 -170 73q-38 4 -76 4q-68 0 -139 -13
q-224 -44 -439 -177q-107 -66 -205 -147q-49 -41 -95 -87q-21 -23 -40 -48q-13 -15 -27 -30q-7 -8 -15 -17q-9 -9 -17 -9q-2 0 -8 0.5t-9 9.5q-2 4 0 9t7 10l9 9q19 19 39 36q10 7 18 14q15 11 29 23q49 42 100 83q50 41 103 78q105 75 218 133q111 57 225 93q112 35 222 42
q22 2 44 2q88 0 165 -27q96 -33 136 -121q19 -46 20 -101q1 -25 -2 -53q-4 -30 -11 -60q-10 -38 -24 -77q-32 -86 -81 -170q-50 -87 -113 -169q33 1 65 1q64 0 125 -5zM1226 419q66 71 126 147q-204 -14 -416 -76q-123 -34 -248 -90q-38 -92 -71 -183q-40 -109 -74 -217
q-3 -7 -9 -10q-3 -1 -6 -1t-6.5 2t-1.5 9q5 13 9 27q29 91 62 182l13 36q27 71 56 142q-104 -50 -196 -125q-51 -43 -92 -96q-27 -36 -41 -74q-5 -15 -8 -30q-9 -50 25 -77q14 -11 32 -16q2 0 2 -1l10 -2q3 0 4 -1h4q4 -1 8 -1h2q1 -1 2 -1h2h2h6q11 -1 23 -1q13 0 26 1
q7 0 13 1h6l1 1h2q13 1 25 4q53 10 107 29q8 3 13.5 5t13.5 5l26 10q28 12 56 25q54 26 106 57l2 2h1q1 1 2 1l1 1q4 2 6 4l39 24q27 18 53 37q51 36 99 77q48 40 94 83q46 44 89 90z" />
    <glyph glyph-name="E" unicode="E" horiz-adv-x="911" 
d="M1130 580q4 -1 2 -6q-2 -6 -6 -11q-92 -101 -187 -200t-200 -189l-14 -12q-115 -98 -243 -174q-76 -45 -167 -78q-80 -28 -150 -28q-8 0 -51 2t-76 68q-18 42 -12 94q4 35 16 69q9 23 29.5 62.5t63.5 92.5q86 105 193 194q100 85 210 154q56 35 114 66q28 15 58 27
q3 2 6 3q1 0 1 1h1q2 1 3 1l1 1q1 0 2 1q-1 0 -1 1q-1 0 -2 1q-53 34 -99 74q-47 40 -82 90q-24 33 -40 73t-15 87q1 26 10 52q10 26 28 52q23 32 55 58q31 26 67 44q82 38 162 46q65 9 127 9h22q72 -3 138 -17q66 -16 125 -42q31 -13 58 -28q14 -7 25 -15q2 0 2 -1
q13 -9 24 -20q6 -6 3 -14q-1 -4 -5 -9q-5 -5 -13 -7q-2 -1 -4 -1q-4 0 -7 3q-3 2 -7 5q-9 6 -16 13q-42 42 -98 70q-56 27 -121 40q-66 14 -136 14q-72 0 -150 -15q-49 -9 -100.5 -31.5t-92.5 -58.5q-36 -32 -52 -77l-4 -13q-14 -63 10 -113q33 -79 94 -137t134 -104
q13 -8 17 -19q1 -4 0 -8q-3 -8 -18 -17q-33 -19 -67 -37q-130 -68 -255 -156q-160 -116 -280 -266q-38 -48 -63 -100q-7 -15 -12 -29q-13 -36 -15 -72l-1 -6q-1 -53 30 -88.5t86 -39.5h10q62 0 132 23.5t139 62.5q189 108 351 262q158 152 302 316q0 1 1 2q3 2 5 3.5t5 1.5z
" />
    <glyph glyph-name="F" unicode="F" horiz-adv-x="932" 
d="M2077 1532q9 -4 8 -14l-1 -3q-3 -8 -11 -15q-7 -6 -15 -6q-3 0 -6 1q-34 13 -73 19q-37 5 -76 5q-46 0 -114.5 -10t-159.5 -37q-193 -59 -386 -137q-78 -31 -158 -65q-49 -20 -100 -41l-31 -54q-31 -49 -59 -99q-142 -254 -256 -512q47 12 92 22q57 13 113 22q28 5 56 9
l27 4q3 1 6 1q12 2 22 2q4 -1 5 -3l-1 -3q0 -1 -1.5 -3t-5.5 -4q-12 -3 -23 -4q-4 -1 -8 -1q-16 -2 -32 -5q-31 -5 -61 -11q-99 -18 -198 -46q-26 -59 -51 -119q-2 -5 -5 -9l-3 -9q-43 -134 -92 -269q-67 -184 -138 -369q-2 -6 -7 -7q-2 -1 -5 -1q-2 0 -4.5 1.5t-1.5 6.5
q51 171 113 342l11 28q51 139 109 277q19 58 36 117q-50 -15 -101 -33l-20 -8l-39 -14l-9 -4q-25 -10 -48 -12q-6 0 -6 6q0 2 1 3q1 4 5 7q25 17 54 25l12 4q31 10 62 19q48 14 94 27q2 4 3 9l4 11q50 176 79 350q22 109 13 210q-2 0 -3 -1q-3 0 -5 -1q-55 -12 -105 -12
q-32 0 -62 5q-36 6 -58 28t-19 59q1 12 5 24q8 21 25 41q29 29 66 39q19 5 36 5q18 0 41 -9t42 -33q40 -48 51 -113q1 -1 0 -2l1 -1q120 26 241 75l26 46q46 81 96 161q8 11 18 13h3q7 0 12 -5t2 -14l-2 -5q-54 -88 -106 -177q2 1 3 1q2 1 3 2q187 76 375 147
q182 72 363 120q90 23 174 27q12 1 23 1q72 0 135 -22zM656 1153q18 2 36 5q-3 19 -8 36q-18 64 -71 99q-18 11 -40 11q-13 0 -28 -4q-35 -9 -60 -39q-7 -11 -11 -22q-8 -20 -0.5 -43t33.5 -35q29 -14 69 -14t80 6zM891 1120l47 90q-35 -14 -69 -26q-78 -29 -154 -47
q6 -63 -1.5 -130t-21.5 -134q-30 -157 -75 -314q53 117 109 235q64 129 130 259q18 33 35 67z" />
    <glyph glyph-name="G" unicode="G" horiz-adv-x="1082" 
d="M1522 1222q20 -19 34 -44q3 -7 0 -15q-1 -2 -5.5 -8.5t-15.5 -9.5q-4 -1 -7 -1q-7 0 -11 5q-7 12 -17 22l-3 5h-1l1 -1v1q-1 0 -2 1q1 1 0 1q-1 1 -3 2l-7 11q-14 19 -32 35q-37 35 -89 54q-53 16 -115 18h-18q-117 0 -244 -47q-69 -25 -136 -63q-72 -41 -139 -90
q-139 -97 -255 -218q-47 -49 -90 -102v-1l-2 -1q0 -1 -2 -3q-2 -3 -5 -7q-6 -8 -12 -17q-13 -18 -26 -37q-28 -42 -52 -85q-3 -6 -5 -11q-2 -3 -3 -6v-1l-2 -1l-10 -22q-6 -15 -12 -29l-5 -15l-6 -20l-1 -3l1 -1l-2 -3q0 -5 -1 -9q-2 -9 -2 -18q0 -5 -1 -9q1 -2 0 -3l1 -1
v-1q1 -8 3 -16v-4l1 -1q1 -3 3 -6l5 -8q1 0 1 -1q6 -6 13 -10h2l-1 -1h2l1 -1h1q2 -1 4 -1q1 -1 4 -2q4 -2 9 -3q3 0 5 -1h4q10 -1 20 -1q14 0 29 2q28 4 57 14q31 12 62 29q64 34 124 77.5t116 89.5l6 4q48 38 97 75l6 4q54 41 111 77q57 38 118 51q9 2 16 2h1q1 1 2 1h9
q14 -1 25 -5q27 -10 43 -31q27 -41 31 -96q2 -12 2 -24l2 -16q-1 -1 -1 -2t0.5 -1.5t0.5 -1.5l-1 -2q1 -2 1 -5q0 -26 -3 -52q-7 -65 -26 -133q15 10 29 19l21 14q25 17 50 33q35 24 72 38h2q2 0 3 -1.5t-1 -4.5t-5 -4q-38 -15 -73 -40q-20 -12 -39 -25q-15 -10 -29 -19
q-17 -11 -33 -22q-10 -33 -22 -66l-9 -22q-48 -122 -121 -239q-71 -113 -167 -212q-21 -22 -44 -43l-10 -8l-1 -1l2 1l-1 -1q-2 -1 -3 -2l-3 -3q-6 -5 -11 -9q-11 -10 -23 -18q-29 -23 -61 -41.5t-65 -26.5q-11 -3 -20 -3q-21 0 -36 12q-16 16 -14 42q1 20 8 40q3 7 11 25
t24 44q80 126 190 236q123 123 264 227l56 40q8 24 15 48q4 14 7 29l2 4q0 3 1 6q1 6 3 13q10 54 11 106q1 13 1 25v12v5l-1 1v1.5v1.5q-2 23 -6 45l-6 22q-2 8 -4 14t-6 12q-6 12 -13 19l-10 6l-2 2l-6 2q-5 2 -11 3q-2 1 -4.5 1h-4.5l-6 1l-7 -1q-5 0 -9 -1
q-28 -4 -56 -17q-62 -29 -120 -71q-53 -37 -105 -77q-14 -12 -29 -23q-98 -81 -203 -149q-60 -38 -122 -64q-53 -21 -102 -21h-12q-42 2 -64 31q-18 28 -13 66q4 31 16 62q4 12 16.5 41t38.5 71q44 76 103 146q106 124 236 226q66 52 136 97t141 82q134 68 267 91
q53 8 102 8q73 0 138 -18l14 -4l38 -12q26 -11 49 -24q23 -14 43 -31zM1015 306q24 50 41 99l7 17q-97 -68 -187 -145q-134 -113 -239 -248q-41 -52 -73 -107q-14 -25 -24 -52l-2 -5q-9 -25 -7 -46q5 -24 33 -26q27 2 56 21q30 18 58 42l5 4l2 2l5 4q5 5 11 9v1h1q0 1 2 2
q2 2 4 5q4 2 7 5l4 4q46 43 87 90q22 25 42 51l1 1l1 1l1 1l4 6l10 12l20 28q39 55 73 112q16 29 31 58q5 8 9 16l1 5q2 2 3 4q7 15 13 29z" />
    <glyph glyph-name="H" unicode="H" horiz-adv-x="1088" 
d="M1418 814h2q4 0 5 -3q2 -2 0 -6q0 -1 -1.5 -3.5t-7.5 -3.5q-57 -10 -116 -22q-98 -20 -197 -47q-50 -112 -99 -224q-79 -180 -149 -361l-54 -144q-39 -108 -75 -217q-3 -7 -8 -9q-3 -1 -6 -1q-2 0 -5.5 1.5t-1.5 8.5l16 45l38 104q47 130 98 259q69 181 147 363
q36 84 74 168q-126 -35 -251 -83q-54 -20 -107 -42q-96 -177 -209 -348q-67 -105 -151 -202q-41 -46 -90 -85q-48 -38 -102 -61q-31 -13 -59 -13q-20 0 -38 7q-34 19 -38 60q-3 36 11 75q5 14 22 47.5t54 81.5q141 190 345 318q105 67 215 117q63 114 122 229
q56 112 111 224l14 26q51 100 89 201q19 55 27 108q8 44 -5 81q-15 37 -61 41h-6q-48 0 -99 -26q-53 -29 -100 -68q-46 -37 -90 -77q-87 -81 -159 -173q-69 -91 -118 -188q-51 -97 -88 -195q-5 -11 -13 -14q-5 -2 -9 -2t-9 2.5t-2 13.5q5 18 12 37q11 31 26 62
q47 103 120 200q69 96 152 183q84 88 180 163q48 38 101.5 67.5t107.5 33.5h3q50 0 76 -31q23 -34 22 -81q-2 -55 -23 -113q-6 -20 -13 -39q-14 -39 -32 -78q-45 -99 -94 -196l-21 -40q-58 -117 -120 -235q-25 -47 -49 -93q93 39 186 71q85 28 168 52q40 87 82 175
q86 180 179 359q46 90 94 180q13 24 24 48q9 21 20 42q23 45 49 89q5 7 13 11q5 3 10 3q3 0 5 -1q6 -2 7 -9q1 -4 -1 -9q-1 -2 -2 -5q-11 -22 -24 -44q-17 -30 -36 -59q-9 -14 -18 -29q-26 -43 -50 -88q-49 -89 -94 -178q-92 -179 -178 -359q-27 -59 -54 -119q154 42 306 67
zM553 376q60 98 116 197q-141 -64 -270 -156q-95 -68 -177 -151t-138 -179q-17 -27 -26 -53q-11 -28 -13 -56q-2 -44 31 -65q17 -8 36 -8q27 0 69 22.5t83 60.5q84 81 147 175q76 105 142 213z" />
    <glyph glyph-name="I" unicode="I" horiz-adv-x="590" 
d="M371 117q-47 -96 -82 -193q-17 -45 -31 -91q-2 -5 -5 -7q-3 -1 -5 -1t-4.5 1.5t-1.5 6.5q10 30 20 59l17 49q43 119 106.5 246.5t140.5 263.5q110 190 230 378q52 83 104 167q87 137 154 278q11 27 21 54q16 43 27 87q7 25 8 50.5t-9 44.5q-13 19 -38 25q-11 3 -23 3
q-16 0 -33 -5q-69 -21 -129 -72q-113 -91 -205 -201q-95 -111 -170 -230q-39 -59 -72 -120q-16 -29 -32 -60q-14 -29 -33 -57q-1 -3 -3 -5q-9 -12 -18 -13h-4q-7 0 -11 5t-1 15l1 3l5 6q14 27 33 54q53 71 101 143q33 48 67 97q82 116 181 223q51 55 107 105q55 50 117 90
q62 38 124 42h7q27 0 46.5 -14.5t25.5 -39.5q8 -25 3.5 -56t-14.5 -61q-9 -30 -19 -59q-16 -45 -38 -89q-73 -145 -163 -286q-74 -119 -150 -236q-103 -159 -201 -319q-84 -139 -151 -281z" />
    <glyph glyph-name="J" unicode="J" horiz-adv-x="1018" 
d="M498 1028q-27 -6 -53 -6q-33 0 -61 10q-6 2 -4 8q-1 2 0 4q1 3 4 6q3 4 8 4h21q48 0 98 12q123 31 244 93q117 57 228 131q112 73 211 164q6 5 12 11q19 18 40.5 35t43.5 17q29 -3 29 -32q1 -20 0 -41l-2 -16q-17 -237 -82 -484q-28 -105 -66 -210q-33 -88 -72 -177
q68 14 133 20q6 0 7 -4q0 -2 -1 -4t-4 -6t-9 -5q-51 -5 -103 -14q-16 -3 -31 -6l-38 -80q-56 -114 -125.5 -226.5t-155.5 -217.5q-76 -94 -173 -173.5t-208 -118.5q-66 -23 -126 -23q-34 0 -65 7q-86 25 -92 115q-1 48 16 96q8 21 32.5 65.5t84.5 106.5t125 113
q198 159 423 256q134 58 267 90l23 50q28 66 52 133q62 170 97 339q25 117 39 233q7 58 12 115q1 25 3 51v4v1q1 4 0.5 7t-4.5 4l-3 1l-13 -3q-25 -11 -46 -30q-1 0 -2 -1q-23 -19 -49 -39l-25 -20q-38 -30 -76 -59q-104 -76 -213 -141q-111 -68 -225 -120q-63 -30 -126 -45
zM829 145q128 187 216 383q-179 -43 -357 -132q-107 -54 -208 -123q-104 -69 -196 -154q-47 -43 -86 -92.5t-61 -104.5l-2 -5q-17 -46 -16 -91t30 -75q28 -27 70 -33q16 -2 33 -2q28 0 58 6q101 23 195 88q98 67 179 154t145 181z" />
    </font>
</defs>
</svg>
